<svg width="30" height="31" viewBox="0 0 30 31" fill="none" xmlns="http://www.w3.org/2000/svg">
<circle cx="15" cy="15.9976" r="15" fill="white"/>
<g clip-path="url(#clip0_110_2)">
<path fill-rule="evenodd" clip-rule="evenodd" d="M12.5153 21.5347C12.1736 21.1999 12.1736 20.6572 12.5153 20.3224L16.6463 16.2758L12.5153 12.2292C12.1736 11.8945 12.1736 11.3517 12.5153 11.017L12.7077 10.8285C13.0494 10.4938 13.6035 10.4938 13.9452 10.8285L18.7409 15.5264C18.9491 15.7303 19.0305 16.0115 18.9849 16.2758C19.0305 16.5401 18.9491 16.8213 18.7409 17.0253L13.9452 21.7232C13.6035 22.0579 13.0494 22.0579 12.7077 21.7232L12.5153 21.5347Z" fill="#0057FF"/>
</g>
<defs>
<clipPath id="clip0_110_2">
<rect width="7" height="12" fill="white" transform="matrix(-1 -8.74228e-08 -8.74228e-08 1 19 9.99756)"/>
</clipPath>
</defs>
</svg>
