<svg width="26" height="26" viewBox="0 0 26 26" fill="none" xmlns="http://www.w3.org/2000/svg">
<path d="M13 0.5C6.10488 0.5 0.5 6.10488 0.5 13C0.5 19.8951 6.10488 25.5 13 25.5C19.8951 25.5 25.5 19.8951 25.5 13C25.5 6.10488 19.8951 0.5 13 0.5ZM16.4545 14.0266H14.0266V16.4545C14.0266 17.0233 13.5549 17.495 12.9861 17.495C12.4173 17.495 11.9456 17.0233 11.9456 16.4545V14.0266H9.51776C8.94895 14.0266 8.47725 13.5549 8.47725 12.9861C8.47725 12.4173 8.94895 11.9456 9.51776 11.9456H11.9456V9.51776C11.9456 8.94895 12.4173 8.47725 12.9861 8.47725C13.5549 8.47725 14.0266 8.94895 14.0266 9.51776V11.9456H16.4545C17.0233 11.9456 17.495 12.4173 17.495 12.9861C17.495 13.5549 17.0233 14.0266 16.4545 14.0266Z" fill="#121212"/>
</svg>
