<svg width="24" height="29" viewBox="0 0 24 29" fill="none" xmlns="http://www.w3.org/2000/svg">
<path d="M19.4961 15.365C19.4657 11.7125 22.4663 9.93723 22.5981 9.85561C20.8951 7.3662 18.2594 7.01931 17.3369 6.9887C15.127 6.75405 12.9779 8.32523 11.8527 8.32523C10.7072 8.32523 8.9636 7.01931 7.09836 7.04992C4.69584 7.09073 2.43525 8.48847 1.20865 10.6718C-1.33579 15.1099 0.559867 21.6395 3.00293 25.2308C4.22953 26.9856 5.64874 28.9547 7.52412 28.8833C9.34881 28.8118 10.0381 27.71 12.2379 27.71C14.4275 27.71 15.0662 28.8833 16.972 28.8424C18.9386 28.8118 20.1652 27.0774 21.3513 25.3022C22.7603 23.2923 23.328 21.3028 23.3483 21.2008C23.2976 21.1804 19.5367 19.7316 19.4961 15.365Z" fill="#121212"/>
<path d="M15.8968 4.63193C16.8801 3.39743 17.5492 1.71402 17.3667 0C15.9475 0.0612149 14.1634 0.989642 13.1395 2.20374C12.2373 3.275 11.4263 5.01963 11.6291 6.66223C13.2307 6.78466 14.873 5.84603 15.8968 4.63193Z" fill="#121212"/>
</svg>
