<svg width="120" height="33" viewBox="0 0 120 33" fill="none" xmlns="http://www.w3.org/2000/svg">
<g clip-path="url(#clip0_0_257)">
<path d="M0.451763 12.6702C0.340598 12.6702 0.257223 12.6207 0.201639 12.5217C0.157173 12.4117 0.162731 12.2797 0.218314 12.1257L4.32035 0.773708C4.36481 0.652707 4.4204 0.564706 4.4871 0.509708C4.5538 0.454707 4.65385 0.427208 4.78725 0.427208H7.68869C7.96659 0.427208 8.15558 0.564706 8.25563 0.839708L12.3076 12.1587C12.341 12.2577 12.341 12.3677 12.3076 12.4887C12.2743 12.6097 12.1965 12.6702 12.0742 12.6702H9.20611C9.02825 12.6702 8.91152 12.5822 8.85593 12.4062L8.12223 10.2612C8.09999 10.2172 8.07221 10.1787 8.03886 10.1457C8.01662 10.1017 7.96105 10.0797 7.87211 10.0797H4.0869C3.96461 10.0797 3.8868 10.1402 3.85345 10.2612L3.06973 12.4392C3.04749 12.5052 3.0086 12.5602 2.953 12.6042C2.89742 12.6482 2.81405 12.6702 2.70288 12.6702H0.451763ZM7.12174 7.57171C7.27738 7.57171 7.32741 7.4672 7.27181 7.25821L6.07122 3.94171C6.04897 3.8867 6.01562 3.85921 5.97117 3.85921C5.92671 3.85921 5.89336 3.8867 5.87112 3.94171L4.65385 7.25821C4.57604 7.4672 4.62607 7.57171 4.80392 7.57171H7.12174ZM24.7498 12.1752C24.8053 12.3072 24.7998 12.4227 24.7331 12.5217C24.6775 12.6207 24.5886 12.6702 24.4663 12.6702H21.6149C21.4036 12.6702 21.2647 12.5657 21.198 12.3567L19.5305 7.91821C19.4638 7.75321 19.2971 7.67071 19.0303 7.67071H17.8797C17.8019 7.67071 17.7463 7.69272 17.7129 7.73671C17.6907 7.7807 17.6796 7.81921 17.6796 7.85221V12.2247C17.6796 12.5217 17.5128 12.6702 17.1793 12.6702H14.6948C14.5502 12.6702 14.4502 12.6427 14.3946 12.5877C14.339 12.5217 14.3113 12.4227 14.3113 12.2907V0.773708C14.3113 0.542708 14.4057 0.427208 14.5947 0.427208H19.9974C21.5537 0.427208 22.7599 0.724208 23.6159 1.31821C24.4718 1.91221 24.8998 2.75921 24.8998 3.85921C24.8998 4.3982 24.7998 4.88772 24.5997 5.32771C24.3996 5.7677 24.1328 6.14172 23.7993 6.44971C23.4658 6.74671 23.0878 6.9722 22.6654 7.12621C22.5653 7.1702 22.5431 7.2692 22.5987 7.42321L24.7498 12.1752ZM19.7806 5.45971C20.3142 5.45971 20.72 5.3387 20.9979 5.09671C21.2758 4.8437 21.4148 4.50271 21.4148 4.07371C21.4148 3.60072 21.2536 3.2432 20.9312 3.00121C20.6199 2.74821 20.2364 2.62171 19.7806 2.62171H18.0298C17.7963 2.62171 17.6796 2.72071 17.6796 2.91871V5.12971C17.6796 5.34972 17.763 5.45971 17.9297 5.45971H19.7806ZM37.4469 12.1752C37.5023 12.3072 37.4969 12.4227 37.4302 12.5217C37.3745 12.6207 37.2855 12.6702 37.1634 12.6702H34.312C34.1006 12.6702 33.9618 12.5657 33.8951 12.3567L32.2276 7.91821C32.1609 7.75321 31.9942 7.67071 31.7274 7.67071H30.5768C30.4988 7.67071 30.4434 7.69272 30.4101 7.73671C30.3877 7.7807 30.3767 7.81921 30.3767 7.85221V12.2247C30.3767 12.5217 30.21 12.6702 29.8765 12.6702H27.3918C27.2473 12.6702 27.1473 12.6427 27.0917 12.5877C27.0361 12.5217 27.0083 12.4227 27.0083 12.2907V0.773708C27.0083 0.542708 27.1028 0.427208 27.2918 0.427208H32.6945C34.2507 0.427208 35.4569 0.724208 36.313 1.31821C37.1688 1.91221 37.597 2.75921 37.597 3.85921C37.597 4.3982 37.4969 4.88772 37.2968 5.32771C37.0967 5.7677 36.8299 6.14172 36.4964 6.44971C36.1629 6.74671 35.7848 6.9722 35.3625 7.12621C35.2625 7.1702 35.2402 7.2692 35.2958 7.42321L37.4469 12.1752ZM32.4778 5.45971C33.0114 5.45971 33.4169 5.3387 33.695 5.09671C33.9729 4.8437 34.1119 4.50271 34.1119 4.07371C34.1119 3.60072 33.9505 3.2432 33.6283 3.00121C33.3169 2.74821 32.9333 2.62171 32.4778 2.62171H30.7269C30.4935 2.62171 30.3767 2.72071 30.3767 2.91871V5.12971C30.3767 5.34972 30.4601 5.45971 30.6269 5.45971H32.4778ZM42.7903 0.427208C42.9791 0.427208 43.0738 0.531706 43.0738 0.740708V12.2247C43.0738 12.3897 43.0291 12.5052 42.9404 12.5712C42.8624 12.6372 42.7403 12.6702 42.5736 12.6702H40.1057C39.9499 12.6702 39.8442 12.6427 39.7888 12.5877C39.7332 12.5217 39.7055 12.4227 39.7055 12.2907V0.773708C39.7055 0.542708 39.7999 0.427208 39.9889 0.427208H42.7903ZM56.0007 0.427208C56.1675 0.427208 56.2509 0.515206 56.2509 0.691208V12.3897C56.2509 12.4777 56.2175 12.5492 56.1508 12.6042C56.0841 12.6482 56.0007 12.6702 55.9007 12.6702H53.883C53.8053 12.6702 53.733 12.6592 53.6663 12.6372C53.6109 12.6152 53.5385 12.5492 53.4495 12.4392L48.5137 5.70721C48.4693 5.64121 48.4303 5.61372 48.397 5.62471C48.3636 5.6357 48.3469 5.6687 48.3469 5.72371V12.3402C48.3583 12.5602 48.2359 12.6702 47.9801 12.6702H45.9624C45.718 12.6702 45.5956 12.5657 45.5956 12.3567V0.773708C45.5956 0.542708 45.7069 0.427208 45.9291 0.427208H48.3136C48.447 0.427208 48.5471 0.443708 48.6138 0.476708C48.6805 0.509708 48.7528 0.581206 48.8305 0.691208L53.2661 6.87871C53.3441 6.97771 53.4051 7.0217 53.4495 7.01071C53.5052 6.99972 53.5329 6.93372 53.5329 6.81271V0.740708C53.5329 0.531706 53.6442 0.427208 53.8664 0.427208H56.0007ZM64.0675 12.8352C62.9226 12.8352 61.9165 12.5767 61.0494 12.0597C60.1933 11.5317 59.532 10.8002 59.0651 9.86521C58.5982 8.9192 58.3647 7.8302 58.3647 6.59821C58.3647 5.31121 58.6092 4.19472 59.0984 3.24871C59.5987 2.30271 60.2934 1.57121 61.1828 1.05421C62.0722 0.526208 63.0947 0.262207 64.251 0.262207C65.2181 0.262207 66.0629 0.438207 66.7856 0.790208C67.5082 1.13121 68.0919 1.57671 68.5364 2.12671C68.9923 2.66571 69.2811 3.2267 69.4035 3.80971C69.4479 4.0187 69.4536 4.15621 69.4202 4.22221C69.3868 4.27722 69.3091 4.3157 69.1868 4.33771L66.6522 4.71721C66.5298 4.71721 66.4521 4.6952 66.4187 4.65121C66.3854 4.5962 66.3577 4.51921 66.3353 4.42021C66.2797 4.09021 66.1629 3.7877 65.9852 3.51271C65.8074 3.2267 65.5683 2.9957 65.2681 2.81971C64.968 2.64371 64.6068 2.55571 64.1843 2.55571C63.7064 2.55571 63.2948 2.68771 62.9503 2.95171C62.6058 3.20472 62.339 3.61722 62.1499 4.18921C61.9722 4.7612 61.8831 5.53122 61.8831 6.49921C61.8831 7.52221 61.9832 8.3252 62.1833 8.90821C62.3834 9.49122 62.6612 9.9092 63.017 10.1622C63.3839 10.4042 63.8118 10.5252 64.301 10.5252C64.5901 10.5252 64.8456 10.4867 65.068 10.4097C65.3015 10.3327 65.5016 10.2282 65.6683 10.0962C65.8461 9.95322 65.9908 9.7937 66.1019 9.61771C66.2243 9.4307 66.3187 9.2327 66.3854 9.02371L66.4187 8.71021C66.4854 8.53422 66.4354 8.44621 66.2686 8.44621H64.4844C64.3844 8.44621 64.3067 8.4242 64.251 8.38021C64.2066 8.33622 64.1843 8.24821 64.1843 8.11621V6.69721C64.1843 6.53221 64.29 6.44971 64.5011 6.44971L69.07 6.48271C69.2478 6.48271 69.3812 6.5267 69.4702 6.61471C69.5703 6.6917 69.6203 6.79621 69.6203 6.92821V12.4062C69.6203 12.4832 69.598 12.5492 69.5536 12.6042C69.5092 12.6482 69.4425 12.6702 69.3535 12.6702H68.7699C68.6698 12.6702 68.5808 12.6482 68.5031 12.6042C68.4254 12.5602 68.353 12.4832 68.2863 12.3732L67.7027 11.3172C67.6804 11.2732 67.6527 11.2512 67.6193 11.2512C67.597 11.2512 67.5693 11.2787 67.5359 11.3337C67.3248 11.5537 67.0747 11.7792 66.7856 12.0102C66.5077 12.2412 66.1463 12.4392 65.7017 12.6042C65.2681 12.7582 64.7235 12.8352 64.0675 12.8352ZM70.6848 0.773708C70.6848 0.674708 70.7128 0.592208 70.7682 0.526208C70.8239 0.460208 70.9183 0.427208 71.0517 0.427208H80.8399C80.9622 0.427208 81.0513 0.460208 81.1066 0.526208C81.1733 0.592208 81.2067 0.674708 81.2067 0.773708V2.52271C81.2067 2.70971 81.0956 2.80321 80.8732 2.80321H77.8384C77.705 2.80321 77.6383 2.85821 77.6383 2.96821V12.3402C77.6383 12.5602 77.5439 12.6702 77.3548 12.6702H74.5534C74.3646 12.6702 74.2699 12.5657 74.2699 12.3567V3.03421C74.2699 2.88021 74.2145 2.80321 74.1032 2.80321H71.035C70.8015 2.80321 70.6848 2.70971 70.6848 2.52271V0.773708ZM88.0163 12.8352C86.8268 12.8352 85.7875 12.5822 84.8981 12.0762C84.02 11.5702 83.3417 10.8497 82.8638 9.91471C82.3858 8.9687 82.1468 7.85772 82.1468 6.58171C82.1468 5.29471 82.3912 4.17822 82.8804 3.23221C83.3697 2.28621 84.0533 1.55471 84.9315 1.03771C85.8096 0.520707 86.8381 0.262207 88.0163 0.262207C89.2059 0.262207 90.2341 0.520707 91.1012 1.03771C91.9793 1.55471 92.6576 2.28621 93.1355 3.23221C93.6248 4.17822 93.8692 5.29471 93.8692 6.58171C93.8692 7.85772 93.6301 8.96322 93.1522 9.89821C92.6743 10.8332 91.996 11.5592 91.1179 12.0762C90.2397 12.5822 89.2059 12.8352 88.0163 12.8352ZM88.033 10.5252C88.8444 10.5252 89.428 10.2227 89.7839 9.61771C90.1507 9.01272 90.3341 8.01721 90.3341 6.63121C90.3341 5.1902 90.1507 4.1507 89.7839 3.51271C89.417 2.87471 88.8277 2.55571 88.0163 2.55571C87.2049 2.55571 86.61 2.87471 86.2321 3.51271C85.8653 4.1507 85.6818 5.1902 85.6818 6.63121C85.6818 8.01721 85.8653 9.01272 86.2321 9.61771C86.599 10.2227 87.1993 10.5252 88.033 10.5252ZM106.414 0.427208C106.581 0.427208 106.665 0.515206 106.665 0.691208V12.3897C106.665 12.4777 106.631 12.5492 106.565 12.6042C106.498 12.6482 106.414 12.6702 106.314 12.6702H104.297C104.219 12.6702 104.147 12.6592 104.08 12.6372C104.024 12.6152 103.952 12.5492 103.863 12.4392L98.9274 5.70721C98.883 5.64121 98.844 5.61372 98.8107 5.62471C98.7773 5.6357 98.7607 5.6687 98.7607 5.72371V12.3402C98.7717 12.5602 98.6496 12.6702 98.3938 12.6702H96.3761C96.1317 12.6702 96.0093 12.5657 96.0093 12.3567V0.773708C96.0093 0.542708 96.1203 0.427208 96.3428 0.427208H98.7273C98.8607 0.427208 98.9607 0.443708 99.0274 0.476708C99.0941 0.509708 99.1665 0.581206 99.2442 0.691208L103.68 6.87871C103.757 6.97771 103.819 7.0217 103.863 7.01071C103.919 6.99972 103.947 6.93372 103.947 6.81271V0.740708C103.947 0.531706 104.058 0.427208 104.28 0.427208H106.414ZM11.4405 31.9634C11.6295 32.2383 11.6907 32.431 11.624 32.5409C11.5684 32.6508 11.435 32.7059 11.2238 32.7059H8.55578C8.24453 32.7059 8.03886 32.6069 7.93881 32.4089L5.83777 29.0099C5.75996 28.8559 5.68769 28.7789 5.62099 28.7789C5.55429 28.7789 5.47649 28.8504 5.38755 28.9934L3.33653 32.4089C3.28093 32.5188 3.19756 32.596 3.0864 32.6399C2.97524 32.6838 2.8474 32.7059 2.70288 32.7059H0.585163C0.373948 32.7059 0.240548 32.6564 0.184964 32.5574C0.129381 32.4475 0.196081 32.2495 0.385064 31.9634L3.77008 26.7989C3.85902 26.6889 3.89791 26.5954 3.8868 26.5184C3.8868 26.4414 3.84788 26.3479 3.77008 26.2379L0.335039 20.9744C0.268339 20.8754 0.246106 20.7654 0.268339 20.6444C0.301689 20.5234 0.401739 20.4629 0.568488 20.4629H3.38655C3.5533 20.4629 3.67559 20.4904 3.7534 20.5454C3.84234 20.5894 3.91458 20.6664 3.97018 20.7764L5.75439 23.7629C5.80999 23.8509 5.87112 23.8949 5.93782 23.8949C6.01562 23.8949 6.07679 23.8509 6.12124 23.7629L7.90546 20.7764C7.96105 20.6664 8.02775 20.5894 8.10556 20.5454C8.1945 20.4904 8.31677 20.4629 8.47241 20.4629H10.8069C10.9848 20.4629 11.0793 20.5179 11.0904 20.6279C11.1015 20.7379 11.0681 20.8424 10.9903 20.9414L7.73871 25.8584C7.67201 25.9574 7.63866 26.0454 7.63866 26.1224C7.64977 26.1994 7.69425 26.2929 7.77206 26.4029L11.4405 31.9634ZM24.0495 32.2109C24.1051 32.3429 24.0996 32.4584 24.0329 32.5574C23.9773 32.6564 23.8884 32.7059 23.7661 32.7059H20.9147C20.7034 32.7059 20.5645 32.6013 20.4978 32.3924L18.8303 27.9539C18.7636 27.7889 18.5968 27.7064 18.33 27.7064H17.1795C17.1017 27.7064 17.0461 27.7284 17.0127 27.7724C16.9905 27.8164 16.9794 27.8549 16.9794 27.8879V32.2604C16.9794 32.5574 16.8126 32.7059 16.4791 32.7059H13.9946C13.85 32.7059 13.75 32.6785 13.6944 32.6234C13.6388 32.5574 13.611 32.4584 13.611 32.3264V20.8094C13.611 20.5784 13.7055 20.4629 13.8945 20.4629H19.2972C20.8535 20.4629 22.0597 20.7599 22.9156 21.3539C23.7716 21.9479 24.1996 22.7949 24.1996 23.8949C24.1996 24.4339 24.0996 24.9234 23.8995 25.3634C23.6994 25.8034 23.4326 26.1774 23.0991 26.4854C22.7656 26.7824 22.3876 27.0079 21.9652 27.1619C21.8651 27.2059 21.8429 27.3049 21.8985 27.4589L24.0495 32.2109ZM19.0804 25.4954C19.614 25.4954 20.0198 25.3744 20.2977 25.1324C20.5756 24.8794 20.7146 24.5384 20.7146 24.1094C20.7146 23.6364 20.5534 23.2789 20.231 23.0369C19.9197 22.7839 19.5362 22.6574 19.0804 22.6574H17.3295C17.0961 22.6574 16.9794 22.7564 16.9794 22.9544V25.1654C16.9794 25.3854 17.0627 25.4954 17.2295 25.4954H19.0804ZM36.7966 24.3569C36.7966 25.1599 36.6021 25.8474 36.213 26.4194C35.8351 26.9914 35.3069 27.4314 34.6288 27.7394C33.9508 28.0364 33.1558 28.1849 32.2443 28.1849H29.8598C29.7376 28.1849 29.6764 28.2399 29.6764 28.3499V32.2769C29.6764 32.563 29.5097 32.7059 29.1762 32.7059H26.6916C26.5471 32.7059 26.447 32.6785 26.3914 32.6234C26.3359 32.5574 26.3081 32.4584 26.3081 32.3264V20.8094C26.3081 20.5784 26.4026 20.4629 26.5915 20.4629H31.8608C32.7723 20.4629 33.6006 20.6059 34.3454 20.8919C35.0901 21.1669 35.685 21.5959 36.1296 22.1789C36.5741 22.7509 36.7966 23.4769 36.7966 24.3569ZM33.3615 24.3074C33.3615 23.9884 33.2838 23.7189 33.1281 23.4989C32.9837 23.2789 32.7836 23.1139 32.5278 23.0039C32.272 22.8829 31.9832 22.8224 31.6607 22.8224H30.0266C29.7931 22.8224 29.6764 22.9324 29.6764 23.1524V25.4789C29.6764 25.6989 29.7598 25.8089 29.9265 25.8089H31.7607C32.25 25.8089 32.6389 25.6714 32.928 25.3964C33.2171 25.1214 33.3615 24.7584 33.3615 24.3074ZM48.132 20.2979C48.799 20.2979 49.4216 20.3914 49.9996 20.5784C50.5888 20.7654 51.1058 21.0294 51.5503 21.3704C52.0062 21.7004 52.3784 22.0909 52.6675 22.5419C52.9567 22.9929 53.1511 23.4824 53.2512 24.0104C53.3069 24.2194 53.3122 24.3569 53.2678 24.4229C53.2345 24.4779 53.1621 24.5109 53.0511 24.5219L50.4498 24.7034C50.3387 24.7034 50.2664 24.6814 50.233 24.6374C50.2107 24.5824 50.1886 24.5054 50.1663 24.4064C50.0663 23.8784 49.8662 23.4439 49.566 23.1029C49.2659 22.7619 48.8156 22.5914 48.2153 22.5914C47.4927 22.5914 46.9203 22.8939 46.4978 23.4989C46.0753 24.0929 45.8642 25.0939 45.8642 26.5019C45.8642 27.9209 46.0586 28.9329 46.4478 29.5379C46.848 30.1428 47.4373 30.4454 48.2153 30.4454C48.8156 30.4454 49.3382 30.2969 49.7828 29.9999C50.2387 29.692 50.6109 29.1694 50.9 28.4324C50.9557 28.3114 51.0944 28.2729 51.3169 28.3169L53.2011 28.6799C53.2455 28.6909 53.2955 28.7294 53.3512 28.7954C53.4179 28.8504 53.4346 28.9769 53.4012 29.1749C53.3569 29.3729 53.2568 29.626 53.1011 29.9339C52.9567 30.2418 52.7509 30.5665 52.4841 30.9074C52.2173 31.2483 51.8782 31.5674 51.4669 31.8644C51.0557 32.1614 50.5722 32.4033 50.0162 32.5904C49.4603 32.7775 48.8266 32.8709 48.1153 32.8709C46.937 32.8709 45.9142 32.6013 45.0471 32.0624C44.18 31.5123 43.513 30.7533 43.0461 29.7854C42.5792 28.8174 42.3458 27.7064 42.3458 26.4524C42.3458 25.1984 42.5792 24.1149 43.0461 23.2019C43.513 22.2779 44.18 21.5629 45.0471 21.0569C45.9252 20.5509 46.9537 20.2979 48.132 20.2979ZM54.704 32.7059C54.5929 32.7059 54.5095 32.6564 54.4538 32.5574C54.4095 32.4475 54.4148 32.3155 54.4705 32.1614L58.5726 20.8094C58.6169 20.6884 58.6726 20.6004 58.7393 20.5454C58.806 20.4904 58.9061 20.4629 59.0395 20.4629H61.9409C62.2187 20.4629 62.4078 20.6004 62.5078 20.8754L66.5599 32.1944C66.5932 32.2934 66.5932 32.4033 66.5599 32.5244C66.5265 32.6455 66.4488 32.7059 66.3264 32.7059H63.4583C63.2805 32.7059 63.1638 32.6178 63.1081 32.4419L62.3744 30.2969C62.3521 30.253 62.3244 30.2144 62.2911 30.1814C62.2687 30.1375 62.2133 30.1154 62.1243 30.1154H58.3391C58.2167 30.1154 58.139 30.1758 58.1057 30.2969L57.3219 32.4749C57.2996 32.5409 57.2609 32.596 57.2052 32.6399C57.1495 32.6838 57.0662 32.7059 56.9551 32.7059H54.704ZM61.3739 27.6074C61.5297 27.6074 61.5797 27.5029 61.524 27.2939L60.3234 23.9774C60.3011 23.9224 60.2677 23.8949 60.2234 23.8949C60.179 23.8949 60.1457 23.9224 60.1233 23.9774L58.9061 27.2939C58.8283 27.5029 58.8784 27.6074 59.0561 27.6074H61.3739ZM79.0521 24.3569C79.0521 25.1599 78.8573 25.8474 78.4684 26.4194C78.0903 26.9914 77.5623 27.4314 76.8843 27.7394C76.206 28.0364 75.4113 28.1849 74.4998 28.1849H72.1153C71.9929 28.1849 71.9319 28.2399 71.9319 28.3499V32.2769C71.9319 32.563 71.7651 32.7059 71.4316 32.7059H68.9471C68.8023 32.7059 68.7023 32.6785 68.6469 32.6234C68.5912 32.5574 68.5635 32.4584 68.5635 32.3264V20.8094C68.5635 20.5784 68.6579 20.4629 68.847 20.4629H74.1163C75.0277 20.4629 75.8558 20.6059 76.6008 20.8919C77.3456 21.1669 77.9402 21.5959 78.3851 22.1789C78.8296 22.7509 79.0521 23.4769 79.0521 24.3569ZM75.617 24.3074C75.617 23.9884 75.539 23.7189 75.3836 23.4989C75.2389 23.2789 75.0388 23.1139 74.7833 23.0039C74.5275 22.8829 74.2384 22.8224 73.9162 22.8224H72.282C72.0486 22.8224 71.9319 22.9324 71.9319 23.1524V25.4789C71.9319 25.6989 72.0152 25.8089 72.182 25.8089H74.0162C74.5052 25.8089 74.8943 25.6714 75.1835 25.3964C75.4723 25.1214 75.617 24.7584 75.617 24.3074ZM84.1987 20.4629C84.3877 20.4629 84.4821 20.5674 84.4821 20.7764V32.2604C84.4821 32.4254 84.4378 32.5409 84.3487 32.6069C84.271 32.6729 84.1486 32.7059 83.9819 32.7059H81.514C81.3586 32.7059 81.2529 32.6785 81.1972 32.6234C81.1418 32.5574 81.1138 32.4584 81.1138 32.3264V20.8094C81.1138 20.5784 81.2085 20.4629 81.3973 20.4629H84.1987ZM86.504 20.8094C86.504 20.7104 86.5317 20.6279 86.5873 20.5619C86.643 20.4959 86.7374 20.4629 86.8708 20.4629H96.659C96.7814 20.4629 96.8701 20.4959 96.9258 20.5619C96.9925 20.6279 97.0259 20.7104 97.0259 20.8094V22.5584C97.0259 22.7454 96.9148 22.8389 96.6924 22.8389H93.6575C93.5241 22.8389 93.4574 22.8939 93.4574 23.0039V32.3759C93.4574 32.596 93.363 32.7059 93.1739 32.7059H90.3726C90.1835 32.7059 90.0891 32.6013 90.0891 32.3924V23.0699C90.0891 22.9159 90.0334 22.8389 89.9223 22.8389H86.8541C86.6207 22.8389 86.504 22.7454 86.504 22.5584V20.8094ZM97.008 32.7059C96.8969 32.7059 96.8135 32.6564 96.7579 32.5574C96.7135 32.4475 96.7192 32.3155 96.7745 32.1614L100.877 20.8094C100.921 20.6884 100.977 20.6004 101.043 20.5454C101.11 20.4904 101.21 20.4629 101.343 20.4629H104.245C104.523 20.4629 104.712 20.6004 104.812 20.8754L108.864 32.1944C108.897 32.2934 108.897 32.4033 108.864 32.5244C108.831 32.6455 108.753 32.7059 108.63 32.7059H105.762C105.585 32.7059 105.468 32.6178 105.412 32.4419L104.678 30.2969C104.656 30.253 104.628 30.2144 104.595 30.1814C104.573 30.1375 104.517 30.1154 104.428 30.1154H100.643C100.521 30.1154 100.443 30.1758 100.41 30.2969L99.626 32.4749C99.6039 32.5409 99.5649 32.596 99.5092 32.6399C99.4538 32.6838 99.3705 32.7059 99.2591 32.7059H97.008ZM103.678 27.6074C103.834 27.6074 103.884 27.5029 103.828 27.2939L102.627 23.9774C102.605 23.9224 102.572 23.8949 102.527 23.8949C102.483 23.8949 102.45 23.9224 102.427 23.9774L101.21 27.2939C101.132 27.5029 101.182 27.6074 101.36 27.6074H103.678ZM110.868 20.8094C110.868 20.5784 110.962 20.4629 111.151 20.4629H113.952C114.141 20.4629 114.236 20.5674 114.236 20.7764V30.0659C114.236 30.2088 114.297 30.2804 114.419 30.2804H119.589C119.822 30.2804 119.939 30.3738 119.939 30.5609V32.3759C119.939 32.464 119.905 32.5409 119.839 32.6069C119.783 32.6729 119.689 32.7059 119.555 32.7059H111.268C111.112 32.7059 111.007 32.6785 110.951 32.6234C110.896 32.5574 110.868 32.4584 110.868 32.3264V20.8094Z" fill="black"/>
</g>
<defs>
<clipPath id="clip0_0_257">
<rect width="120" height="33" fill="white" transform="translate(0 0.000488281)"/>
</clipPath>
</defs>
</svg>
