<svg width="160" height="16" viewBox="0 0 160 16" fill="none" xmlns="http://www.w3.org/2000/svg">
<g clip-path="url(#clip0_0_259)">
<path d="M10.2221 10.4971H4.49427L3.49054 12.8977C3.24324 13.4886 3.11959 13.9298 3.11959 14.2215C3.11959 14.4533 3.22506 14.659 3.43598 14.8385C3.65419 15.0104 4.11968 15.1227 4.8325 15.175V15.5901H0.173828V15.175C0.792075 15.0628 1.19211 14.917 1.37395 14.7375C1.7449 14.3785 2.15585 13.6493 2.60681 12.55L7.81098 0.0307617H8.19286L13.3425 12.6846C13.7571 13.7017 14.1317 14.3636 14.4662 14.6702C14.8081 14.9693 15.2809 15.1376 15.8846 15.175V15.5901H10.0476V15.175C10.6368 15.1451 11.0331 15.0441 11.2368 14.8721C11.4477 14.7001 11.5532 14.4907 11.5532 14.2439C11.5532 13.9149 11.4077 13.3951 11.1168 12.6846L10.2221 10.4971ZM9.91667 9.66698L7.4073 3.51954L4.8325 9.66698H9.91667ZM27.476 0.793581V0.378518H32.7129V0.793581H32.1565C31.5746 0.793581 31.1273 1.04412 30.8145 1.54518C30.6618 1.77702 30.5854 2.31548 30.5854 3.16057V9.33045C30.5854 10.8561 30.4363 12.0415 30.1381 12.8865C29.8472 13.7241 29.2689 14.4458 28.4034 15.0516C27.5451 15.6499 26.3741 15.949 24.8903 15.949C23.2756 15.949 22.05 15.6611 21.2135 15.0852C20.3771 14.5094 19.7843 13.7354 19.4352 12.7631C19.2024 12.0975 19.0861 10.8486 19.0861 9.01636V3.07083C19.0861 2.136 18.9587 1.52275 18.7042 1.23108C18.4569 0.939415 18.0532 0.793581 17.4932 0.793581H16.9367V0.378518H23.3301V0.793581H22.7628C22.1518 0.793581 21.7154 0.991768 21.4535 1.38813C21.2717 1.65736 21.1808 2.21826 21.1808 3.07083V9.70062C21.1808 10.2914 21.2317 10.9683 21.3336 11.7311C21.4427 12.4939 21.6354 13.0884 21.9118 13.5147C22.1882 13.941 22.5846 14.2925 23.101 14.5692C23.6247 14.8459 24.2648 14.9843 25.0212 14.9843C25.9886 14.9843 26.8541 14.7674 27.6179 14.3336C28.3815 13.8999 28.9016 13.3464 29.178 12.6734C29.4617 11.9928 29.6035 10.8449 29.6035 9.22948V3.07083C29.6035 2.12104 29.5017 1.52649 29.298 1.28717C29.0144 0.958114 28.5925 0.793581 28.0324 0.793581H27.476ZM43.8788 12.6622L42.8426 15.5901H34.1142V15.175C36.6818 12.7669 38.4892 10.8 39.5366 9.27436C40.5838 7.7487 41.1077 6.35395 41.1077 5.09004C41.1077 4.12532 40.8204 3.33258 40.2458 2.71185C39.6712 2.09112 38.9838 1.78076 38.1837 1.78076C37.4564 1.78076 36.8018 2.00138 36.2199 2.44262C35.6453 2.87638 35.2198 3.5158 34.9434 4.36089H34.5397C34.7216 2.97734 35.1871 1.91538 35.9362 1.17499C36.6927 0.434606 37.6346 0.0644155 38.762 0.0644155C39.9622 0.0644155 40.9621 0.460785 41.7625 1.25352C42.5696 2.04625 42.9734 2.98108 42.9734 4.058C42.9734 4.82829 42.7987 5.59859 42.4495 6.36889C41.9113 7.58046 41.0387 8.86304 39.8312 10.2166C38.0201 12.2509 36.8891 13.4774 36.4381 13.8962H40.3005C41.0857 13.8962 41.6352 13.8662 41.9476 13.8064C42.268 13.7466 42.5553 13.6269 42.8098 13.4474C43.0644 13.2605 43.2862 12.9987 43.4754 12.6622H43.8788ZM48.095 1.8705L51.6952 0.0644155H52.0555V12.9089C52.0555 13.7615 52.0882 14.2925 52.1537 14.5019C52.2263 14.7113 52.3719 14.8721 52.5902 14.9843C52.8084 15.0965 53.2517 15.16 53.9213 15.175V15.5901H48.3568V15.175C49.055 15.16 49.5059 15.1002 49.7098 14.9955C49.9133 14.8833 50.0553 14.7375 50.1351 14.558C50.2153 14.371 50.2552 13.8214 50.2552 12.9089V4.69742C50.2552 3.59059 50.2189 2.88012 50.1463 2.56602C50.0952 2.3267 50.0007 2.15096 49.8626 2.03877C49.7317 1.92659 49.5717 1.8705 49.3826 1.8705C49.1133 1.8705 48.7386 1.98643 48.2586 2.21826L48.095 1.8705ZM77.0275 0.0307617L77.3658 5.20224H77.0275C76.5766 3.65416 75.933 2.53984 75.0963 1.85929C74.26 1.17873 73.2565 0.838455 72.0854 0.838455C71.1035 0.838455 70.2161 1.09647 69.4233 1.61249C68.6305 2.12104 68.0049 2.93621 67.5468 4.058C67.0955 5.1798 66.8701 6.57455 66.8701 8.24228C66.8701 9.61837 67.0847 10.8112 67.5141 11.8208C67.943 12.8304 68.5866 13.6045 69.4449 14.143C70.3107 14.6814 71.2962 14.9506 72.4019 14.9506C73.3619 14.9506 74.2093 14.7412 74.9439 14.3224C75.6785 13.8961 76.4856 13.0548 77.3658 11.7984L77.7042 12.0228C76.9621 13.3764 76.0966 14.3673 75.1075 14.9955C74.1184 15.6237 72.9437 15.9378 71.5835 15.9378C69.1324 15.9378 67.234 15.003 65.8881 13.1333C64.8847 11.7423 64.3827 10.1045 64.3827 8.21988C64.3827 6.70169 64.7135 5.30694 65.3754 4.03557C66.0374 2.7642 66.9467 1.78076 68.103 1.08525C69.2669 0.382258 70.5361 0.0307617 71.9107 0.0307617C72.98 0.0307617 74.0346 0.299993 75.0748 0.838455C75.38 1.00298 75.5983 1.08525 75.7291 1.08525C75.9258 1.08525 76.0966 1.0142 76.2423 0.872108C76.4314 0.670184 76.5658 0.389736 76.6456 0.0307617H77.0275ZM89.3718 10.4971H83.6441L82.6403 12.8977C82.3929 13.4886 82.2692 13.9298 82.2692 14.2215C82.2692 14.4533 82.3749 14.659 82.5856 14.8385C82.8038 15.0104 83.2695 15.1227 83.9821 15.175V15.5901H79.3238V15.175C79.9418 15.0628 80.342 14.917 80.5236 14.7375C80.8946 14.3785 81.3056 13.6493 81.7565 12.55L86.9607 0.0307617H87.3425L92.492 12.6846C92.907 13.7017 93.2813 14.3636 93.616 14.6702C93.958 14.9693 94.4308 15.1376 95.0345 15.175V15.5901H89.1975V15.175C89.7864 15.1451 90.183 15.0441 90.3865 14.8721C90.5976 14.7001 90.7029 14.4907 90.7029 14.2439C90.7029 13.9149 90.5577 13.3951 90.2664 12.6846L89.3718 10.4971ZM89.0666 9.66698L86.5569 3.51954L83.9821 9.66698H89.0666ZM100.549 8.46665V12.8977C100.549 13.855 100.65 14.4496 100.854 14.6814C101.131 15.0104 101.549 15.175 102.109 15.175H102.676V15.5901H96.3372V15.175H96.8938C97.5195 15.175 97.9667 14.9656 98.2357 14.5468C98.3813 14.3149 98.4539 13.7653 98.4539 12.8977V3.07083C98.4539 2.11356 98.3558 1.51901 98.1595 1.28717C97.8758 0.958114 97.454 0.793581 96.8938 0.793581H96.3372V0.378518H101.76C103.084 0.378518 104.127 0.520613 104.891 0.804801C105.655 1.08151 106.298 1.55266 106.822 2.21826C107.346 2.88386 107.608 3.67285 107.608 4.58526C107.608 5.82669 107.208 6.83633 106.408 7.6141C105.615 8.39186 104.491 8.78074 103.036 8.78074C102.68 8.78074 102.294 8.75457 101.88 8.70222C101.465 8.64987 101.022 8.57135 100.549 8.46665ZM100.549 7.82723C100.934 7.90202 101.276 7.9581 101.574 7.99551C101.873 8.03289 102.127 8.0516 102.338 8.0516C103.094 8.0516 103.746 7.75244 104.291 7.15416C104.844 6.54838 105.12 5.76688 105.12 4.80963C105.12 4.15149 104.989 3.54198 104.727 2.98108C104.466 2.41271 104.095 1.99016 103.615 1.71345C103.135 1.42926 102.589 1.28717 101.978 1.28717C101.607 1.28717 101.131 1.35822 100.549 1.50031V7.82723ZM115.97 15.175V15.5901H109.631V15.175H110.155C110.766 15.175 111.209 14.9918 111.486 14.6253C111.66 14.386 111.747 13.8102 111.747 12.8977V3.07083C111.747 2.30053 111.7 1.79198 111.605 1.54518C111.533 1.35822 111.384 1.19743 111.158 1.06281C110.838 0.883324 110.504 0.793581 110.155 0.793581H109.631V0.378518H115.97V0.793581H115.435C114.831 0.793581 114.391 0.976809 114.115 1.34326C113.933 1.58258 113.842 2.15843 113.842 3.07083V12.8977C113.842 13.668 113.889 14.1766 113.984 14.4234C114.057 14.6104 114.209 14.7711 114.442 14.9058C114.755 15.0852 115.086 15.175 115.435 15.175H115.97ZM130.114 0.378518L130.278 3.94583H129.863C129.783 3.31762 129.674 2.8689 129.536 2.59967C129.31 2.16591 129.009 1.84807 128.63 1.64615C128.259 1.43674 127.769 1.33204 127.157 1.33204H125.074V12.9538C125.074 13.8887 125.172 14.472 125.368 14.7038C125.645 15.018 126.07 15.175 126.645 15.175H127.157V15.5901H120.884V15.175H121.408C122.033 15.175 122.477 14.9805 122.739 14.5917C122.899 14.3524 122.979 13.8064 122.979 12.9538V1.33204H121.201C120.51 1.33204 120.018 1.3844 119.728 1.4891C119.349 1.63119 119.026 1.90416 118.757 2.30801C118.487 2.71185 118.327 3.25779 118.276 3.94583H117.862L118.037 0.378518H130.114ZM139.949 10.4971H134.221L133.217 12.8977C132.97 13.4886 132.846 13.9298 132.846 14.2215C132.846 14.4533 132.952 14.659 133.163 14.8385C133.381 15.0104 133.847 15.1227 134.559 15.175V15.5901H129.901V15.175C130.519 15.0628 130.919 14.917 131.101 14.7375C131.472 14.3785 131.883 13.6493 132.334 12.55L137.538 0.0307617H137.92L143.07 12.6846C143.484 13.7017 143.858 14.3636 144.193 14.6702C144.535 14.9693 145.008 15.1376 145.612 15.175V15.5901H139.775V15.175C140.364 15.1451 140.76 15.0441 140.964 14.8721C141.175 14.7001 141.28 14.4907 141.28 14.2439C141.28 13.9149 141.135 13.3951 140.844 12.6846L139.949 10.4971ZM139.644 9.66698L137.134 3.51954L134.559 9.66698H139.644ZM159.352 11.3833L159.712 11.4619L158.447 15.5901H146.991V15.175H147.548C148.173 15.175 148.62 14.9656 148.889 14.5468C149.042 14.3075 149.118 13.754 149.118 12.8865V3.07083C149.118 2.12104 149.017 1.52649 148.813 1.28717C148.529 0.958114 148.107 0.793581 147.548 0.793581H146.991V0.378518H153.69V0.793581C152.904 0.786102 152.352 0.860892 152.032 1.01794C151.719 1.17499 151.504 1.37317 151.388 1.61249C151.271 1.85181 151.213 2.42392 151.213 3.32884V12.8865C151.213 13.5073 151.271 13.9335 151.388 14.1654C151.475 14.3224 151.61 14.4383 151.791 14.5131C151.973 14.5879 152.541 14.6253 153.494 14.6253H154.574C155.708 14.6253 156.505 14.5393 156.963 14.3673C157.421 14.1953 157.839 13.8924 158.218 13.4587C158.596 13.0174 158.974 12.3256 159.352 11.3833Z" fill="black"/>
</g>
<defs>
<clipPath id="clip0_0_259">
<rect width="160" height="16" fill="white" transform="translate(0 0.000488281)"/>
</clipPath>
</defs>
</svg>
