<svg width="56" height="56" viewBox="0 0 56 56" fill="none" xmlns="http://www.w3.org/2000/svg">
<circle cx="28" cy="28" r="28" fill="#0057FF"/>
<path d="M30.6571 39.6485C31.0851 39.7458 31.1244 40.2934 30.7074 40.4292L28.2459 41.2205C22.0608 43.1682 18.8047 41.54 16.795 35.4989L14.8008 29.4881C12.8066 23.4469 14.4581 20.2513 20.6431 18.3036L21.4594 18.0395C22.0871 17.8365 22.6979 18.4514 22.5197 19.0732C22.4314 19.3815 22.3464 19.7032 22.2634 20.0383L20.7366 26.4143C19.0228 33.5815 21.5311 37.5379 28.8691 39.2422L30.6571 39.6485Z" fill="white"/>
<path d="M37.6382 14.0884L35.0782 13.4893C29.9582 12.2758 26.9076 13.2742 25.1141 16.9915C24.6542 17.9285 24.2863 19.0651 23.9797 20.3708L22.4774 26.8067C20.9751 33.2274 22.9526 36.3916 29.345 37.9123L31.9204 38.5267C32.8095 38.7418 33.6372 38.88 34.4037 38.9415C39.1865 39.4023 41.7312 37.1596 43.0189 31.6145L44.5211 25.1939C46.0234 18.7733 44.0613 15.5937 37.6382 14.0884ZM34.7563 29.633C34.6183 30.1553 34.1584 30.4932 33.6372 30.4932C33.5453 30.4932 33.4533 30.4779 33.346 30.4625L28.8851 29.3258C28.272 29.1722 27.904 28.5424 28.0573 27.928C28.2106 27.3136 28.8391 26.945 29.4523 27.0986L33.9132 28.2352C34.5417 28.3888 34.9096 29.0186 34.7563 29.633ZM39.2478 24.4413C39.1098 24.9635 38.65 25.3014 38.1288 25.3014C38.0368 25.3014 37.9448 25.286 37.8375 25.2707L30.4027 23.3814C29.7896 23.2278 29.4217 22.598 29.575 21.9836C29.7282 21.3692 30.3568 21.0005 30.9699 21.1541L38.4047 23.0435C39.0332 23.1817 39.4011 23.8115 39.2478 24.4413Z" fill="white"/>
</svg>
