<svg width="111" height="30" viewBox="0 0 111 30" fill="none" xmlns="http://www.w3.org/2000/svg">
<path d="M110.554 8.73234C110.669 8.73234 110.8 8.76416 110.882 8.8596C110.964 8.95503 111.013 9.06638 110.996 9.19363V11.9772C110.996 12.1045 110.964 12.2158 110.882 12.3113C110.8 12.3908 110.669 12.4385 110.554 12.4385H108.164V23.5093C108.164 23.6365 108.131 23.7479 108.049 23.8433C107.968 23.9228 107.837 23.9706 107.722 23.9706H104.137C104.022 23.9706 103.891 23.9388 103.809 23.8433C103.727 23.7479 103.678 23.6365 103.695 23.5093V12.4385H101.305C101.19 12.4385 101.059 12.4067 100.977 12.3113C100.895 12.2158 100.846 12.1045 100.863 11.9772V9.19363C100.863 9.06638 100.895 8.95503 100.977 8.8596C101.059 8.78006 101.19 8.73234 101.305 8.73234H103.695V4.8353C103.695 4.70805 103.727 4.59671 103.809 4.50127C103.891 4.42174 104.022 4.37402 104.137 4.37402H107.722C107.837 4.37402 107.968 4.40584 108.049 4.50127C108.131 4.59671 108.18 4.70805 108.164 4.8353V8.73234H110.554Z" fill="white"/>
<path d="M100.242 16.0807C100.242 16.7487 100.177 17.2418 100.029 17.5441C99.8818 17.8463 99.6035 17.9735 99.1615 17.9735H90.2883C90.4684 18.7211 90.9268 19.3892 91.5652 19.8346C92.2201 20.2481 93.0387 20.439 94.0537 20.4549C94.5284 20.4549 95.0032 20.3913 95.4616 20.264C95.9691 20.0891 96.4602 19.8664 96.9023 19.5642C97.066 19.4051 97.3443 19.4051 97.508 19.5642C97.5244 19.5801 97.5407 19.6119 97.5571 19.6278L99.1124 21.1548C99.1942 21.2343 99.227 21.3457 99.227 21.457C99.2106 21.6002 99.1615 21.7274 99.0469 21.8229C98.3429 22.5545 97.508 23.1272 96.5585 23.5407C95.6253 23.9384 94.6103 24.1293 93.5953 24.1134C92.171 24.1293 90.7794 23.7793 89.5516 23.0795C88.3892 22.3955 87.4397 21.4252 86.8012 20.264C86.1464 19.0552 85.8026 17.719 85.8189 16.3511C85.8026 14.9831 86.13 13.647 86.7685 12.4381C87.3906 11.2929 88.3237 10.3226 89.4534 9.65454C90.583 8.95467 91.909 8.60473 93.2515 8.62064C94.5448 8.60473 95.8054 8.95467 96.9023 9.63864C97.9664 10.3067 98.8177 11.2611 99.3579 12.3586C99.9637 13.5198 100.258 14.7923 100.242 16.0807ZM93.3006 12.5018C92.5639 12.4859 91.8599 12.7245 91.3033 13.1698C90.7467 13.5993 90.3865 14.2197 90.2228 15.0627H96.2638C96.1328 14.2356 95.789 13.5993 95.2488 13.1698C94.7085 12.7245 94.0209 12.4859 93.3006 12.5018Z" fill="white"/>
<path d="M83.8704 8.95467C83.985 8.95467 84.116 8.98648 84.1978 9.08192C84.2797 9.17736 84.3288 9.2887 84.3124 9.41595V23.827C84.3124 25.3063 83.9195 26.5152 83.1173 27.4378C82.3479 28.3603 81.3165 29.0602 80.1541 29.4261C78.9754 29.8078 77.7476 30.0146 76.5033 29.9987C75.2755 29.9987 74.0477 29.8237 72.8853 29.442C71.8375 29.1397 70.8553 28.6626 69.9876 28.0263C69.873 27.9468 69.8075 27.8195 69.8075 27.6923C69.8075 27.5968 69.8239 27.5014 69.873 27.4219L71.0354 25.2745C71.15 25.1155 71.2809 25.0359 71.3955 25.0359C71.4774 25.0359 71.5592 25.0518 71.6411 25.0995C72.2959 25.4972 72.9999 25.7994 73.7366 25.9903C74.5224 26.1812 75.341 26.2766 76.1595 26.2766C77.1255 26.2925 78.0914 26.0539 78.9427 25.6086C79.7776 25.1791 80.2032 24.4474 80.2032 23.4294V22.0137C79.0409 23.3658 77.6166 24.0338 75.8976 24.0338C74.6043 24.0497 73.3437 23.6839 72.2796 22.9999C71.1991 22.3 70.315 21.3298 69.742 20.1845C68.5469 17.7508 68.5469 14.9195 69.742 12.47C70.315 11.3247 71.1991 10.3544 72.2796 9.65454C73.3437 8.95467 74.6043 8.60473 75.8976 8.62064C77.5347 8.62064 78.9263 9.2887 80.0886 10.6089L80.1705 9.41595C80.2032 9.11373 80.367 8.95467 80.6125 8.95467H83.8704ZM76.4706 19.8505C77.371 19.8505 78.2387 19.4528 78.7953 18.7688C79.4174 18.0849 79.7612 17.21 79.7612 16.3034C79.7776 15.3967 79.4338 14.5219 78.8117 13.8538C78.2387 13.1698 77.3874 12.7722 76.487 12.7881C75.5866 12.7722 74.7189 13.1539 74.1295 13.822C73.491 14.4901 73.1472 15.3808 73.18 16.3034C73.1472 17.2418 73.4747 18.1485 74.1131 18.8484C74.6861 19.5005 75.5538 19.8664 76.4706 19.8505Z" fill="white"/>
<path d="M67.3355 8.73234C67.4501 8.73234 67.5811 8.76416 67.6629 8.8596C67.7448 8.95503 67.7939 9.06638 67.7775 9.19363V11.9772C67.7775 12.1045 67.7448 12.2158 67.6629 12.3113C67.5811 12.3908 67.4501 12.4385 67.3355 12.4385H64.9453V23.5093C64.9453 23.6365 64.9126 23.7479 64.8307 23.8433C64.7489 23.9228 64.6179 23.9706 64.5033 23.9706H60.918C60.8034 23.9706 60.6724 23.9388 60.5906 23.8433C60.5087 23.7479 60.4596 23.6365 60.476 23.5093V12.4385H58.0858C57.9712 12.4385 57.8402 12.4067 57.7584 12.3113C57.6765 12.2158 57.6274 12.1045 57.6438 11.9772V9.19363C57.6438 9.06638 57.6765 8.95503 57.7584 8.8596C57.8402 8.78006 57.9712 8.73234 58.0858 8.73234H60.476V4.8353C60.476 4.70805 60.5087 4.59671 60.5906 4.50127C60.6724 4.42174 60.8034 4.37402 60.918 4.37402H64.5033C64.6179 4.37402 64.7489 4.40584 64.8307 4.50127C64.9126 4.59671 64.9617 4.70805 64.9453 4.8353V8.73234H67.3355Z" fill="white"/>
<path d="M53.7308 7.47598C53.0923 7.49189 52.4702 7.23739 52.0282 6.7761C51.5698 6.29892 51.3242 5.67857 51.3406 5.02641C51.3242 4.37425 51.5698 3.75391 52.0282 3.27672C52.8795 2.37006 54.3202 2.29053 55.2697 3.11766C55.3352 3.16538 55.3843 3.229 55.4334 3.27672C55.8918 3.75391 56.1374 4.37425 56.121 5.02641C56.1374 5.67857 55.8918 6.29892 55.4334 6.7761C54.9914 7.23739 54.3693 7.49189 53.7308 7.47598ZM51.488 9.17795C51.488 9.0507 51.5207 8.93936 51.6026 8.84392C51.6844 8.76439 51.8154 8.71667 51.93 8.71667H55.5316C55.6462 8.71667 55.7772 8.74848 55.8591 8.84392C55.9409 8.93936 55.99 9.0507 55.9737 9.17795V23.4936C55.9737 23.6209 55.9409 23.7322 55.8591 23.8276C55.7772 23.9072 55.6462 23.9549 55.5316 23.9549H51.93C51.8154 23.9549 51.6844 23.9231 51.6026 23.8276C51.5207 23.7322 51.4716 23.6209 51.488 23.4936V9.17795Z" fill="white"/>
<path d="M45.7406 12.5341C46.8702 12.8522 47.8689 13.5044 48.6056 14.3951C49.4241 15.3495 49.8662 16.5584 49.8334 17.799C49.8334 19.8669 49.1786 21.4098 47.8853 22.4437C46.6083 23.4617 44.6601 23.9707 42.0244 23.9707H34.6737C34.5591 23.9707 34.4281 23.9389 34.3463 23.8434C34.2644 23.748 34.2153 23.6367 34.2317 23.5094V3.0062C34.2317 2.87895 34.2644 2.76761 34.3463 2.67217C34.4281 2.59264 34.5591 2.54492 34.6737 2.54492H41.9916C43.3013 2.54492 44.4309 2.78352 45.3641 3.27661C46.2645 3.72199 47.0176 4.40596 47.5087 5.2649C48.0162 6.12384 48.2782 7.09412 48.2618 8.08031C48.2782 9.05059 48.0326 10.0209 47.5087 10.8639C47.0503 11.6751 46.461 12.2159 45.7406 12.5341ZM43.9398 8.70065C43.9398 7.39634 43.154 6.74418 41.5823 6.74418H38.8647V10.848H41.5823C42.319 10.848 42.892 10.673 43.3177 10.3231C43.727 9.95725 43.9398 9.41644 43.9398 8.70065ZM42.2044 19.7714C43.1212 19.7714 43.8416 19.5646 44.3818 19.1352C44.9221 18.7057 45.184 18.0695 45.184 17.2105C45.184 16.3675 44.9221 15.763 44.3818 15.3813C43.8416 14.9677 43.1212 14.7609 42.2044 14.7609H38.8647V19.7714H42.2044Z" fill="white"/>
<path d="M8.59489 0.636251C8.97143 0.222688 9.51168 0 10.0683 0H13.67C13.9647 0.0159063 14.2102 0.2545 14.1938 0.540813C14.1938 0.668063 14.1447 0.779408 14.0465 0.874846L6.90866 8.57349H10.8377L14.8487 12.8682H6.90866L14.8487 21.4417H10.0519C9.49531 21.4417 8.95506 21.219 8.57852 20.8054L0.54025 12.0888C-0.180083 11.3094 -0.180083 10.1164 0.54025 9.33699L8.59489 0.636251Z" fill="white"/>
<path d="M19.6784 29.3637C19.3018 29.7773 18.7616 30 18.205 30H14.6033C14.3086 29.9841 14.0631 29.7455 14.0794 29.4592C14.0794 29.3319 14.1285 29.2206 14.2268 29.1251L21.3482 21.4265H17.4192L13.4082 17.1477H21.3482L13.4082 8.57422H18.205C18.7616 8.57422 19.3018 8.81281 19.6784 9.21047L27.733 17.9112C28.4534 18.6906 28.4534 19.8836 27.733 20.663L19.6784 29.3637Z" fill="white"/>
</svg>
