<svg width="24" height="24" viewBox="0 0 24 24" fill="none" xmlns="http://www.w3.org/2000/svg">
<path d="M22.0815 6.98505L12.6235 12.3401C12.2428 12.5563 11.7637 12.5563 11.3707 12.3401L1.91264 6.98505C1.23707 6.60082 1.0651 5.7003 1.58099 5.13598C1.9372 4.73975 2.34254 4.41556 2.77245 4.18743L9.42989 0.585339C10.8548 -0.195113 13.164 -0.195113 14.5888 0.585339L21.2463 4.18743C21.6762 4.41556 22.0815 4.75175 22.4377 5.13598C22.929 5.7003 22.7571 6.60082 22.0815 6.98505Z" fill="#121212"/>
<path d="M11.3005 14.5703V22.759C11.3005 23.6716 10.3547 24.2719 9.51939 23.8757C6.98908 22.663 2.72685 20.3937 2.72685 20.3937C1.22831 19.5652 0 17.476 0 15.759V9.5634C0 8.61485 1.0195 8.01451 1.85475 8.48278L10.6863 13.4897C11.0548 13.7178 11.3005 14.126 11.3005 14.5703Z" fill="#121212"/>
<path d="M12.6997 14.5703V22.759C12.6997 23.6716 13.6455 24.2719 14.4808 23.8757C17.0111 22.663 21.2733 20.3937 21.2733 20.3937C22.7718 19.5652 24.0001 17.476 24.0001 15.759V9.5634C24.0001 8.61485 22.9806 8.01451 22.1454 8.48278L13.3139 13.4897C12.9454 13.7178 12.6997 14.126 12.6997 14.5703Z" fill="#121212"/>
</svg>
