<svg width="90" height="89" viewBox="0 0 90 89" fill="none" xmlns="http://www.w3.org/2000/svg">
<g opacity="0.3">
<path fill-rule="evenodd" clip-rule="evenodd" d="M22.9788 24.1233C14.9101 24.1233 8.36914 30.6643 8.36914 38.7331V57.3568C8.36914 67.5536 16.6353 75.8198 26.8322 75.8198H63.7582C73.955 75.8198 82.2213 67.5536 82.2213 57.3568V38.7331C82.2213 30.6643 75.6802 24.1233 67.6115 24.1233C65.2741 24.1233 63.1612 22.7302 62.2402 20.5815L61.0966 17.9133C59.3511 13.8401 55.3461 11.1992 50.9146 11.1992H45.2952H39.6758C35.2443 11.1992 31.2393 13.8401 29.4936 17.9133L28.3501 20.5815C27.4292 22.7302 25.3165 24.1233 22.9788 24.1233ZM53.6036 46.279C53.6036 41.6906 49.8836 37.9706 45.2952 37.9706C40.7068 37.9706 36.9868 41.6906 36.9868 46.279C36.9868 50.8674 40.7068 54.5873 45.2952 54.5873C49.8836 54.5873 53.6036 50.8674 53.6036 46.279ZM45.2952 32.4317C52.943 32.4317 59.1425 38.6312 59.1425 46.279C59.1425 53.9267 52.943 60.1263 45.2952 60.1263C37.6476 60.1263 31.4479 53.9267 31.4479 46.279C31.4479 38.6312 37.6476 32.4317 45.2952 32.4317Z" fill="white"/>
</g>
</svg>
