<svg width="188" height="25" viewBox="0 0 188 25" fill="none" xmlns="http://www.w3.org/2000/svg">
<path d="M112.252 19.0682V7.81818H113.173V9.37891H113.285C113.399 9.13388 113.555 8.88352 113.754 8.62784C113.953 8.36861 114.216 8.15021 114.542 7.97266C114.873 7.7951 115.288 7.70632 115.789 7.70632C116.463 7.70632 117.053 7.88388 117.557 8.23899C118.065 8.59055 118.459 9.08416 118.74 9.71982C119.024 10.3519 119.166 11.0888 119.166 11.9304C119.166 12.7756 119.024 13.516 118.74 14.1516C118.459 14.7873 118.065 15.2827 117.557 15.6378C117.053 15.9929 116.467 16.1705 115.799 16.1705C115.306 16.1705 114.892 16.0817 114.558 15.9041C114.228 15.7266 113.96 15.5082 113.754 15.2489C113.551 14.9862 113.395 14.7305 113.285 14.4819H113.2V19.0682H112.252ZM113.189 11.9144C113.189 12.5749 113.287 13.1609 113.482 13.6722C113.681 14.18 113.965 14.5795 114.335 14.8707C114.707 15.1584 115.158 15.3022 115.688 15.3022C116.231 15.3022 116.689 15.1531 117.062 14.8548C117.438 14.5529 117.724 14.1463 117.919 13.6349C118.118 13.1236 118.218 12.5501 118.218 11.9144C118.218 11.2859 118.12 10.7195 117.925 10.2152C117.733 9.71094 117.449 9.31143 117.072 9.01669C116.696 8.71839 116.234 8.56925 115.688 8.56925C115.155 8.56925 114.702 8.71307 114.329 9.00071C113.956 9.2848 113.672 9.67898 113.477 10.1832C113.285 10.6839 113.189 11.261 113.189 11.9144ZM121.246 16V7.81818H122.167V9.07528H122.237C122.4 8.66335 122.684 8.33132 123.089 8.07919C123.497 7.82351 123.959 7.69567 124.474 7.69567C124.552 7.69567 124.639 7.69744 124.735 7.70099C124.831 7.70455 124.911 7.7081 124.975 7.71165V8.67578C124.932 8.66868 124.857 8.65803 124.751 8.64382C124.644 8.62962 124.529 8.62251 124.405 8.62251C123.979 8.62251 123.599 8.71307 123.265 8.89418C122.934 9.07173 122.673 9.31854 122.482 9.63459C122.29 9.95064 122.194 10.3111 122.194 10.7159V16H121.246ZM129.524 16.1705C128.817 16.1705 128.192 15.9911 127.649 15.6325C127.109 15.2738 126.686 14.7784 126.381 14.1463C126.075 13.5107 125.923 12.7773 125.923 11.9464C125.923 11.1083 126.075 10.3714 126.381 9.7358C126.686 9.09659 127.109 8.59943 127.649 8.24432C128.192 7.88565 128.817 7.70632 129.524 7.70632C130.23 7.70632 130.854 7.88565 131.393 8.24432C131.933 8.60298 132.356 9.10014 132.661 9.7358C132.97 10.3714 133.124 11.1083 133.124 11.9464C133.124 12.7773 132.972 13.5107 132.666 14.1463C132.361 14.7784 131.937 15.2738 131.393 15.6325C130.854 15.9911 130.23 16.1705 129.524 16.1705ZM129.524 15.3022C130.092 15.3022 130.573 15.1495 130.967 14.8441C131.361 14.5387 131.66 14.1321 131.862 13.6243C132.068 13.1165 132.171 12.5572 132.171 11.9464C132.171 11.3356 132.068 10.7745 131.862 10.2631C131.66 9.75178 131.361 9.34162 130.967 9.03267C130.573 8.72372 130.092 8.56925 129.524 8.56925C128.959 8.56925 128.478 8.72372 128.08 9.03267C127.686 9.34162 127.386 9.75178 127.18 10.2631C126.977 10.7745 126.876 11.3356 126.876 11.9464C126.876 12.5572 126.977 13.1165 127.18 13.6243C127.386 14.1321 127.686 14.5387 128.08 14.8441C128.474 15.1495 128.955 15.3022 129.524 15.3022ZM138.402 16.1705C137.67 16.1705 137.033 15.9876 136.49 15.6218C135.95 15.256 135.531 14.7553 135.233 14.1197C134.934 13.484 134.785 12.7596 134.785 11.9464C134.785 11.1261 134.936 10.3963 135.238 9.7571C135.543 9.1179 135.966 8.61719 136.506 8.25497C137.045 7.8892 137.672 7.70632 138.386 7.70632C138.933 7.70632 139.428 7.81286 139.872 8.02592C140.316 8.23544 140.682 8.53196 140.969 8.91548C141.261 9.29545 141.443 9.73935 141.518 10.2472H140.559C140.46 9.78551 140.22 9.39134 139.84 9.06463C139.464 8.73437 138.984 8.56925 138.402 8.56925C137.88 8.56925 137.418 8.71129 137.017 8.99538C136.616 9.27592 136.301 9.66832 136.074 10.1726C135.85 10.6733 135.739 11.2539 135.739 11.9144C135.739 12.5785 135.849 13.1662 136.069 13.6776C136.289 14.1854 136.598 14.5831 136.996 14.8707C137.397 15.1584 137.866 15.3022 138.402 15.3022C138.764 15.3022 139.094 15.2347 139.393 15.0998C139.695 14.9613 139.947 14.766 140.149 14.5138C140.355 14.2617 140.494 13.9616 140.565 13.6136H141.523C141.452 14.1072 141.277 14.5476 140.996 14.9347C140.719 15.3182 140.359 15.62 139.915 15.8402C139.474 16.0604 138.97 16.1705 138.402 16.1705ZM146.863 16.1705C146.1 16.1705 145.439 15.9929 144.882 15.6378C144.324 15.2791 143.893 14.7837 143.587 14.1516C143.286 13.516 143.135 12.7844 143.135 11.957C143.135 11.1332 143.286 10.4016 143.587 9.76243C143.893 9.11967 144.314 8.61719 144.85 8.25497C145.39 7.8892 146.013 7.70632 146.72 7.70632C147.163 7.70632 147.591 7.788 148.003 7.95135C148.415 8.11115 148.785 8.35795 149.111 8.69176C149.441 9.02202 149.703 9.43928 149.894 9.94354C150.086 10.4442 150.182 11.0373 150.182 11.7227V12.1914H143.79V11.3551H149.212C149.212 10.8295 149.106 10.3572 148.893 9.93821C148.683 9.51562 148.39 9.18182 148.014 8.93679C147.641 8.69176 147.21 8.56925 146.72 8.56925C146.201 8.56925 145.745 8.70774 145.351 8.98473C144.956 9.26172 144.647 9.62749 144.424 10.082C144.204 10.5366 144.092 11.0337 144.088 11.5735V12.0742C144.088 12.7241 144.2 13.2923 144.424 13.7788C144.651 14.2617 144.972 14.6364 145.388 14.9027C145.803 15.169 146.295 15.3022 146.863 15.3022C147.25 15.3022 147.59 15.2418 147.881 15.1211C148.176 15.0004 148.422 14.8388 148.621 14.6364C148.824 14.4304 148.976 14.2049 149.079 13.9599L149.979 14.2528C149.855 14.5973 149.651 14.9151 149.367 15.2063C149.086 15.4975 148.735 15.7319 148.312 15.9094C147.893 16.0835 147.41 16.1705 146.863 16.1705ZM157.768 9.61328L156.9 9.85831C156.815 9.61328 156.694 9.39134 156.538 9.19247C156.382 8.99361 156.178 8.83558 155.925 8.71839C155.677 8.60121 155.368 8.54261 154.999 8.54261C154.445 8.54261 153.99 8.67401 153.635 8.93679C153.28 9.19957 153.102 9.53871 153.102 9.95419C153.102 10.3058 153.223 10.5916 153.464 10.8118C153.71 11.0284 154.086 11.2006 154.594 11.3285L155.83 11.6321C156.515 11.799 157.028 12.0636 157.369 12.4258C157.713 12.788 157.886 13.2425 157.886 13.7894C157.886 14.2511 157.758 14.6612 157.502 15.0199C157.246 15.3786 156.89 15.6609 156.431 15.8668C155.977 16.0692 155.45 16.1705 154.849 16.1705C154.05 16.1705 153.392 15.9911 152.873 15.6325C152.355 15.2702 152.023 14.7482 151.877 14.0664L152.788 13.8427C152.905 14.3292 153.134 14.6967 153.475 14.9453C153.82 15.1939 154.272 15.3182 154.833 15.3182C155.462 15.3182 155.964 15.1779 156.341 14.8974C156.717 14.6133 156.906 14.2582 156.906 13.832C156.906 13.5018 156.795 13.2248 156.575 13.0011C156.355 12.7738 156.021 12.6069 155.574 12.5004L154.237 12.1808C153.527 12.0103 153.001 11.7404 152.66 11.3711C152.319 11.0018 152.149 10.5437 152.149 9.9968C152.149 9.54581 152.271 9.14986 152.516 8.80895C152.761 8.46449 153.099 8.1946 153.528 7.99929C153.958 7.80398 154.448 7.70632 154.999 7.70632C155.748 7.70632 156.346 7.87678 156.794 8.21768C157.245 8.55504 157.57 9.02024 157.768 9.61328ZM165.459 9.61328L164.591 9.85831C164.505 9.61328 164.385 9.39134 164.228 9.19247C164.072 8.99361 163.868 8.83558 163.616 8.71839C163.367 8.60121 163.058 8.54261 162.689 8.54261C162.135 8.54261 161.68 8.67401 161.325 8.93679C160.97 9.19957 160.793 9.53871 160.793 9.95419C160.793 10.3058 160.913 10.5916 161.155 10.8118C161.4 11.0284 161.776 11.2006 162.284 11.3285L163.52 11.6321C164.205 11.799 164.718 12.0636 165.059 12.4258C165.404 12.788 165.576 13.2425 165.576 13.7894C165.576 14.2511 165.448 14.6612 165.193 15.0199C164.937 15.3786 164.58 15.6609 164.122 15.8668C163.667 16.0692 163.14 16.1705 162.54 16.1705C161.741 16.1705 161.082 15.9911 160.564 15.6325C160.045 15.2702 159.713 14.7482 159.568 14.0664L160.478 13.8427C160.596 14.3292 160.825 14.6967 161.166 14.9453C161.51 15.1939 161.963 15.3182 162.524 15.3182C163.152 15.3182 163.655 15.1779 164.031 14.8974C164.408 14.6133 164.596 14.2582 164.596 13.832C164.596 13.5018 164.486 13.2248 164.266 13.0011C164.046 12.7738 163.712 12.6069 163.264 12.5004L161.927 12.1808C161.217 12.0103 160.691 11.7404 160.351 11.3711C160.01 11.0018 159.839 10.5437 159.839 9.9968C159.839 9.54581 159.962 9.14986 160.207 8.80895C160.452 8.46449 160.789 8.1946 161.219 7.99929C161.649 7.80398 162.139 7.70632 162.689 7.70632C163.438 7.70632 164.037 7.87678 164.484 8.21768C164.935 8.55504 165.26 9.02024 165.459 9.61328ZM167.663 16V7.81818H168.616V16H167.663ZM168.148 6.41193C167.952 6.41193 167.785 6.34624 167.647 6.21484C167.508 6.0799 167.439 5.91832 167.439 5.73011C167.439 5.5419 167.508 5.3821 167.647 5.25071C167.785 5.11577 167.952 5.04829 168.148 5.04829C168.343 5.04829 168.51 5.11577 168.648 5.25071C168.787 5.3821 168.856 5.5419 168.856 5.73011C168.856 5.91832 168.787 6.0799 168.648 6.21484C168.51 6.34624 168.343 6.41193 168.148 6.41193ZM172.072 10.8864V16H171.124V7.81818H172.045V9.10192H172.131C172.322 8.68288 172.621 8.3473 173.025 8.09517C173.434 7.83949 173.938 7.71165 174.538 7.71165C175.089 7.71165 175.572 7.82706 175.987 8.05788C176.406 8.28516 176.731 8.62074 176.962 9.06463C177.196 9.50852 177.313 10.0536 177.313 10.6999V16H176.365V10.7585C176.365 10.0874 176.177 9.55646 175.801 9.16584C175.428 8.77521 174.927 8.5799 174.299 8.5799C173.869 8.5799 173.487 8.67223 173.153 8.85689C172.82 9.04155 172.555 9.30788 172.36 9.65589C172.168 10.0004 172.072 10.4105 172.072 10.8864ZM182.932 19.2386C182.374 19.2386 181.886 19.1658 181.467 19.0202C181.048 18.8782 180.695 18.6829 180.407 18.4343C180.119 18.1857 179.896 17.907 179.736 17.598L180.513 17.0866C180.631 17.2926 180.787 17.495 180.982 17.6939C181.181 17.8928 181.439 18.0579 181.755 18.1893C182.074 18.3207 182.467 18.3864 182.932 18.3864C183.656 18.3864 184.24 18.2053 184.684 17.843C185.132 17.4808 185.355 16.918 185.355 16.1545V14.3114H185.27C185.16 14.56 185.002 14.8086 184.796 15.0572C184.59 15.3022 184.32 15.5064 183.987 15.6697C183.656 15.8331 183.246 15.9148 182.756 15.9148C182.103 15.9148 181.522 15.7532 181.014 15.43C180.51 15.1069 180.112 14.6452 179.821 14.0451C179.533 13.4414 179.39 12.7223 179.39 11.8878C179.39 11.0604 179.53 10.3324 179.81 9.70383C180.094 9.07528 180.49 8.58523 180.998 8.23366C181.506 7.8821 182.097 7.70632 182.772 7.70632C183.273 7.70632 183.688 7.7951 184.018 7.97266C184.349 8.14666 184.613 8.36328 184.812 8.62251C185.015 8.88175 185.173 9.13388 185.286 9.37891H185.382V7.81818H186.309V16.2131C186.309 16.9055 186.162 17.4755 185.867 17.9229C185.572 18.3704 185.171 18.7006 184.663 18.9137C184.155 19.1303 183.578 19.2386 182.932 19.2386ZM182.868 15.0465C183.393 15.0465 183.843 14.9205 184.216 14.6683C184.588 14.4126 184.874 14.0469 185.073 13.571C185.272 13.0952 185.371 12.5288 185.371 11.8718C185.371 11.2326 185.274 10.6662 185.078 10.1726C184.883 9.67543 184.599 9.2848 184.226 9.00071C183.857 8.71307 183.404 8.56925 182.868 8.56925C182.321 8.56925 181.859 8.71662 181.483 9.01136C181.107 9.30611 180.822 9.70383 180.631 10.2045C180.439 10.7017 180.343 11.2575 180.343 11.8718C180.343 12.4968 180.441 13.049 180.636 13.5284C180.831 14.0043 181.117 14.3771 181.494 14.647C181.87 14.9134 182.328 15.0465 182.868 15.0465Z" fill="#9B9DA1"/>
<g clip-path="url(#clip0_7_3)">
<path fill-rule="evenodd" clip-rule="evenodd" d="M21.2086 3.83798L21.3377 4.63329C21.4394 5.37314 21.4865 6.11974 21.4786 6.86679C21.4777 8.51767 21.2824 10.1624 20.8967 11.7658C20.3752 13.9441 19.4667 16.0066 18.2163 17.8512C16.7714 19.9697 14.6823 22.0534 11.637 23.7277L11.2644 23.9324L10.8919 23.7277C7.84668 22.0534 5.75836 19.9697 4.31263 17.8512C3.06226 16.0066 2.15381 13.9441 1.63221 11.7658C1.24661 10.1627 1.05125 8.51823 1.05033 6.86767C1.04245 6.1206 1.08958 5.37401 1.19131 4.63416L1.32033 3.83885C1.33134 3.774 1.32966 3.70755 1.31537 3.64336C1.30109 3.57917 1.27448 3.5185 1.23708 3.46483C1.19969 3.41117 1.15225 3.36558 1.09749 3.3307C1.04274 3.29582 0.98175 3.27232 0.91805 3.26158C0.854349 3.25083 0.789196 3.25304 0.726335 3.26808C0.663474 3.28312 0.604159 3.3107 0.551801 3.34922C0.499444 3.38774 0.455081 3.43644 0.42127 3.49252C0.387459 3.5486 0.364868 3.61094 0.354799 3.67596L0.225777 4.47127C0.114799 5.26492 0.063099 6.06601 0.0711207 6.86767C0.0717357 8.59954 0.276565 10.325 0.681199 12.0071C1.232 14.3041 2.19086 16.4788 3.5103 18.4235C5.0355 20.6614 7.24768 22.8618 10.4314 24.6083L11.0363 24.9402C11.1076 24.9795 11.1873 25 11.2683 25C11.3493 25 11.4291 24.9795 11.5003 24.9402L12.1044 24.6083C15.2847 22.8609 17.4977 20.6614 19.0255 18.4235C20.3443 16.4789 21.3025 14.3045 21.8528 12.008C22.2575 10.3259 22.4623 8.60042 22.4629 6.86854C22.471 6.06689 22.4192 5.26579 22.3083 4.47214L22.1792 3.67683C22.1692 3.61181 22.1466 3.54947 22.1128 3.49339C22.079 3.43731 22.0346 3.38861 21.9823 3.35009C21.9299 3.31157 21.8706 3.284 21.8077 3.26895C21.7449 3.25391 21.6797 3.2517 21.616 3.26245C21.5523 3.2732 21.4913 3.29668 21.4365 3.33157C21.3818 3.36645 21.3343 3.41204 21.297 3.4657C21.2596 3.51937 21.233 3.58004 21.2187 3.64423C21.2044 3.70843 21.2027 3.77487 21.2137 3.83973L21.2086 3.83798Z" fill="#9B9DA1"/>
<path fill-rule="evenodd" clip-rule="evenodd" d="M3.99414 3.29607L11.2658 1.03124L18.6997 3.34485C18.8242 3.38278 18.9583 3.3689 19.0728 3.30626C19.1872 3.24362 19.2727 3.13731 19.3104 3.0106C19.3481 2.88389 19.3351 2.7471 19.2741 2.63016C19.2132 2.51322 19.1093 2.42567 18.9851 2.38665L11.4084 0.0286242C11.3155 -0.000426829 11.216 -0.000426829 11.123 0.0286242L3.70789 2.33613C3.64592 2.35502 3.58823 2.38619 3.53811 2.42787C3.48799 2.46955 3.44645 2.5209 3.41585 2.57899C3.38526 2.63708 3.36622 2.70076 3.35982 2.76637C3.35344 2.83198 3.35982 2.89823 3.37861 2.96132C3.3974 3.02441 3.42823 3.08309 3.46932 3.134C3.51042 3.18492 3.56097 3.22705 3.61809 3.25799C3.6752 3.28893 3.73775 3.30807 3.80213 3.3143C3.86652 3.32054 3.93148 3.31375 3.99329 3.29432L3.99414 3.29607Z" fill="#9B9DA1"/>
<path fill-rule="evenodd" clip-rule="evenodd" d="M0.404104 3.98398L10.8291 24.7264C10.8698 24.8075 10.9315 24.8757 11.0074 24.9235C11.0834 24.9714 11.1708 24.9971 11.2601 24.9979C11.3493 24.9988 11.4371 24.9746 11.514 24.9281C11.5907 24.8816 11.6536 24.8146 11.6956 24.7343L18.0532 12.613L18.0626 12.5939L22.1318 3.97004C22.1869 3.85103 22.1938 3.71463 22.1508 3.59051C22.1079 3.46638 22.0186 3.36455 21.9024 3.30717C21.7862 3.24978 21.6525 3.24146 21.5303 3.28403C21.4081 3.3266 21.3074 3.41661 21.2499 3.53449L17.1875 12.1513L11.2795 23.4233L1.27485 3.52752C1.24602 3.46845 1.20597 3.4158 1.15703 3.37262C1.10809 3.32943 1.05124 3.29658 0.989748 3.27596C0.928267 3.25533 0.863383 3.24736 0.798849 3.25248C0.73432 3.25761 0.671429 3.27575 0.613823 3.30583C0.556214 3.33591 0.505036 3.37735 0.463251 3.42774C0.421467 3.47813 0.389907 3.53647 0.370401 3.59938C0.350894 3.6623 0.343829 3.72853 0.349614 3.79425C0.3554 3.85997 0.373921 3.92387 0.404104 3.98223V3.98398Z" fill="#9B9DA1"/>
<path fill-rule="evenodd" clip-rule="evenodd" d="M5.39349 13.2219H16.9864C17.1161 13.2219 17.2405 13.1694 17.3323 13.0758C17.424 12.9823 17.4756 12.8555 17.4756 12.7232C17.4756 12.591 17.424 12.4641 17.3323 12.3706C17.2405 12.2771 17.1161 12.2245 16.9864 12.2245H5.39349C5.26375 12.2245 5.13932 12.2771 5.04758 12.3706C4.95584 12.4641 4.9043 12.591 4.9043 12.7232C4.9043 12.8555 4.95584 12.9823 5.04758 13.0758C5.13932 13.1694 5.26375 13.2219 5.39349 13.2219ZM37.729 8.91877H30.1873C30.057 8.91945 29.9322 8.97258 29.84 9.06652C29.7479 9.16045 29.6958 9.28764 29.6952 9.42052V15.5913C29.696 15.724 29.7482 15.8511 29.8403 15.945C29.9324 16.039 30.0571 16.0921 30.1873 16.093H37.729V17.1383H30.1873C29.9883 17.1392 29.7912 17.1 29.6071 17.0228C29.4231 16.9455 29.2559 16.832 29.1152 16.6885C28.9745 16.5451 28.8631 16.3746 28.7873 16.1871C28.7116 15.9995 28.6731 15.7985 28.674 15.5956V9.42489C28.6731 9.22202 28.7116 9.02102 28.7873 8.83345C28.8631 8.64583 28.9745 8.47539 29.1152 8.33195C29.2559 8.18852 29.4231 8.07495 29.6071 7.99777C29.7912 7.92052 29.9883 7.88127 30.1873 7.8822H37.729V8.91877ZM51.8905 7.87695V8.92227H44.6273V11.9771H50.4652V13.0311H44.6265V16.0913H51.8896V17.1366H43.6011V7.87695H51.8905Z" fill="#9B9DA1"/>
<path d="M66.8471 9.43235V12.1449C66.8484 12.3477 66.8097 12.5487 66.7337 12.7362C66.6577 12.9237 66.5467 13.0942 66.4057 13.2375C66.2653 13.381 66.0979 13.4945 65.914 13.5718C65.7301 13.649 65.5327 13.6884 65.334 13.6876H63.9472L66.7969 17.1327H65.4474L62.61 13.6876H59.2774C59.1126 13.679 58.9483 13.6619 58.7852 13.6362V17.1327H57.7598V7.88966H65.326C65.5253 7.88885 65.7221 7.92822 65.906 8.00547C66.0906 8.08272 66.2573 8.19629 66.3983 8.33972C66.5387 8.48316 66.6503 8.65354 66.7257 8.84104C66.8018 9.0286 66.8404 9.22954 66.8398 9.43235H66.8471ZM59.2808 12.6336H65.334C65.3972 12.6344 65.4597 12.6223 65.5186 12.598C65.5768 12.5738 65.6301 12.5378 65.6749 12.4923C65.7196 12.4467 65.7546 12.3925 65.7785 12.3329C65.8024 12.2732 65.8141 12.2093 65.8135 12.1449V9.43235C65.8141 9.36704 65.8024 9.3021 65.7791 9.24141C65.7552 9.18072 65.7196 9.12541 65.6749 9.07872C65.6314 9.03091 65.5786 8.99297 65.5198 8.96747C65.4609 8.94191 65.3972 8.92941 65.3334 8.9306H59.2799C59.1496 8.93129 59.0248 8.98441 58.9326 9.07835C58.8405 9.17229 58.7884 9.29954 58.7877 9.43235V12.1449C58.7864 12.2102 58.7987 12.2749 58.8237 12.335C58.8487 12.395 58.886 12.449 58.933 12.4933C58.9789 12.5391 59.0333 12.5751 59.093 12.5992C59.1527 12.6233 59.2165 12.635 59.2808 12.6336Z" fill="#9B9DA1"/>
<path fill-rule="evenodd" clip-rule="evenodd" d="M72.2695 7.87695H81.3458V8.92227H77.33V17.1374H76.3043V8.92227H72.2695V7.87695ZM86.8471 17.1331V7.87695H87.8728V17.1331H86.8471ZM101.501 7.87695H102.813L99.017 12.505L102.825 17.1331H101.501L98.1213 13.032H95.1956V17.1331H94.1632V7.87695H95.1975V11.9771H98.1232L101.501 7.87695Z" fill="#9B9DA1"/>
</g>
<defs>
<clipPath id="clip0_7_3">
<rect width="103" height="25" fill="white"/>
</clipPath>
</defs>
</svg>
