<svg width="119" height="21" viewBox="0 0 119 21" fill="none" xmlns="http://www.w3.org/2000/svg">
<g clip-path="url(#clip0_0_253)">
<path d="M23.9689 5.86329C19.6546 5.86329 16.2836 9.10524 16.2836 13.4452C16.2836 17.7852 19.5694 20.9994 23.9689 20.9994C28.3683 20.9994 31.7112 17.7297 31.7112 13.4175C31.7112 9.13296 28.4254 5.86329 23.9689 5.86329ZM23.998 17.8717C21.5411 17.8717 19.7408 15.9829 19.7408 13.4463C19.7408 10.8809 21.512 8.99318 23.9689 8.99318C26.4548 8.99318 28.254 10.9097 28.254 13.4463C28.254 15.9829 26.4548 17.8717 23.998 17.8717ZM32.6534 9.16177H34.7964V20.7188H38.2245V6.14502H32.6534V9.16177ZM7.65614 8.9921C9.45646 8.9921 10.8848 10.0913 11.4271 11.7261H15.0557C14.3981 8.23124 11.4842 5.86329 7.68525 5.86329C3.37098 5.86329 0 9.10524 0 13.4463C0 17.7874 3.28583 21.0005 7.68525 21.0005C11.399 21.0005 14.3701 18.6325 15.0277 15.1089H11.4271C10.9129 16.7437 9.48446 17.8717 7.68418 17.8717C5.19824 17.8717 3.45614 15.9829 3.45614 13.4463C3.45723 10.8809 5.1713 8.9921 7.65614 8.9921ZM97.7898 12.0366L95.2759 11.6706C94.0763 11.502 93.2191 11.1072 93.2191 10.1766C93.2191 9.16177 94.3339 8.65488 95.8474 8.65488C97.5044 8.65488 98.5618 9.3592 98.7902 10.5149H102.104C101.732 7.58349 99.4469 5.86434 95.9335 5.86434C92.3049 5.86434 89.9053 7.69663 89.9053 10.2897C89.9053 12.7697 91.4768 14.2082 94.6474 14.6586L97.1613 15.0246C98.3905 15.1932 99.076 15.6734 99.076 16.5751C99.076 17.7308 97.8763 18.2099 96.2193 18.2099C94.1903 18.2099 93.0477 17.3925 92.8763 16.1525H89.5052C89.8201 18.9996 92.0765 21.0005 96.1901 21.0005C99.9332 21.0005 102.418 19.3091 102.418 16.4054C102.418 13.8123 100.619 12.4592 97.7898 12.0366ZM36.5105 0.141349C35.2535 0.141349 34.3105 1.04307 34.3105 2.28307C34.3105 3.52307 35.2525 4.42479 36.5105 4.42479C37.7674 4.42479 38.7108 3.52307 38.7108 2.28307C38.7108 1.04307 37.7674 0.141349 36.5105 0.141349ZM86.8199 11.1349C86.8199 7.97832 84.8775 5.86434 80.7635 5.86434C76.8783 5.86434 74.7071 7.80973 74.2782 10.7977H77.6782C77.8495 9.64198 78.7637 8.68369 80.7065 8.68369C82.4498 8.68369 83.3066 9.44455 83.3066 10.3751C83.3066 11.5874 81.7348 11.8968 79.7923 12.0943C77.164 12.376 73.9073 13.2777 73.9073 16.6605C73.9073 19.2824 75.8789 20.9727 79.0216 20.9727C81.4782 20.9727 83.0209 19.9579 83.7929 18.3508C83.9073 19.7882 84.9929 20.7188 86.5074 20.7188H88.5072V17.7031H86.8209V11.1349H86.8199ZM83.4488 14.7994C83.4488 16.7448 81.7348 18.1822 79.6488 18.1822C78.363 18.1822 77.2774 17.6465 77.2774 16.5196C77.2774 15.0822 79.0203 14.6874 80.6203 14.5188C82.163 14.3779 83.0199 14.0396 83.4488 13.3908V14.7994ZM65.2508 5.86329C63.3362 5.86329 61.7365 6.65296 60.5939 7.97727V0.000488281H57.1657V20.7188H60.5365V18.8022C61.6791 20.1831 63.3083 21.0005 65.2508 21.0005C69.3644 21.0005 72.479 17.7874 72.479 13.4463C72.479 9.10524 69.3074 5.86329 65.2508 5.86329ZM64.7367 17.8717C62.2798 17.8717 60.4795 15.9829 60.4795 13.4463C60.4795 10.9097 62.3079 8.99318 64.7645 8.99318C67.2506 8.99318 68.9925 10.882 68.9925 13.4463C68.9925 15.9829 67.1932 17.8717 64.7367 17.8717ZM48.966 5.86329C46.7378 5.86329 45.2803 6.76501 44.4235 8.03381V6.14502H41.0232V20.7177H44.4513V12.7975C44.4513 10.5704 45.8796 8.9921 47.9938 8.9921C49.9654 8.9921 51.1932 10.373 51.1932 12.3749V20.7188H54.6213V12.122C54.6227 8.4564 52.709 5.86329 48.966 5.86329ZM118.76 12.9672C118.76 8.79575 115.674 5.86434 111.531 5.86434C107.132 5.86434 103.904 9.13404 103.904 13.4463C103.904 17.9848 107.361 21.0005 111.589 21.0005C115.16 21.0005 117.96 18.9143 118.673 15.9551H115.102C114.588 17.2517 113.331 17.9848 111.645 17.9848C109.445 17.9848 107.787 16.6317 107.417 14.2637H118.759V12.9672H118.76ZM107.617 11.8392C108.161 9.80952 109.703 8.82351 111.474 8.82351C113.417 8.82351 114.903 9.92263 115.245 11.8392H107.617Z" fill="black"/>
</g>
<defs>
<clipPath id="clip0_0_253">
<rect width="119" height="21" fill="white" transform="translate(0 0.000488281)"/>
</clipPath>
</defs>
</svg>
