<svg width="56" height="56" viewBox="0 0 56 56" fill="none" xmlns="http://www.w3.org/2000/svg">
<circle cx="28" cy="28" r="28" fill="#0057FF"/>
<path d="M35.6364 14H20.3636C16.8491 14 14 16.8491 14 20.3636V35.6364C14 39.1509 16.8491 42 20.3636 42H35.6364C39.1509 42 42 39.1509 42 35.6364V20.3636C42 16.8491 39.1509 14 35.6364 14Z" fill="white"/>
<path d="M30.872 32.9209C29.3083 33.9641 27.2881 34.6909 25.0656 34.9926C24.5723 35.0596 24 34.669 24 33.9567V28V22.0433C24 21.331 24.5723 20.9404 25.0656 21.0074C27.2881 21.3091 29.3083 22.0359 30.872 23.0791C32.9699 24.4787 34 26.2691 34 28C34 29.7309 32.9699 31.5213 30.872 32.9209Z" stroke="#0057FF" stroke-width="2"/>
<path d="M22 28H28" stroke="#0057FF" stroke-width="2" stroke-linecap="round"/>
</svg>
