<svg width="470" height="461" viewBox="0 0 470 461" fill="none" xmlns="http://www.w3.org/2000/svg">
<g filter="url(#filter0_ii_556_4)">
<g filter="url(#filter1_b_556_4)">
<path d="M389.578 372.962V227.551C389.578 223.133 385.996 219.551 381.578 219.551H269.212H159.789H47.4238C43.0055 219.551 39.4238 223.133 39.4238 227.551V372.962C39.4238 421.376 78.6161 460.625 126.962 460.625H302.039C350.384 460.625 389.578 421.376 389.578 372.962Z" fill="url(#paint0_linear_556_4)"/>
</g>
</g>
<g filter="url(#filter2_ii_556_4)">
<path d="M378.635 88.5386H50.366C32.2361 88.5386 17.5391 103.236 17.5391 121.365V187.019C17.5391 205.149 32.2361 219.846 50.366 219.846H116.02H312.981H378.635C396.764 219.846 411.462 205.149 411.462 187.019V121.365C411.462 103.236 396.764 88.5386 378.635 88.5386Z" fill="url(#paint1_linear_556_4)"/>
</g>
<path d="M214.5 55.7115C214.5 25.4952 238.995 1 269.212 1H280.154C304.328 1 323.923 20.5961 323.923 44.7692C323.923 68.9423 304.328 88.5385 280.154 88.5385H214.5V55.7115Z" stroke="white" stroke-width="1.5"/>
<path d="M214.499 55.7115C214.499 25.4952 190.004 1 159.788 1H148.845C124.672 1 105.076 20.5961 105.076 44.7692C105.076 68.9423 124.672 88.5385 148.845 88.5385H214.499V55.7115Z" stroke="white" stroke-width="1.5"/>
<path d="M268.12 87.1797V460.625H160.881V87.1797H268.12Z" fill="white"/>
<g clip-path="url(#clip0_556_4)">
<path d="M37 377.231C57.4346 377.231 74 360.665 74 340.231C74 319.796 57.4346 303.231 37 303.231C16.5654 303.231 0 319.796 0 340.231C0 360.665 16.5654 377.231 37 377.231Z" fill="url(#paint2_radial_556_4)"/>
<path opacity="0.1" d="M37.0008 370.796C53.8815 370.796 67.566 357.111 67.566 340.231C67.566 323.35 53.8815 309.666 37.0008 309.666C20.1201 309.666 6.43555 323.35 6.43555 340.231C6.43555 357.111 20.1201 370.796 37.0008 370.796Z" stroke="#0057FF"/>
<path d="M42.8959 332.141C41.663 333.224 40.1039 334.606 38.4369 335.217C34.8103 336.544 30.868 332.898 27.0254 332.898L31.1971 337.326C34.4484 340.77 39.7675 340.77 43.0185 337.326L52.121 327.683C47.7515 327.683 46.1912 329.246 42.8959 332.141Z" fill="#0057FF"/>
<path d="M31.51 349.199C32.7115 348.172 34.2303 346.863 35.8545 346.285C39.3881 345.027 43.2296 348.481 46.9737 348.481L42.9087 344.287C39.7408 341.024 34.5584 341.024 31.3904 344.287L22.5215 353.422C26.7789 353.422 28.2993 351.941 31.51 349.199Z" fill="#0057FF"/>
</g>
<g clip-path="url(#clip1_556_4)">
<path d="M412.5 144.231C444.256 144.231 470 118.487 470 86.7307C470 54.9743 444.256 29.2307 412.5 29.2307C380.744 29.2307 355 54.9743 355 86.7307C355 118.487 380.744 144.231 412.5 144.231Z" fill="url(#paint3_radial_556_4)"/>
<path opacity="0.1" d="M412.5 134.231C438.734 134.231 460 112.964 460 86.7307C460 60.4972 438.734 39.2307 412.5 39.2307C386.266 39.2307 365 60.4972 365 86.7307C365 112.964 386.266 134.231 412.5 134.231Z" stroke="#0057FF"/>
<path d="M421.664 74.1582C419.748 75.8417 417.325 77.9895 414.734 78.9384C409.098 81.0014 402.972 75.3358 397 75.3358L403.483 82.2163C408.536 87.5689 416.802 87.5689 421.854 82.2163L436 67.2307C429.21 67.2307 426.785 69.6593 421.664 74.1582Z" fill="#0057FF"/>
<path d="M403.969 100.667C405.836 99.0724 408.196 97.0376 410.72 96.1393C416.212 94.1848 422.182 99.5522 428 99.5522L421.683 93.0338C416.76 87.963 408.706 87.963 403.783 93.0338L390 107.231C396.616 107.231 398.979 104.929 403.969 100.667Z" fill="#0057FF"/>
</g>
<defs>
<filter id="filter0_ii_556_4" x="39.4238" y="219.551" width="350.154" height="241.074" filterUnits="userSpaceOnUse" color-interpolation-filters="sRGB">
<feFlood flood-opacity="0" result="BackgroundImageFix"/>
<feBlend mode="normal" in="SourceGraphic" in2="BackgroundImageFix" result="shape"/>
<feColorMatrix in="SourceAlpha" type="matrix" values="0 0 0 0 0 0 0 0 0 0 0 0 0 0 0 0 0 0 127 0" result="hardAlpha"/>
<feOffset/>
<feGaussianBlur stdDeviation="2"/>
<feComposite in2="hardAlpha" operator="arithmetic" k2="-1" k3="1"/>
<feColorMatrix type="matrix" values="0 0 0 0 0.231373 0 0 0 0 0.407843 0 0 0 0 1 0 0 0 0.1 0"/>
<feBlend mode="normal" in2="shape" result="effect1_innerShadow_556_4"/>
<feColorMatrix in="SourceAlpha" type="matrix" values="0 0 0 0 0 0 0 0 0 0 0 0 0 0 0 0 0 0 127 0" result="hardAlpha"/>
<feOffset/>
<feGaussianBlur stdDeviation="1.5"/>
<feComposite in2="hardAlpha" operator="arithmetic" k2="-1" k3="1"/>
<feColorMatrix type="matrix" values="0 0 0 0 0.231373 0 0 0 0 0.407843 0 0 0 0 1 0 0 0 0.38 0"/>
<feBlend mode="normal" in2="effect1_innerShadow_556_4" result="effect2_innerShadow_556_4"/>
</filter>
<filter id="filter1_b_556_4" x="-10.5762" y="169.551" width="450.154" height="341.074" filterUnits="userSpaceOnUse" color-interpolation-filters="sRGB">
<feFlood flood-opacity="0" result="BackgroundImageFix"/>
<feGaussianBlur in="BackgroundImageFix" stdDeviation="25"/>
<feComposite in2="SourceAlpha" operator="in" result="effect1_backgroundBlur_556_4"/>
<feBlend mode="normal" in="SourceGraphic" in2="effect1_backgroundBlur_556_4" result="shape"/>
</filter>
<filter id="filter2_ii_556_4" x="17.5391" y="88.5386" width="393.924" height="131.308" filterUnits="userSpaceOnUse" color-interpolation-filters="sRGB">
<feFlood flood-opacity="0" result="BackgroundImageFix"/>
<feBlend mode="normal" in="SourceGraphic" in2="BackgroundImageFix" result="shape"/>
<feColorMatrix in="SourceAlpha" type="matrix" values="0 0 0 0 0 0 0 0 0 0 0 0 0 0 0 0 0 0 127 0" result="hardAlpha"/>
<feOffset/>
<feGaussianBlur stdDeviation="2"/>
<feComposite in2="hardAlpha" operator="arithmetic" k2="-1" k3="1"/>
<feColorMatrix type="matrix" values="0 0 0 0 0.231373 0 0 0 0 0.407843 0 0 0 0 1 0 0 0 0.1 0"/>
<feBlend mode="normal" in2="shape" result="effect1_innerShadow_556_4"/>
<feColorMatrix in="SourceAlpha" type="matrix" values="0 0 0 0 0 0 0 0 0 0 0 0 0 0 0 0 0 0 127 0" result="hardAlpha"/>
<feOffset/>
<feGaussianBlur stdDeviation="1.5"/>
<feComposite in2="hardAlpha" operator="arithmetic" k2="-1" k3="1"/>
<feColorMatrix type="matrix" values="0 0 0 0 0.231373 0 0 0 0 0.407843 0 0 0 0 1 0 0 0 0.38 0"/>
<feBlend mode="normal" in2="effect1_innerShadow_556_4" result="effect2_innerShadow_556_4"/>
</filter>
<linearGradient id="paint0_linear_556_4" x1="-74.3762" y1="123.122" x2="359.901" y2="685.707" gradientUnits="userSpaceOnUse">
<stop stop-color="#97BAFF" stop-opacity="0.26"/>
<stop offset="0.505208" stop-color="#D9E6FF" stop-opacity="0.12"/>
<stop offset="1" stop-color="#FAFBFF" stop-opacity="0.04"/>
</linearGradient>
<linearGradient id="paint1_linear_556_4" x1="-110.486" y1="36.0155" x2="49.8799" y2="465.103" gradientUnits="userSpaceOnUse">
<stop stop-color="#B6CFFF" stop-opacity="0.26"/>
<stop offset="0.505208" stop-color="#E1EBFF" stop-opacity="0.12"/>
<stop offset="1" stop-color="white" stop-opacity="0.04"/>
</linearGradient>
<radialGradient id="paint2_radial_556_4" cx="0" cy="0" r="1" gradientUnits="userSpaceOnUse" gradientTransform="translate(37 340.231) rotate(90) scale(37)">
<stop offset="0.854167" stop-color="white"/>
<stop offset="1" stop-color="#A2C1FF"/>
</radialGradient>
<radialGradient id="paint3_radial_556_4" cx="0" cy="0" r="1" gradientUnits="userSpaceOnUse" gradientTransform="translate(412.5 86.7307) rotate(90) scale(57.5)">
<stop offset="0.854167" stop-color="white"/>
<stop offset="1" stop-color="#A1C1FF"/>
</radialGradient>
<clipPath id="clip0_556_4">
<rect width="74" height="74" fill="white" transform="translate(0 303.231)"/>
</clipPath>
<clipPath id="clip1_556_4">
<rect width="115" height="115" fill="white" transform="translate(355 29.2307)"/>
</clipPath>
</defs>
</svg>
