<svg width="34" height="34" viewBox="0 0 34 34" fill="none" xmlns="http://www.w3.org/2000/svg">
<circle cx="17" cy="17" r="17" fill="#0057FF"/>
<path d="M20.4827 8.02627C20.1069 7.65044 19.4561 7.90711 19.4561 8.42961V11.6288C19.4561 12.9671 20.5927 14.0763 21.9769 14.0763C22.8477 14.0854 24.0577 14.0854 25.0936 14.0854C25.6161 14.0854 25.8911 13.4713 25.5244 13.1046C24.2044 11.7754 21.8394 9.38294 20.4827 8.02627Z" fill="white"/>
<path d="M24.792 15.3405H22.1428C19.9703 15.3405 18.2012 13.5713 18.2012 11.3988V8.74967C18.2012 8.24551 17.7887 7.83301 17.2845 7.83301H13.3978C10.5745 7.83301 8.29199 9.66634 8.29199 12.9388V21.0605C8.29199 24.333 10.5745 26.1663 13.3978 26.1663H20.6028C23.4262 26.1663 25.7087 24.333 25.7087 21.0605V16.2572C25.7087 15.753 25.2962 15.3405 24.792 15.3405ZM16.542 22.2705H12.8753C12.4995 22.2705 12.1878 21.9588 12.1878 21.583C12.1878 21.2072 12.4995 20.8955 12.8753 20.8955H16.542C16.9178 20.8955 17.2295 21.2072 17.2295 21.583C17.2295 21.9588 16.9178 22.2705 16.542 22.2705ZM18.3753 18.6038H12.8753C12.4995 18.6038 12.1878 18.2922 12.1878 17.9163C12.1878 17.5405 12.4995 17.2288 12.8753 17.2288H18.3753C18.7512 17.2288 19.0628 17.5405 19.0628 17.9163C19.0628 18.2922 18.7512 18.6038 18.3753 18.6038Z" fill="white"/>
</svg>
