<svg width="56" height="56" viewBox="0 0 56 56" fill="none" xmlns="http://www.w3.org/2000/svg">
<circle cx="28" cy="28" r="28" fill="#0057FF"/>
<path d="M33.8759 14H22.1381C17.0395 14 14 17.038 14 22.134V33.852C14 38.962 17.0395 42 22.1381 42H33.8619C38.9604 42 42 38.962 42 33.866V22.134C42.014 17.038 38.9744 14 33.8759 14ZM35.977 30.87C35.9209 30.996 35.8509 31.108 35.7528 31.206L31.6208 35.336C31.4107 35.546 31.1445 35.644 30.8784 35.644C30.6123 35.644 30.3461 35.546 30.136 35.336C29.7298 34.93 29.7298 34.258 30.136 33.852L32.4752 31.514H21.0035C20.4292 31.514 19.953 31.038 19.953 30.464C19.953 29.89 20.4292 29.414 21.0035 29.414H35.0105C35.1505 29.414 35.2766 29.442 35.4167 29.498C35.6688 29.61 35.8789 29.806 35.991 30.072C36.089 30.324 36.089 30.604 35.977 30.87ZM35.0105 26.586H21.0035C20.8634 26.586 20.7374 26.558 20.5973 26.502C20.3452 26.39 20.1351 26.194 20.023 25.928C19.9109 25.676 19.9109 25.382 20.023 25.13C20.093 25.004 20.1631 24.892 20.2611 24.794L24.3932 20.664C24.7994 20.258 25.4717 20.258 25.8779 20.664C26.2841 21.07 26.2841 21.742 25.8779 22.148L23.5388 24.486H35.0105C35.5848 24.486 36.061 24.962 36.061 25.536C36.061 26.11 35.5848 26.586 35.0105 26.586Z" fill="white"/>
</svg>
