<svg width="56" height="56" viewBox="0 0 56 56" fill="none" xmlns="http://www.w3.org/2000/svg">
<circle cx="28" cy="28" r="28" fill="#0057FF"/>
<path d="M30.0451 16.7011C30.0426 16.6122 29.9456 16.5543 29.8692 16.5999C25.8263 19.0153 25.9011 25.0742 25.9494 26.172C25.953 26.2548 25.8748 26.3133 25.7997 26.2779C25.3327 26.058 23.9944 25.2296 23.9205 22.9347C23.9176 22.8457 23.8216 22.7884 23.7449 22.8339C21.4041 24.2212 19.834 26.7837 19.834 29.6252C19.834 33.9744 23.4903 37.5002 28.0007 37.5002C32.511 37.5002 36.1673 33.9744 36.1673 29.6252C36.1673 23.3067 30.1943 21.9478 30.0451 16.7011Z" fill="white"/>
</svg>
