<svg width="202" height="25" viewBox="0 0 202 25" fill="none" xmlns="http://www.w3.org/2000/svg">
<g clip-path="url(#clip0_0_809)">
<path d="M39.2791 17.1174L30.6463 2.29119C28.7538 -0.798965 24.1386 -0.83184 22.3124 2.42268L13.2481 17.8406C11.5547 20.6678 13.6465 24.2181 17.0332 24.2181H35.1951C38.615 24.2181 41.1716 20.5691 39.2791 17.1174Z" fill="white"/>
<path d="M26.828 18.2681L26.2968 17.3476C25.7988 16.4928 24.703 14.6519 24.703 14.6519L17.3985 2.09406C15.5059 -0.700232 11.0236 -0.930351 9.131 2.58717L0.631101 17.1503C-1.12864 20.2076 0.963127 24.1853 4.78145 24.2183H22.8437H30.5467H35.1288C30.4472 24.2512 28.9531 21.8513 26.828 18.2681Z" fill="white"/>
<path d="M26.828 18.2682L26.2968 17.3478C25.7987 16.4931 24.703 14.6521 24.703 14.6521L19.9882 6.43359L13.2149 17.8738C11.5216 20.7009 13.6133 24.2513 17.0001 24.2513H22.8105H30.5135H35.1287C30.414 24.2184 28.953 21.8515 26.828 18.2682Z" fill="white"/>
<path d="M199.37 23.0675C198.141 23.0675 197.178 22.8045 196.448 22.3442C195.683 21.8512 195.285 21.1278 195.285 20.1416V5.80859H197.211C197.909 5.80859 198.506 6.36745 198.506 7.09068V19.7142C198.506 19.7472 198.506 20.3389 199.004 20.832C199.302 21.1278 199.668 21.2922 200.166 21.2922H200.531C200.665 21.2922 200.797 21.4238 200.797 21.5552V23.1003L199.37 23.0675Z" fill="white"/>
<path d="M157.868 23.067C155.875 23.067 154.248 22.5411 153.02 21.489C152.39 20.9631 151.958 20.3713 151.692 19.7138C151.426 19.0564 151.293 18.103 151.293 16.8209C151.293 15.5718 151.426 14.5855 151.692 13.928C151.924 13.3034 152.356 12.7445 152.987 12.2186C154.215 11.1666 155.842 10.6406 157.834 10.6406C159.826 10.6406 161.453 11.1666 162.682 12.2186C163.313 12.7445 163.745 13.3363 163.977 13.928C164.243 14.6183 164.375 15.5718 164.375 16.8209C164.375 18.103 164.243 19.0564 163.977 19.7138C163.711 20.3713 163.279 20.9631 162.648 21.489C161.487 22.5411 159.86 23.067 157.868 23.067ZM157.868 12.4487C155.676 12.4487 154.58 13.928 154.58 16.8538C154.58 19.8125 155.676 21.2918 157.868 21.2918C160.058 21.2918 161.155 19.8125 161.155 16.8867C161.155 13.928 160.026 12.4487 157.868 12.4487Z" fill="white"/>
<path d="M171.613 23.0675C169.886 23.0675 168.293 22.6072 166.932 21.7196C166.798 21.5881 166.532 21.4238 166.201 21.2265C166.134 21.1937 166.068 21.095 166.068 20.9964V5.80859H168.027C168.724 5.80859 169.322 6.40032 169.322 7.09068V11.5287L169.92 11.1999C170.617 10.8383 171.546 10.674 172.742 10.674C174.834 10.674 176.427 11.2985 177.49 12.5148C178.419 13.5997 178.885 15.0462 178.885 16.8214C178.885 18.5966 178.353 20.0431 177.29 21.095C176.061 22.41 174.136 23.0675 171.613 23.0675ZM171.944 12.4491C171.215 12.4491 170.384 12.7121 169.454 13.271L169.322 13.3367V20.4704L169.454 20.569C170.185 21.0292 171.049 21.2594 171.944 21.2594C173.14 21.2594 174.07 20.7663 174.7 19.7801C175.232 18.991 175.531 17.972 175.531 16.8214C175.531 13.9284 174.302 12.4491 171.944 12.4491Z" fill="white"/>
<path d="M186.555 23.0342C182.902 23.0342 180.611 20.6673 180.611 16.8209C180.611 13.0076 182.868 10.6406 186.487 10.6406C187.882 10.6406 189.077 11.0022 190.04 11.6926L190.24 11.8241V10.8707H192.796C192.962 10.8707 193.062 11.0022 193.062 11.1337V22.804H190.206V21.752L190.007 21.9164C189.211 22.6396 187.948 23.0342 186.555 23.0342ZM187.218 12.7445C184.927 12.7445 183.566 14.4869 183.566 16.8209C183.566 19.155 184.927 20.9631 187.218 20.9631C187.948 20.9631 189.211 20.8974 190.206 19.9111L190.24 19.8782V13.8951L190.206 13.8623C189.509 13.0733 188.48 12.7445 187.218 12.7445Z" fill="white"/>
<path d="M68.584 22.9027V5.77539H82.9607V6.86024C82.9607 7.71495 82.2635 8.40531 81.4003 8.40531H72.1698V13.0076H81.4003V15.6376H72.1698V20.2399H81.4003C82.2635 20.2399 82.9607 20.9302 82.9607 21.785V22.8699L68.584 22.9027Z" fill="white"/>
<path d="M103.613 5.77539H100.226C99.5955 5.77539 99.0311 6.03838 98.6326 6.53149L94.5488 11.627L90.4648 6.56437C90.0664 6.07126 89.5019 5.80826 88.8711 5.80826H85.4844L92.3573 14.3555L85.4844 22.9027H88.8711C89.5019 22.9027 90.0664 22.6398 90.4648 22.1467L94.5488 17.0841L98.6658 22.1795C99.0643 22.6398 99.6288 22.9356 100.26 22.9356H103.646L96.7733 14.3883L103.613 5.77539Z" fill="white"/>
<path d="M57.328 21.0963L62.0428 12.9435V22.8715H65.6287V5.74414H63.4041C62.7068 5.74414 62.0428 6.10575 61.7108 6.73036L56.0663 16.9213L50.4219 6.73036C50.0898 6.10575 49.4257 5.74414 48.7284 5.74414H46.5039V22.8715H50.0898V12.9435L54.8045 21.0963H57.328Z" fill="white"/>
<path d="M112.976 23.1007C107.996 23.1664 103.945 19.2872 103.912 14.3561C103.912 11.6605 104.742 9.42503 106.303 7.87996C107.863 6.36776 110.121 5.5459 112.81 5.5459C115.965 5.5459 118.455 6.63074 120.248 8.73468L119.119 9.68803C118.422 10.2798 117.392 10.3126 116.629 9.75378C115.633 8.99767 114.371 8.63605 112.943 8.63605C109.424 8.63605 107.332 10.74 107.332 14.2904C107.332 17.8736 109.49 20.0763 112.943 20.0763C114.404 20.0763 115.633 19.6817 116.629 18.9585C117.359 18.3996 118.388 18.4326 119.119 19.0242L120.248 19.9776C118.455 22.0486 116.064 23.1007 112.976 23.1007Z" fill="white"/>
<path d="M135.056 23.1003C129.479 23.1003 126.025 19.7472 126.025 14.3558C126.025 8.96447 129.479 5.61133 134.99 5.61133C137.646 5.61133 139.871 6.36742 141.597 7.91251L140.768 8.83298C140.402 9.22747 139.871 9.45759 139.339 9.45759C139.041 9.45759 138.742 9.39184 138.476 9.26034C137.447 8.73435 136.252 8.47136 134.99 8.47136C131.404 8.47136 129.179 10.7397 129.179 14.3887C129.179 18.0705 131.503 20.3389 135.222 20.3389C137.015 20.3389 138.41 20.0102 139.439 19.2869L139.505 19.2541V15.7365H135.554V14.5859C135.554 13.7312 136.252 13.0409 137.115 13.0409H141.995C142.129 13.0409 142.261 13.1723 142.261 13.3039V20.8978C140.568 22.3442 138.144 23.1003 135.056 23.1003Z" fill="white"/>
<path d="M148.67 23.0675C147.442 23.0675 146.478 22.8045 145.749 22.3442C144.985 21.8512 144.586 21.1278 144.586 20.1416V5.80859H146.512C147.21 5.80859 147.807 6.36745 147.807 7.09068V19.7142C147.807 19.7472 147.807 20.3389 148.305 20.832C148.604 21.1278 148.969 21.2922 149.466 21.2922H149.832C149.965 21.2922 150.098 21.4238 150.098 21.5552V23.1003L148.67 23.0675Z" fill="white"/>
</g>
<defs>
<clipPath id="clip0_0_809">
<rect width="202" height="25" fill="white"/>
</clipPath>
</defs>
</svg>
