<svg width="117" height="27" viewBox="0 0 117 27" fill="none" xmlns="http://www.w3.org/2000/svg">
<path d="M45.9646 11.2474C45.5904 10.5688 45.0758 10.0521 44.421 9.69736C43.7661 9.34262 43.0021 9.16525 42.1289 9.16525C41.1622 9.16525 40.3046 9.38118 39.5562 9.81303C38.8078 10.2449 38.2231 10.8618 37.8021 11.6638C37.3811 12.4658 37.1706 13.3912 37.1706 14.4401C37.1706 15.5197 37.3811 16.4605 37.8021 17.2625C38.2387 18.0645 38.839 18.6815 39.603 19.1134C40.367 19.5452 41.2557 19.7611 42.2692 19.7611C43.5166 19.7611 44.5379 19.4372 45.3331 18.7895C46.1283 18.1263 46.6506 17.2085 46.9001 16.0364H41.2869V13.5609H50.1277V16.3834C49.9093 17.5093 49.4416 18.5504 48.7244 19.5067C48.0072 20.4629 47.0794 21.234 45.9412 21.8202C44.8186 22.3908 43.5556 22.6762 42.1523 22.6762C40.5775 22.6762 39.1508 22.3291 37.8723 21.6351C36.6093 20.9256 35.6114 19.9462 34.8786 18.6969C34.1614 17.4476 33.8027 16.0286 33.8027 14.4401C33.8027 12.8515 34.1614 11.4325 34.8786 10.1832C35.6114 8.91848 36.6093 7.93909 37.8723 7.24503C39.1508 6.53556 40.5697 6.18082 42.1289 6.18082C43.9688 6.18082 45.567 6.6281 46.9235 7.52266C48.28 8.40179 49.2155 9.64337 49.7301 11.2474H45.9646ZM51.7082 16.0827C51.7082 14.7871 51.9655 13.6381 52.48 12.6355C53.0101 11.633 53.7196 10.8618 54.6083 10.322C55.5126 9.78218 56.5183 9.51228 57.6254 9.51228C58.5921 9.51228 59.4341 9.70507 60.1513 10.0907C60.8842 10.4762 61.4689 10.9621 61.9054 11.5482V9.72049H65.2032V22.5374H61.9054V20.6634C61.4844 21.2649 60.8997 21.7662 60.1513 22.1672C59.4185 22.5528 58.5687 22.7456 57.602 22.7456C56.5106 22.7456 55.5126 22.4679 54.6083 21.9127C53.7196 21.3575 53.0101 20.5786 52.48 19.5761C51.9655 18.5581 51.7082 17.3936 51.7082 16.0827ZM61.9054 16.1289C61.9054 15.3423 61.7495 14.6714 61.4377 14.1162C61.1258 13.5455 60.7048 13.1136 60.1747 12.8206C59.6446 12.5121 59.0755 12.3579 58.4674 12.3579C57.8593 12.3579 57.298 12.5044 56.7834 12.7975C56.2689 13.0905 55.8479 13.5224 55.5205 14.093C55.2086 14.6483 55.0527 15.3115 55.0527 16.0827C55.0527 16.8538 55.2086 17.5324 55.5205 18.1185C55.8479 18.6892 56.2689 19.1288 56.7834 19.4372C57.3135 19.7457 57.8748 19.8999 58.4674 19.8999C59.0755 19.8999 59.6446 19.7534 60.1747 19.4604C60.7048 19.1519 61.1258 18.7201 61.4377 18.1648C61.7495 17.5942 61.9054 16.9155 61.9054 16.1289ZM72.2134 12.381V18.5812C72.2134 19.0131 72.3148 19.3293 72.5174 19.5298C72.7357 19.7149 73.0943 19.8074 73.5933 19.8074H75.1135V22.5374H73.0554C70.2956 22.5374 68.9157 21.2109 68.9157 18.5581V12.381H67.372V9.72049H68.9157V6.55098H72.2134V9.72049H75.1135V12.381H72.2134ZM89.5135 15.8513C89.5135 16.314 89.4823 16.7304 89.42 17.1006H79.9478C80.0257 18.026 80.3531 18.7509 80.9301 19.2753C81.507 19.7997 82.2164 20.0619 83.0584 20.0619C84.2746 20.0619 85.1399 19.5452 85.6545 18.5118H89.1861C88.8119 19.7457 88.0946 20.7637 87.0344 21.5657C85.9741 22.3523 84.6722 22.7456 83.1286 22.7456C81.8812 22.7456 80.7585 22.4757 79.7607 21.9358C78.7784 21.3806 78.0066 20.6017 77.4452 19.5992C76.8995 18.5966 76.6266 17.4399 76.6266 16.1289C76.6266 14.8025 76.8995 13.6381 77.4452 12.6355C77.9909 11.633 78.755 10.8618 79.7373 10.322C80.7196 9.78218 81.85 9.51228 83.1286 9.51228C84.3603 9.51228 85.4595 9.77448 86.4263 10.2989C87.4086 10.8233 88.1648 11.5713 88.6949 12.543C89.2406 13.4993 89.5135 14.602 89.5135 15.8513ZM86.1222 14.9259C86.1066 14.093 85.8025 13.4298 85.2101 12.9363C84.6176 12.4273 83.8925 12.1728 83.035 12.1728C82.2242 12.1728 81.5382 12.4196 80.9768 12.9131C80.4311 13.3912 80.0958 14.0622 79.9712 14.9259H86.1222ZM93.3536 22.6993C92.761 22.6993 92.2699 22.522 91.8801 22.1672C91.5059 21.797 91.3188 21.3421 91.3188 20.8022C91.3188 20.2624 91.5059 19.8151 91.8801 19.4604C92.2699 19.0902 92.761 18.9051 93.3536 18.9051C93.9304 18.9051 94.406 19.0902 94.7802 19.4604C95.1544 19.8151 95.3416 20.2624 95.3416 20.8022C95.3416 21.3421 95.1544 21.797 94.7802 22.1672C94.406 22.522 93.9304 22.6993 93.3536 22.6993ZM99.6395 8.19357C99.0625 8.19357 98.5792 8.01621 98.1894 7.66147C97.8152 7.29131 97.6281 6.83632 97.6281 6.29649C97.6281 5.75667 97.8152 5.3094 98.1894 4.95466C98.5792 4.5845 99.0625 4.39941 99.6395 4.39941C100.216 4.39941 100.692 4.5845 101.066 4.95466C101.456 5.3094 101.651 5.75667 101.651 6.29649C101.651 6.83632 101.456 7.29131 101.066 7.66147C100.692 8.01621 100.216 8.19357 99.6395 8.19357ZM101.253 9.72049V22.5374H97.9789V9.72049H101.253ZM110.242 22.7456C108.994 22.7456 107.872 22.4757 106.874 21.9358C105.876 21.3806 105.089 20.6017 104.512 19.5992C103.95 18.5966 103.67 17.4399 103.67 16.1289C103.67 14.818 103.958 13.6612 104.535 12.6587C105.128 11.6561 105.931 10.885 106.944 10.3451C107.958 9.7899 109.088 9.51228 110.335 9.51228C111.583 9.51228 112.713 9.7899 113.727 10.3451C114.74 10.885 115.536 11.6561 116.112 12.6587C116.705 13.6612 117.001 14.818 117.001 16.1289C117.001 17.4399 116.697 18.5966 116.089 19.5992C115.496 20.6017 114.686 21.3806 113.656 21.9358C112.643 22.4757 111.505 22.7456 110.242 22.7456ZM110.242 19.9231C110.835 19.9231 111.388 19.7843 111.902 19.5067C112.432 19.2136 112.853 18.7817 113.165 18.2111C113.477 17.6404 113.633 16.9464 113.633 16.1289C113.633 14.9105 113.306 13.9774 112.651 13.3296C112.011 12.6664 111.224 12.3348 110.289 12.3348C109.353 12.3348 108.566 12.6664 107.926 13.3296C107.303 13.9774 106.991 14.9105 106.991 16.1289C106.991 17.3473 107.295 18.2882 107.903 18.9514C108.526 19.5992 109.306 19.9231 110.242 19.9231Z" fill="#0051D2"/>
<path d="M24.2297 13.5C24.2297 15.5767 23.6071 17.6068 22.4407 19.3335C21.2744 21.0602 19.6166 22.406 17.677 23.2007C15.7374 23.9954 13.6031 24.2034 11.544 23.7982C9.48491 23.3931 7.59353 22.3931 6.10902 20.9246C4.62451 19.4562 3.61355 17.5852 3.20397 15.5484C2.79438 13.5116 3.00461 11.4004 3.80803 9.48182C4.61142 7.5632 5.97196 5.92332 7.71757 4.76957C9.46315 3.61582 11.5154 3 13.6148 3" stroke="#0051D2" stroke-width="6"/>
<path d="M21.323 5.875H13.4883V13.625H21.323V5.875Z" fill="#14E0A1"/>
</svg>
