<svg width="136" height="30" viewBox="0 0 136 30" fill="none" xmlns="http://www.w3.org/2000/svg">
<path d="M53.1244 12.0324C52.6878 11.2891 52.0875 10.7233 51.3235 10.3347C50.5595 9.94621 49.6681 9.75195 48.6494 9.75195C47.5216 9.75195 46.5211 9.98845 45.6479 10.4614C44.7748 10.9344 44.0926 11.6101 43.6015 12.4885C43.1103 13.3669 42.8648 14.3804 42.8648 15.5291C42.8648 16.7116 43.1103 17.742 43.6015 18.6204C44.1108 19.4988 44.8112 20.1745 45.7025 20.6475C46.5939 21.1205 47.6307 21.357 48.8131 21.357C50.2684 21.357 51.4599 21.0022 52.3876 20.2928C53.3154 19.5664 53.9248 18.5613 54.2158 17.2775H47.6671V14.5663H57.9813V17.6576C57.7266 18.8907 57.1809 20.0309 56.3441 21.0782C55.5074 22.1256 54.425 22.9702 53.0971 23.6121C51.7873 24.2371 50.3139 24.5496 48.6767 24.5496C46.8394 24.5496 45.175 24.1695 43.6833 23.4094C42.2099 22.6324 41.0457 21.5597 40.1907 20.1914C39.3539 18.8231 38.9355 17.269 38.9355 15.5291C38.9355 13.7892 39.3539 12.2351 40.1907 10.8668C41.0457 9.48168 42.2099 8.40901 43.6833 7.64886C45.175 6.87182 46.8303 6.48329 48.6494 6.48329C50.7959 6.48329 52.6605 6.97317 54.2431 7.95292C55.8257 8.91578 56.9171 10.2756 57.5174 12.0324H53.1244ZM59.8252 17.3282C59.8252 15.9092 60.1254 14.6507 60.7257 13.5527C61.3441 12.4547 62.1719 11.6101 63.2087 11.0189C64.2638 10.4276 65.4371 10.132 66.7286 10.132C67.8565 10.132 68.8388 10.3432 69.6756 10.7655C70.5306 11.1878 71.2127 11.7199 71.722 12.3618V10.3601H75.5694V24.3976H71.722V22.3452C71.2309 23.004 70.5487 23.5529 69.6756 23.9922C68.8206 24.4145 67.8292 24.6256 66.7014 24.6256C65.428 24.6256 64.2638 24.3216 63.2087 23.7134C62.1719 23.1053 61.3441 22.2523 60.7257 21.1543C60.1254 20.0394 59.8252 18.764 59.8252 17.3282ZM71.722 17.3788C71.722 16.5173 71.5401 15.7825 71.1763 15.1744C70.8124 14.5494 70.3213 14.0764 69.7028 13.7554C69.0844 13.4176 68.4204 13.2487 67.7109 13.2487C67.0015 13.2487 66.3466 13.4092 65.7463 13.7301C65.146 14.051 64.6549 14.5241 64.2729 15.149C63.909 15.7572 63.7272 16.4835 63.7272 17.3282C63.7272 18.1728 63.909 18.916 64.2729 19.5579C64.6549 20.1829 65.146 20.6644 65.7463 21.0022C66.3648 21.3401 67.0197 21.509 67.7109 21.509C68.4204 21.509 69.0844 21.3485 69.7028 21.0276C70.3213 20.6897 70.8124 20.2167 71.1763 19.6086C71.5401 18.9836 71.722 18.2403 71.722 17.3788ZM83.748 13.274V20.0647C83.748 20.5377 83.8662 20.884 84.1027 21.1036C84.3574 21.3063 84.7757 21.4076 85.3579 21.4076H87.1315V24.3976H84.7303C81.5105 24.3976 79.9006 22.9448 79.9006 20.0394V13.274H78.0997V10.3601H79.9006V6.88871H83.748V10.3601H87.1315V13.274H83.748ZM103.931 17.0748C103.931 17.5815 103.895 18.0376 103.822 18.443H92.7714C92.8623 19.4566 93.2443 20.2506 93.9174 20.8249C94.5905 21.3992 95.4182 21.6864 96.4005 21.6864C97.8194 21.6864 98.8289 21.1205 99.4292 19.9887H103.549C103.113 21.3401 102.276 22.455 101.039 23.3334C99.8021 24.1949 98.2832 24.6256 96.4823 24.6256C95.027 24.6256 93.7173 24.33 92.5531 23.7388C91.4071 23.1307 90.5067 22.2776 89.8518 21.1796C89.2151 20.0816 88.8967 18.8147 88.8967 17.3788C88.8967 15.9261 89.2151 14.6507 89.8518 13.5527C90.4884 12.4547 91.3798 11.6101 92.5258 11.0189C93.6719 10.4276 94.9906 10.132 96.4823 10.132C97.9194 10.132 99.2018 10.4192 100.33 10.9935C101.476 11.5679 102.358 12.3872 102.976 13.4514C103.613 14.4987 103.931 15.7065 103.931 17.0748ZM99.975 16.0612C99.9567 15.149 99.602 14.4227 98.9108 13.8821C98.2195 13.3247 97.3737 13.046 96.3732 13.046C95.4272 13.046 94.6269 13.3162 93.972 13.8568C93.3353 14.3804 92.9442 15.1152 92.7987 16.0612H99.975ZM108.412 24.575C107.72 24.575 107.147 24.3807 106.692 23.9922C106.256 23.5868 106.038 23.0885 106.038 22.4972C106.038 21.9059 106.256 21.4161 106.692 21.0276C107.147 20.6222 107.72 20.4194 108.412 20.4194C109.085 20.4194 109.639 20.6222 110.076 21.0276C110.513 21.4161 110.731 21.9059 110.731 22.4972C110.731 23.0885 110.513 23.5868 110.076 23.9922C109.639 24.3807 109.085 24.575 108.412 24.575ZM115.745 8.68774C115.072 8.68774 114.508 8.49348 114.053 8.10495C113.617 7.69954 113.398 7.20122 113.398 6.60998C113.398 6.01875 113.617 5.52888 114.053 5.14035C114.508 4.73494 115.072 4.53223 115.745 4.53223C116.418 4.53223 116.973 4.73494 117.41 5.14035C117.864 5.52888 118.092 6.01875 118.092 6.60998C118.092 7.20122 117.864 7.69954 117.41 8.10495C116.973 8.49348 116.418 8.68774 115.745 8.68774ZM117.628 10.3601V24.3976H113.808V10.3601H117.628ZM128.114 24.6256C126.659 24.6256 125.349 24.33 124.185 23.7388C123.021 23.1307 122.102 22.2776 121.429 21.1796C120.774 20.0816 120.447 18.8147 120.447 17.3788C120.447 15.943 120.784 14.6761 121.457 13.5781C122.148 12.48 123.085 11.6354 124.267 11.0442C125.45 10.4361 126.768 10.132 128.224 10.132C129.679 10.132 130.997 10.4361 132.18 11.0442C133.363 11.6354 134.29 12.48 134.963 13.5781C135.655 14.6761 136 15.943 136 17.3788C136 18.8147 135.645 20.0816 134.936 21.1796C134.244 22.2776 133.299 23.1307 132.098 23.7388C130.916 24.33 129.588 24.6256 128.114 24.6256ZM128.114 21.5343C128.806 21.5343 129.451 21.3823 130.052 21.0782C130.67 20.7573 131.161 20.2843 131.525 19.6593C131.889 19.0343 132.071 18.2741 132.071 17.3788C132.071 16.0444 131.689 15.0224 130.925 14.3129C130.179 13.5865 129.26 13.2233 128.169 13.2233C127.078 13.2233 126.159 13.5865 125.413 14.3129C124.686 15.0224 124.322 16.0444 124.322 17.3788C124.322 18.7133 124.676 19.7438 125.386 20.4701C126.113 21.1796 127.023 21.5343 128.114 21.5343Z" fill="white"/>
<path d="M27.4485 14.9792C27.4485 17.3484 26.7316 19.6645 25.3884 21.6344C24.0452 23.6044 22.136 25.1398 19.9023 26.0465C17.6686 26.9531 15.2107 27.1904 12.8394 26.7282C10.4682 26.2659 8.29 25.125 6.58041 23.4497C4.87082 21.7744 3.70657 19.6399 3.23489 17.3162C2.76321 14.9925 3.00531 12.5838 3.93054 10.3949C4.85574 8.20603 6.42257 6.33514 8.43285 5.01886C10.4431 3.70258 12.8065 3 15.2243 3" stroke="white" stroke-width="6"/>
<path d="M24.5138 5.875H14.7344V15.4583H24.5138V5.875Z" fill="white"/>
</svg>
