<svg width="21" height="20" viewBox="0 0 21 20" fill="none" xmlns="http://www.w3.org/2000/svg">
<g clip-path="url(#clip0_0_4369)">
<path d="M10.4594 0C4.68357 0 0 4.58446 0 10.2399C0 14.7642 2.99693 18.6025 7.1528 19.9565C7.6755 20.0513 7.86745 19.7344 7.86745 19.4639C7.86745 19.2197 7.85769 18.413 7.85326 17.5574C4.94337 18.1768 4.32936 16.3492 4.32936 16.3492C3.85358 15.1656 3.16805 14.851 3.16805 14.851C2.21911 14.2154 3.23958 14.2284 3.23958 14.2284C4.28991 14.3007 4.84296 15.2837 4.84296 15.2837C5.77582 16.8492 7.28979 16.3965 7.88665 16.135C7.98049 15.4731 8.25161 15.0214 8.55069 14.7657C6.22757 14.5067 3.78533 13.6287 3.78533 9.70507C3.78533 8.58716 4.19393 7.67364 4.86306 6.95656C4.75445 6.69861 4.39646 5.65716 4.96437 4.24668C4.96437 4.24668 5.84268 3.97146 7.84145 5.29632C8.67571 5.06937 9.5705 4.95565 10.4594 4.9518C11.3483 4.95565 12.2437 5.06937 13.0796 5.29632C15.076 3.97146 15.9531 4.24668 15.9531 4.24668C16.5224 5.65716 16.1643 6.69861 16.0556 6.95656C16.7263 7.67364 17.1321 8.58708 17.1321 9.70507C17.1321 13.638 14.6852 14.504 12.3562 14.7575C12.7313 15.0753 13.0656 15.6985 13.0656 16.6538C13.0656 18.0238 13.0535 19.1266 13.0535 19.4639C13.0535 19.7364 13.2417 20.0557 13.772 19.9551C17.9256 18.5996 20.9187 14.7626 20.9187 10.2399C20.9187 4.58446 16.2358 0 10.4594 0Z" fill="#121212"/>
<path d="M3.91741 14.5867C3.89444 14.6376 3.81257 14.6528 3.73817 14.618C3.66229 14.5846 3.61964 14.5152 3.64424 14.4641C3.6668 14.4117 3.74867 14.3971 3.82439 14.4323C3.90043 14.4656 3.94374 14.5356 3.91741 14.5867ZM4.43191 15.0361C4.38203 15.0814 4.2845 15.0604 4.2183 14.9888C4.14989 14.9174 4.13709 14.822 4.1877 14.776C4.23914 14.7308 4.33372 14.7519 4.4023 14.8234C4.47071 14.8956 4.484 14.9904 4.43183 15.0362L4.43191 15.0361ZM4.78489 15.6112C4.72074 15.6548 4.61591 15.6139 4.55118 15.5228C4.48712 15.4318 4.48712 15.3226 4.55258 15.2788C4.61755 15.2351 4.72074 15.2744 4.78637 15.3648C4.85035 15.4574 4.85035 15.5666 4.78481 15.6112L4.78489 15.6112ZM5.38175 16.2772C5.32441 16.339 5.20235 16.3225 5.11293 16.238C5.02155 16.1554 4.99604 16.0382 5.05354 15.9763C5.11154 15.9143 5.23434 15.9317 5.32441 16.0155C5.41522 16.0979 5.44294 16.216 5.38183 16.2772H5.38175ZM6.15317 16.502C6.12799 16.5822 6.01035 16.6186 5.8919 16.5846C5.77361 16.5495 5.69618 16.4555 5.72005 16.3745C5.74466 16.2938 5.86278 16.2558 5.98214 16.2923C6.10026 16.3272 6.17786 16.4204 6.15325 16.502H6.15317ZM7.03123 16.5974C7.03419 16.6818 6.9337 16.7519 6.80934 16.7534C6.68424 16.756 6.5831 16.6877 6.58178 16.6047C6.58178 16.5194 6.67998 16.45 6.80499 16.448C6.92935 16.4456 7.03123 16.5134 7.03123 16.5974ZM7.89371 16.565C7.90864 16.6474 7.82218 16.732 7.69872 16.7545C7.57732 16.7762 7.46493 16.7254 7.44943 16.6437C7.43434 16.5592 7.52244 16.4746 7.6436 16.4527C7.7673 16.4317 7.87796 16.4812 7.89371 16.565Z" fill="#121212"/>
</g>
<defs>
<clipPath id="clip0_0_4369">
<rect width="21" height="20" fill="white"/>
</clipPath>
</defs>
</svg>
