<svg width="24" height="24" viewBox="0 0 24 24" fill="none" xmlns="http://www.w3.org/2000/svg">
<path d="M6.77727 22.692C6.74128 22.692 6.69328 22.716 6.65728 22.716C4.32939 21.564 2.43348 19.656 1.26953 17.328C1.26953 17.292 1.29353 17.244 1.29353 17.208C2.75746 17.64 4.26939 17.964 5.76932 18.216C6.03331 19.728 6.34529 21.228 6.77727 22.692Z" fill="#121212"/>
<path d="M22.7257 17.34C21.5378 19.728 19.5579 21.66 17.146 22.824C17.602 21.3 17.986 19.764 18.2379 18.216C19.7499 17.964 21.2378 17.64 22.7017 17.208C22.6897 17.256 22.7257 17.304 22.7257 17.34Z" fill="#121212"/>
<path d="M22.8217 6.85271C21.3098 6.39672 19.7859 6.02472 18.2379 5.76072C17.986 4.21273 17.614 2.67675 17.146 1.17676C19.6299 2.36475 21.6338 4.36873 22.8217 6.85271Z" fill="#121212"/>
<path d="M6.78098 1.30651C6.349 2.7705 6.03702 4.25848 5.78503 5.77047C4.2371 6.01047 2.70117 6.39447 1.17725 6.85046C2.34119 4.43848 4.2731 2.4585 6.66099 1.27051C6.69699 1.27051 6.74499 1.30651 6.78098 1.30651Z" fill="#121212"/>
<path d="M16.19 5.50796C13.4062 5.19596 10.5983 5.19596 7.81445 5.50796C8.11444 3.86397 8.49842 2.21998 9.0384 0.635995C9.0624 0.539996 9.0504 0.467996 9.06239 0.371997C10.0103 0.143999 10.9823 0 12.0022 0C13.0102 0 13.9941 0.143999 14.9301 0.371997C14.9421 0.467996 14.9421 0.539996 14.9661 0.635995C15.5061 2.23198 15.8901 3.86397 16.19 5.50796Z" fill="#121212"/>
<path d="M5.50774 16.1904C3.85182 15.8904 2.2199 15.5064 0.63597 14.9664C0.539975 14.9424 0.467978 14.9544 0.371983 14.9424C0.143993 13.9944 0 13.0224 0 12.0024C0 10.9944 0.143993 10.0104 0.371983 9.07444C0.467978 9.06244 0.539975 9.06244 0.63597 9.03844C2.2319 8.51045 3.85182 8.11445 5.50774 7.81445C5.20776 10.5984 5.20776 13.4064 5.50774 16.1904Z" fill="#121212"/>
<path d="M23.9999 12.0024C23.9999 13.0224 23.8559 13.9944 23.6279 14.9424C23.532 14.9544 23.46 14.9424 23.364 14.9664C21.768 15.4944 20.1361 15.8904 18.4922 16.1904C18.8042 13.4064 18.8042 10.5984 18.4922 7.81445C20.1361 8.11445 21.78 8.49845 23.364 9.03844C23.46 9.06244 23.532 9.07444 23.6279 9.07444C23.8559 10.0224 23.9999 10.9944 23.9999 12.0024Z" fill="#121212"/>
<path d="M16.19 18.4922C15.8901 20.1482 15.5061 21.7802 14.9661 23.3641C14.9421 23.4601 14.9421 23.5321 14.9301 23.6281C13.9941 23.8561 13.0102 24.0001 12.0022 24.0001C10.9823 24.0001 10.0103 23.8561 9.06239 23.6281C9.0504 23.5321 9.0624 23.4601 9.0384 23.3641C8.51042 21.7682 8.11444 20.1482 7.81445 18.4922C9.20639 18.6482 10.5983 18.7562 12.0022 18.7562C13.4062 18.7562 14.8101 18.6482 16.19 18.4922Z" fill="#121212"/>
<path d="M16.5152 16.5161C13.5141 16.8948 10.4849 16.8948 7.4837 16.5161C7.10504 13.5148 7.10504 10.4855 7.4837 7.4842C10.4849 7.10553 13.5141 7.10553 16.5152 7.4842C16.8939 10.4855 16.8939 13.5148 16.5152 16.5161Z" fill="#121212"/>
</svg>
