<svg width="34" height="34" viewBox="0 0 34 34" fill="none" xmlns="http://www.w3.org/2000/svg">
<circle cx="17" cy="17" r="17" fill="#0057FF"/>
<path d="M13.0112 25.1677C12.9837 25.1677 12.947 25.186 12.9195 25.186C11.1412 24.306 9.69288 22.8485 8.80371 21.0702C8.80371 21.0427 8.82204 21.006 8.82204 20.9785C9.94038 21.3085 11.0954 21.556 12.2412 21.7485C12.4429 22.9035 12.6812 24.0493 13.0112 25.1677Z" fill="white"/>
<path d="M25.1941 21.0793C24.2866 22.9035 22.7741 24.3793 20.9316 25.2685C21.28 24.1043 21.5733 22.931 21.7658 21.7485C22.9208 21.556 24.0575 21.3085 25.1758 20.9785C25.1666 21.0152 25.1941 21.0518 25.1941 21.0793Z" fill="white"/>
<path d="M25.2675 13.0683C24.1125 12.7199 22.9483 12.4358 21.7658 12.2341C21.5733 11.0516 21.2891 9.87826 20.9316 8.73242C22.8291 9.63992 24.36 11.1708 25.2675 13.0683Z" fill="white"/>
<path d="M13.0133 8.83121C12.6833 9.94954 12.4449 11.0862 12.2524 12.2412C11.0699 12.4245 9.89659 12.7179 8.73242 13.0662C9.62159 11.2237 11.0974 9.71121 12.9216 8.80371C12.9491 8.80371 12.9858 8.83121 13.0133 8.83121Z" fill="white"/>
<path d="M20.201 12.0405C18.0744 11.8022 15.9294 11.8022 13.8027 12.0405C14.0319 10.7847 14.3252 9.52884 14.7377 8.31884C14.7561 8.24551 14.7469 8.19051 14.7561 8.11717C15.4802 7.94301 16.2227 7.83301 17.0019 7.83301C17.7719 7.83301 18.5235 7.94301 19.2385 8.11717C19.2477 8.19051 19.2477 8.24551 19.266 8.31884C19.6785 9.53801 19.9719 10.7847 20.201 12.0405Z" fill="white"/>
<path d="M12.0405 20.201C10.7755 19.9719 9.52884 19.6785 8.31884 19.266C8.24551 19.2477 8.19051 19.2569 8.11717 19.2477C7.94301 18.5235 7.83301 17.7811 7.83301 17.0019C7.83301 16.2319 7.94301 15.4802 8.11717 14.7652C8.19051 14.7561 8.24551 14.7561 8.31884 14.7377C9.53801 14.3344 10.7755 14.0319 12.0405 13.8027C11.8113 15.9294 11.8113 18.0744 12.0405 20.201Z" fill="white"/>
<path d="M26.1665 17.0019C26.1665 17.7811 26.0565 18.5235 25.8823 19.2477C25.809 19.2569 25.754 19.2477 25.6807 19.266C24.4615 19.6694 23.2148 19.9719 21.959 20.201C22.1973 18.0744 22.1973 15.9294 21.959 13.8027C23.2148 14.0319 24.4707 14.3252 25.6807 14.7377C25.754 14.7561 25.809 14.7652 25.8823 14.7652C26.0565 15.4894 26.1665 16.2319 26.1665 17.0019Z" fill="white"/>
<path d="M20.201 21.959C19.9719 23.224 19.6785 24.4707 19.266 25.6807C19.2477 25.754 19.2477 25.809 19.2385 25.8823C18.5235 26.0565 17.7719 26.1665 17.0019 26.1665C16.2227 26.1665 15.4802 26.0565 14.7561 25.8823C14.7469 25.809 14.7561 25.754 14.7377 25.6807C14.3344 24.4615 14.0319 23.224 13.8027 21.959C14.8661 22.0782 15.9294 22.1607 17.0019 22.1607C18.0744 22.1607 19.1469 22.0782 20.201 21.959Z" fill="white"/>
<path d="M20.4494 20.4494C18.1567 20.7387 15.8427 20.7387 13.55 20.4494C13.2607 18.1567 13.2607 15.8427 13.55 13.55C15.8427 13.2607 18.1567 13.2607 20.4494 13.55C20.7387 15.8427 20.7387 18.1567 20.4494 20.4494Z" fill="white"/>
</svg>
