<svg width="117" height="28" viewBox="0 0 117 28" fill="none" xmlns="http://www.w3.org/2000/svg">
<path d="M44.3438 8.09091L46.9538 12.3576H47.0391L49.6491 8.09091H51.5561L48.1577 13.5455L51.5774 19H49.6598L47.0391 14.7919H46.9538L44.3331 19H42.4155L45.8938 13.5455L42.4368 8.09091H44.3438ZM53.1887 19V8.09091H57.0772C57.926 8.09091 58.6291 8.24538 59.1866 8.55433C59.7441 8.86328 60.1614 9.28587 60.4384 9.82209C60.7154 10.3548 60.8539 10.9549 60.8539 11.6225C60.8539 12.2937 60.7136 12.8974 60.4331 13.4336C60.1561 13.9663 59.737 14.3888 59.176 14.7013C58.6184 15.0103 57.9171 15.1648 57.0719 15.1648H54.3979V13.7692H56.9228C57.459 13.7692 57.894 13.6768 58.2278 13.4922C58.5616 13.304 58.8066 13.0483 58.9629 12.7251C59.1191 12.402 59.1973 12.0344 59.1973 11.6225C59.1973 11.2106 59.1191 10.8448 58.9629 10.5252C58.8066 10.2056 58.5598 9.95526 58.2225 9.77415C57.8887 9.59304 57.4483 9.50249 56.9015 9.50249H54.8347V19H53.1887ZM62.5478 19H60.8006L64.7264 8.09091H66.628L70.5538 19H68.8066L65.7225 10.0724H65.6373L62.5478 19ZM62.8407 14.728H68.5083V16.1129H62.8407V14.728ZM75.6608 19H72.1292V8.09091H75.7726C76.8415 8.09091 77.7595 8.3093 78.5265 8.74609C79.2936 9.17933 79.8813 9.80256 80.2897 10.6158C80.7016 11.4254 80.9076 12.3967 80.9076 13.5295C80.9076 14.6658 80.6998 15.6424 80.2844 16.4592C79.8724 17.2759 79.2758 17.9045 78.4946 18.3448C77.7133 18.7816 76.7687 19 75.6608 19ZM73.7751 17.5618H75.5702C76.4012 17.5618 77.0919 17.4055 77.6423 17.093C78.1927 16.777 78.6047 16.3207 78.8781 15.7241C79.1515 15.1239 79.2883 14.3924 79.2883 13.5295C79.2883 12.6737 79.1515 11.9474 78.8781 11.3509C78.6082 10.7543 78.2052 10.3015 77.6689 9.99254C77.1327 9.68359 76.4669 9.52912 75.6714 9.52912H73.7751V17.5618ZM83.1874 19.1012C82.8962 19.1012 82.6459 18.9982 82.4363 18.7923C82.2268 18.5827 82.1221 18.3306 82.1221 18.0359C82.1221 17.7447 82.2268 17.4961 82.4363 17.2901C82.6459 17.0806 82.8962 16.9759 83.1874 16.9759C83.4786 16.9759 83.729 17.0806 83.9385 17.2901C84.148 17.4961 84.2528 17.7447 84.2528 18.0359C84.2528 18.2312 84.203 18.4105 84.1036 18.5739C84.0077 18.7337 83.8799 18.8615 83.7201 18.9574C83.5603 19.0533 83.3827 19.1012 83.1874 19.1012ZM86.5139 19V8.09091H90.4024C91.2512 8.09091 91.9543 8.24538 92.5118 8.55433C93.0693 8.86328 93.4866 9.28587 93.7636 9.82209C94.0406 10.3548 94.1791 10.9549 94.1791 11.6225C94.1791 12.2937 94.0388 12.8974 93.7583 13.4336C93.4813 13.9663 93.0622 14.3888 92.5012 14.7013C91.9436 15.0103 91.2423 15.1648 90.3971 15.1648H87.7231V13.7692H90.248C90.7842 13.7692 91.2192 13.6768 91.553 13.4922C91.8868 13.304 92.1318 13.0483 92.2881 12.7251C92.4443 12.402 92.5225 12.0344 92.5225 11.6225C92.5225 11.2106 92.4443 10.8448 92.2881 10.5252C92.1318 10.2056 91.885 9.95526 91.5477 9.77415C91.2139 9.59304 90.7735 9.50249 90.2267 9.50249H88.1599V19H86.5139ZM96.1087 19V8.09091H99.9972C100.842 8.09091 101.544 8.23651 102.101 8.5277C102.662 8.81889 103.081 9.22195 103.358 9.73686C103.635 10.2482 103.774 10.8395 103.774 11.5107C103.774 12.1783 103.634 12.766 103.353 13.2738C103.076 13.7781 102.657 14.1705 102.096 14.451C101.538 14.7315 100.837 14.8718 99.9918 14.8718H97.0462V13.4549H99.8427C100.375 13.4549 100.809 13.3786 101.142 13.2259C101.48 13.0732 101.727 12.8512 101.883 12.56C102.039 12.2688 102.117 11.919 102.117 11.5107C102.117 11.0987 102.037 10.7418 101.877 10.44C101.721 10.1381 101.474 9.90732 101.137 9.74751C100.803 9.58416 100.365 9.50249 99.8214 9.50249H97.7546V19H96.1087ZM101.494 14.0781L104.189 19H102.314L99.6722 14.0781H101.494ZM115.253 13.5455C115.253 14.7102 115.04 15.7116 114.614 16.5497C114.188 17.3842 113.603 18.027 112.861 18.478C112.123 18.9254 111.283 19.1491 110.342 19.1491C109.397 19.1491 108.554 18.9254 107.811 18.478C107.073 18.027 106.49 17.3825 106.064 16.5444C105.638 15.7063 105.425 14.7067 105.425 13.5455C105.425 12.3807 105.638 11.381 106.064 10.5465C106.49 9.70845 107.073 9.0657 107.811 8.61825C108.554 8.16726 109.397 7.94176 110.342 7.94176C111.283 7.94176 112.123 8.16726 112.861 8.61825C113.603 9.0657 114.188 9.70845 114.614 10.5465C115.04 11.381 115.253 12.3807 115.253 13.5455ZM113.623 13.5455C113.623 12.6577 113.479 11.9102 113.191 11.3029C112.907 10.6921 112.517 10.2305 112.02 9.91797C111.526 9.60192 110.967 9.44389 110.342 9.44389C109.713 9.44389 109.152 9.60192 108.658 9.91797C108.165 10.2305 107.774 10.6921 107.487 11.3029C107.202 11.9102 107.06 12.6577 107.06 13.5455C107.06 14.4332 107.202 15.1825 107.487 15.7933C107.774 16.4006 108.165 16.8622 108.658 17.1783C109.152 17.4908 109.713 17.647 110.342 17.647C110.967 17.647 111.526 17.4908 112.02 17.1783C112.517 16.8622 112.907 16.4006 113.191 15.7933C113.479 15.1825 113.623 14.4332 113.623 13.5455Z" fill="white"/>
<g clip-path="url(#clip0_7_2)">
<path d="M22.2088 4.61976C20.9018 5.73933 19.2495 7.16789 17.4825 7.79856C13.6384 9.17061 9.45966 5.40283 5.38672 5.40283L9.80859 9.97857C13.2548 13.5382 18.8927 13.5382 22.3388 9.97857L31.987 0.0126953C27.3555 0.0126957 25.7015 1.62782 22.2088 4.61976Z" fill="white"/>
<path d="M9.79 23.3918C11.097 22.2722 12.7493 20.8437 14.5162 20.213C18.3603 18.8409 22.5391 22.6087 26.612 22.6087L22.1902 18.033C18.744 14.4734 13.106 14.4734 9.65992 18.033L0.0117188 27.9989C4.64321 27.9989 6.2972 26.3838 9.79 23.3918Z" fill="white"/>
</g>
<defs>
<clipPath id="clip0_7_2">
<rect width="32" height="28" fill="white"/>
</clipPath>
</defs>
</svg>
