<svg width="25" height="24" viewBox="0 0 25 24" fill="none" xmlns="http://www.w3.org/2000/svg">
<circle cx="12.5" cy="12" r="12" fill="#121212"/>
<path d="M9.4222 8C11.4999 8 13.1841 9.67272 13.1841 11.736C13.1841 13.7992 11.4998 15.4718 9.4222 15.4718C7.3446 15.4718 5.66016 13.7992 5.66016 11.736C5.66016 9.67272 7.34447 8 9.4222 8ZM15.4299 8.21884C16.4688 8.21884 17.3109 9.79336 17.3109 11.736H17.3111C17.3111 13.6781 16.4689 15.2531 15.43 15.2531C14.3912 15.2531 13.549 13.6781 13.549 11.736C13.549 9.79386 14.391 8.21884 15.4299 8.21884ZM18.3375 8.58518C18.7028 8.58518 18.9991 9.99581 18.9991 11.736C18.9991 13.4756 18.7029 14.8868 18.3375 14.8868C17.9721 14.8868 17.6761 13.476 17.6761 11.736C17.6761 9.99594 17.9722 8.58518 18.3375 8.58518Z" fill="white"/>
</svg>
