<svg width="131" height="99" viewBox="0 0 131 99" fill="none" xmlns="http://www.w3.org/2000/svg">
<path d="M67.6113 62.2053C62.9936 62.2053 62.6988 59.4663 63.5503 56.3643C64.7948 56.3643 66.0557 56.3643 67.2838 56.3643C66.9236 58.0638 66.678 59.5158 68.7412 59.5158C70.0185 59.5158 70.8045 58.6908 71.0665 57.4698C71.7542 54.2358 64.2545 54.0378 65.3843 48.7083C65.9902 45.9033 67.7915 43.6758 72.3601 43.6758C75.9953 43.6758 77.4527 45.3093 76.4211 49.0713C75.2093 49.0713 73.9812 49.0713 72.7858 49.0713C73.0806 47.7348 73.1461 46.3653 71.6232 46.3653C70.4115 46.3653 69.5436 47.0418 69.2816 48.2628C68.5611 51.6618 76.1591 51.3813 74.9637 56.9913C73.9485 61.6443 70.4442 62.2053 67.6113 62.2053Z" fill="black"/>
<path d="M89.4551 61.9086L93.2541 43.9731H103.014L102.44 46.7286H96.4308L95.4975 51.1671H101.032L100.459 53.9226H94.9243L93.8108 59.1696H100.017L99.4438 61.9251H89.4551V61.9086Z" fill="black"/>
<path d="M85.805 51.1505L87.3442 43.9565H91.0777L87.2787 61.9085H83.5289L85.2319 53.906H80.9416L79.2714 61.9085H75.5215L79.3205 43.973H83.0704L81.5475 51.1505H85.805Z" fill="black"/>
<path d="M57.9332 49.0551L58.67 61.9086H62.6164L61.5684 43.9731H56.6395L47.8789 61.9086H51.6615L57.9332 49.0551Z" fill="black"/>
<path d="M110.743 43.9731C108.663 43.9731 106.584 43.9731 104.504 43.9731C103.227 49.9461 101.982 55.9356 100.705 61.8921C102.736 61.8921 104.766 61.8921 106.797 61.8921C113.183 61.8921 114.1 55.5726 114.689 52.8171C115.852 47.2401 115.639 43.9731 110.743 43.9731ZM110.874 52.9326C109.908 57.4371 109.105 59.1366 106.829 59.1366C106.223 59.1366 105.618 59.1366 105.012 59.1366C105.88 54.9951 106.78 50.8536 107.648 46.7286C108.303 46.7286 108.942 46.7286 109.597 46.7286C112.2 46.7286 111.562 49.6326 110.874 52.9326Z" fill="black"/>
<path d="M46.978 61.9086L50.7933 43.9731H47.0435L45.5206 51.1671H41.2303L42.7532 43.9731H39.0197L35.2207 61.9086H38.9706L40.6736 53.9061H44.9638L43.2608 61.9086H46.978Z" fill="black"/>
<path d="M36.1878 46.7285L36.7937 43.973H33.0438L34.5667 36.812H30.8332L29.3103 43.973H25.02L26.5429 36.812H22.8094L21.2865 43.973H17.5367L16.9635 46.7285H20.697L19.7637 51.134H16.0302L15.457 53.906H19.1905L17.4875 61.9085H21.221L22.924 53.906H27.2143L25.5113 61.9085H29.2448L30.9478 53.906H34.6813L35.2544 51.1505H31.5537L32.487 46.745H36.1878V46.7285ZM27.8038 51.1505H23.5135L24.4469 46.745H28.7372L27.8038 51.1505Z" fill="black"/>
</svg>
