<svg width="26" height="26" viewBox="0 0 26 26" fill="none" xmlns="http://www.w3.org/2000/svg">
<path fill-rule="evenodd" clip-rule="evenodd" d="M17.345 2.43828C15.8145 2.41613 14.2222 2.86509 12.9981 4.12755C11.7648 2.86733 10.1565 2.43819 8.66651 2.43819C5.01218 2.43819 1.354 5.46705 1.354 9.75045C1.354 13.8906 4.003 17.3444 6.63517 19.6994C7.96584 20.8899 9.33068 21.8351 10.4387 22.4858C10.9923 22.811 11.4905 23.0677 11.8961 23.2462C12.0982 23.3351 12.2869 23.4088 12.4541 23.4617C12.6007 23.5083 12.8013 23.5625 12.9998 23.5625C13.1984 23.5625 13.3989 23.5083 13.5456 23.4617C13.7128 23.4088 13.9015 23.3351 14.1035 23.2462C14.5091 23.0677 15.0074 22.811 15.5611 22.4858C16.669 21.8351 18.0339 20.8899 19.3645 19.6994C21.9967 17.3444 24.6457 13.8906 24.6457 9.75045C24.6457 5.45757 20.9796 2.49086 17.345 2.43828Z" fill="#E21C1C"/>
</svg>
