<svg width="100" height="30" viewBox="0 0 100 30" fill="none" xmlns="http://www.w3.org/2000/svg">
<g clip-path="url(#clip0_0_797)">
<path d="M37.1334 7.47787V15.9428H28.721V8.57094C28.721 7.96509 28.2294 7.47363 27.6233 7.47363H24.7754V27.7377C24.7754 28.3436 25.267 28.835 25.873 28.835H28.721V19.383H37.1377V27.7335C37.1292 28.3393 37.6123 28.8393 38.2183 28.8477H38.2353H41.0832V8.57094C41.0832 7.96509 40.5916 7.47363 39.9856 7.47363H37.1334V7.47787ZM53.8396 12.7737V22.9291C53.8481 23.8527 53.365 24.7127 52.5682 25.1872C50.339 26.4752 48.0293 24.861 48.0293 22.7427V13.871C48.0293 13.2652 47.5377 12.7737 46.9317 12.7737H44.0837V23.107C44.0922 26.4371 46.7876 29.1316 50.1187 29.1485H51.7376C55.0729 29.1401 57.7767 26.4371 57.7852 23.1028V13.871C57.7852 13.2652 57.2936 12.7737 56.6876 12.7737H53.8396Z" fill="white"/>
<path d="M96.9278 28.8474H99.7757V14.4596C99.7757 13.8538 99.2841 13.3623 98.678 13.3623H95.8301V27.7416C95.8259 28.3475 96.3132 28.8432 96.9193 28.8474H96.9278Z" fill="white"/>
<path d="M99.8357 10.4845C100.301 9.36252 99.7677 8.07623 98.6453 7.61148C97.523 7.14674 96.2363 7.67953 95.7714 8.8015C95.3066 9.92347 95.8395 11.2098 96.9618 11.6745C98.0841 12.1393 99.3708 11.6065 99.8357 10.4845Z" fill="white"/>
<path d="M67.9652 12.7656C63.8331 12.7656 60.4512 15.7186 60.4512 19.8494V22.0821C60.4512 26.2129 63.8331 29.1489 67.9652 29.1489C72.0972 29.1489 75.4791 26.2129 75.4791 22.0821V19.8494C75.4834 15.7186 72.1014 12.7656 67.9652 12.7656ZM71.5166 22.349C71.5166 24.3021 69.9189 25.6028 67.9609 25.6028C66.003 25.6028 64.4095 24.3021 64.4095 22.349V19.5613C64.4095 17.6082 66.0072 16.3075 67.9609 16.3075C69.9146 16.3075 71.5166 17.6082 71.5166 19.5613V22.349Z" fill="white"/>
<path d="M85.6588 12.7656C84.4213 12.7571 83.2008 13.0367 82.0862 13.5748V8.59242C82.0862 7.98657 81.5946 7.49512 80.9886 7.49512H78.1406V22.082C78.1406 26.2128 81.5226 29.1488 85.6546 29.1488C89.7867 29.1488 93.1686 26.2128 93.1686 22.082V19.8493C93.1728 15.7185 89.7994 12.7656 85.6588 12.7656ZM89.2145 22.349C89.2145 24.3021 87.6168 25.6027 85.6588 25.6027C83.7051 25.6027 82.1074 24.3021 82.1074 22.349V19.5612C82.1074 17.6081 83.7051 16.3074 85.6588 16.3074C87.6126 16.3074 89.2145 17.6081 89.2145 19.5612V22.349Z" fill="white"/>
<path d="M12.8492 9.22783C12.8492 4.92335 10.7514 1.21625 9.15366 0.0130257C9.15366 0.0130257 9.03076 -0.0547613 9.04347 0.118943C8.91209 8.43556 4.66137 10.6895 2.32623 13.723C-3.06451 20.7304 1.94481 28.4116 7.05585 29.8308C9.90379 30.6273 6.39472 28.4243 5.94125 23.7766C5.38607 18.1672 12.8492 13.8797 12.8492 9.22783Z" fill="white"/>
<path d="M15.2992 12.0621C15.2653 12.0409 15.2187 12.024 15.1891 12.0791C15.1001 13.1255 14.0321 15.3625 12.6759 17.4215C8.07768 24.3951 10.6968 27.7591 12.1716 29.5681C13.0277 30.6146 12.1716 29.5681 14.3075 28.4962C16.9478 26.8948 18.66 24.124 18.9143 21.0481C19.3338 16.0912 16.3587 12.9688 15.2992 12.0621Z" fill="white"/>
</g>
<defs>
<clipPath id="clip0_0_797">
<rect width="100" height="30" fill="white"/>
</clipPath>
</defs>
</svg>
