<svg width="18" height="21" viewBox="0 0 18 21" fill="none" xmlns="http://www.w3.org/2000/svg">
<path d="M14.674 11.1705C14.6519 8.5151 16.8334 7.22447 16.9292 7.16513C15.6911 5.35529 13.7749 5.1031 13.1042 5.08085C11.4976 4.91025 9.93518 6.05252 9.11712 6.05252C8.28432 6.05252 7.01669 5.1031 5.66063 5.12535C3.91396 5.15502 2.27047 6.1712 1.37871 7.75852C-0.471142 10.9851 0.907033 15.7322 2.68318 18.3431C3.57494 19.6189 4.60673 21.0505 5.97017 20.9986C7.29675 20.9466 7.79791 20.1456 9.39718 20.1456C10.9891 20.1456 11.4534 20.9986 12.8389 20.9689C14.2687 20.9466 15.1605 19.6857 16.0227 18.3951C17.0472 16.9338 17.4599 15.4874 17.4746 15.4133C17.4378 15.3984 14.7035 14.3452 14.674 11.1705" fill="white"/>
<path d="M12.0572 3.36749C12.7721 2.46999 13.2585 1.24612 13.1258 0C12.0941 0.0445043 10.797 0.719487 10.0526 1.60216C9.39667 2.38098 8.80707 3.64936 8.95447 4.84355C10.1189 4.93256 11.3128 4.25016 12.0572 3.36749" fill="white"/>
</svg>
