<svg width="21" height="21" viewBox="0 0 21 21" fill="none" xmlns="http://www.w3.org/2000/svg">
<g clip-path="url(#clip0_0_4365)">
<path d="M10.5 0C4.70097 0 0 4.70096 0 10.5C0 16.299 4.70097 20.9999 10.5 20.9999C16.299 20.9999 21 16.299 21 10.5C21 4.70096 16.2989 0 10.5 0ZM7.69857 15.5762H5.39319V8.12822H7.69857V15.5762ZM6.5349 7.15284C5.78198 7.15284 5.17162 6.5375 5.17162 5.77856C5.17162 5.01953 5.78207 4.40423 6.5349 4.40423C7.28772 4.40423 7.89809 5.01953 7.89809 5.77856C7.89813 6.53754 7.28777 7.15284 6.5349 7.15284ZM16.338 15.5762H14.0438V11.6666C14.0438 10.5944 13.6365 9.9958 12.7886 9.9958C11.8658 9.9958 11.3837 10.6192 11.3837 11.6666V15.5762H9.1726V8.12822H11.3837V9.13134C11.3837 9.13134 12.0488 7.90103 13.6281 7.90103C15.2074 7.90103 16.338 8.86536 16.338 10.8603L16.338 15.5762Z" fill="#121212"/>
</g>
<defs>
<clipPath id="clip0_0_4365">
<rect width="21" height="21" fill="white"/>
</clipPath>
</defs>
</svg>
