<svg width="25" height="24" viewBox="0 0 25 24" fill="none" xmlns="http://www.w3.org/2000/svg">
<g clip-path="url(#clip0_0_426)">
<path d="M12.5 0C5.87253 0 0.5 5.37253 0.5 12C0.5 18.6274 5.87253 23.9999 12.5 23.9999C19.1274 23.9999 24.5 18.6274 24.5 12C24.5 5.37253 19.1273 0 12.5 0ZM9.29837 17.8014H6.66365V9.28939H9.29837V17.8014ZM7.96845 8.17468C7.10798 8.17468 6.41042 7.47143 6.41042 6.60407C6.41042 5.73661 7.10808 5.03341 7.96845 5.03341C8.82883 5.03341 9.52639 5.73661 9.52639 6.60407C9.52644 7.47148 8.82887 8.17468 7.96845 8.17468ZM19.172 17.8014H16.55V13.3333C16.55 12.1078 16.0845 11.4238 15.1155 11.4238C14.0609 11.4238 13.51 12.1362 13.51 13.3333V17.8014H10.983V9.28939H13.51V10.4358C13.51 10.4358 14.2701 9.02975 16.075 9.02975C17.8799 9.02975 19.172 10.1318 19.172 12.4117L19.172 17.8014Z" fill="#121212"/>
</g>
<defs>
<clipPath id="clip0_0_426">
<rect width="24" height="24" fill="white" transform="translate(0.5)"/>
</clipPath>
</defs>
</svg>
