<svg width="21" height="21" viewBox="0 0 21 21" fill="none" xmlns="http://www.w3.org/2000/svg">
<circle cx="10.5" cy="10.5" r="10.5" fill="#121212"/>
<path d="M7.80741 7C9.62542 7 11.0991 8.46363 11.0991 10.269C11.0991 12.0743 9.62531 13.5378 7.80741 13.5378C5.98951 13.5378 4.51562 12.0743 4.51562 10.269C4.51562 8.46363 5.9894 7 7.80741 7ZM13.0642 7.19149C13.9732 7.19149 14.7101 8.56919 14.7101 10.269H14.7102C14.7102 11.9683 13.9733 13.3465 13.0643 13.3465C12.1553 13.3465 11.4184 11.9683 11.4184 10.269C11.4184 8.56963 12.1552 7.19149 13.0642 7.19149ZM15.6083 7.51203C15.9279 7.51203 16.1872 8.74634 16.1872 10.269C16.1872 11.7912 15.9281 13.0259 15.6083 13.0259C15.2886 13.0259 15.0296 11.7915 15.0296 10.269C15.0296 8.74645 15.2887 7.51203 15.6083 7.51203Z" fill="white"/>
</svg>
