<svg width="56" height="56" viewBox="0 0 56 56" fill="none" xmlns="http://www.w3.org/2000/svg">
<circle cx="28" cy="28" r="28" fill="#0057FF"/>
<path d="M33 22H23V32H33V22Z" fill="white"/>
<path d="M15.5 35.75C15.5 37.8125 17.1875 39.5 19.25 39.5C21.3125 39.5 23 37.8125 23 35.75V32H19.25C17.1875 32 15.5 33.6875 15.5 35.75Z" fill="white"/>
<path d="M19.25 14.5C17.1875 14.5 15.5 16.1875 15.5 18.25C15.5 20.3125 17.1875 22 19.25 22H23V18.25C23 16.1875 21.3125 14.5 19.25 14.5Z" fill="white"/>
<path d="M40.5 18.25C40.5 16.1875 38.8125 14.5 36.75 14.5C34.6875 14.5 33 16.1875 33 18.25V22H36.75C38.8125 22 40.5 20.3125 40.5 18.25Z" fill="white"/>
<path d="M36.75 32H33V35.75C33 37.8125 34.6875 39.5 36.75 39.5C38.8125 39.5 40.5 37.8125 40.5 35.75C40.5 33.6875 38.8125 32 36.75 32Z" fill="white"/>
</svg>
