<svg width="24" height="22" viewBox="0 0 24 22" fill="none" xmlns="http://www.w3.org/2000/svg">
<path d="M13.886 20.4465C13.5738 20.5738 13.2376 20.6896 12.8774 20.8053L10.9801 21.4073C6.21296 22.8891 3.70329 21.6504 2.15425 17.0546L0.617228 12.4819C-0.919798 7.88602 0.353051 5.45498 5.12023 3.9732L6.96947 3.38281C6.74132 3.93847 6.54919 4.57518 6.36907 5.29292L5.19228 10.1435C3.8714 15.5959 5.80469 18.6058 11.4604 19.9024L13.4778 20.3654C13.6099 20.4001 13.754 20.4233 13.886 20.4465Z" fill="#121212"/>
<path d="M18.2333 0.820238L16.228 0.368759C12.2173 -0.545777 9.82771 0.206689 8.42274 3.00818C8.0625 3.71434 7.77431 4.57099 7.53415 5.55499L6.35736 10.4055C5.18058 15.2444 6.72961 17.6291 11.737 18.7752L13.7543 19.2382C14.4508 19.4003 15.0992 19.5045 15.6996 19.5508C19.4461 19.8981 21.4395 18.2079 22.4481 14.0289L23.6249 9.18993C24.8017 4.35104 23.2647 1.95473 18.2333 0.820238Z" fill="#121212"/>
</svg>
