<svg width="21" height="20" viewBox="0 0 21 20" fill="none" xmlns="http://www.w3.org/2000/svg">
<path d="M11.0641 16.6323C11.293 16.6855 11.314 16.9855 11.091 17.0598L9.77432 17.4931C6.46597 18.5598 4.72431 17.6681 3.64931 14.3598L2.58264 11.0681C1.51597 7.75977 2.39931 6.00977 5.70764 4.9431L6.1443 4.79849C6.48002 4.68732 6.80674 5.02403 6.71142 5.36459C6.66417 5.5334 6.61871 5.70957 6.57431 5.89311L5.75764 9.38479C4.84097 13.3098 6.18264 15.4765 10.1076 16.4098L11.0641 16.6323Z" fill="#0057FF"/>
<path d="M14.8078 2.67395L13.4162 2.34895C10.6328 1.69062 8.97452 2.23228 7.9995 4.24895C7.7495 4.75728 7.5495 5.37395 7.38283 6.08228L6.56617 9.57391C5.7495 13.0572 6.8245 14.7739 10.2995 15.5989L11.6995 15.9322C12.1828 16.0489 12.6328 16.1239 13.0495 16.1572C15.6495 16.4072 17.0328 15.1906 17.7328 12.1822L18.5495 8.69892C19.3662 5.21562 18.2995 3.49062 14.8078 2.67395ZM13.2412 11.1072C13.1662 11.3906 12.9162 11.5739 12.6328 11.5739C12.5828 11.5739 12.5328 11.5656 12.4745 11.5572L10.0495 10.9406C9.71618 10.8572 9.51618 10.5156 9.59952 10.1822C9.68285 9.84891 10.0245 9.64891 10.3578 9.73225L12.7828 10.3489C13.1245 10.4322 13.3245 10.7739 13.2412 11.1072ZM15.6828 8.29061C15.6078 8.57391 15.3578 8.75725 15.0745 8.75725C15.0245 8.75725 14.9745 8.74891 14.9162 8.74058L10.8745 7.71562C10.5412 7.63228 10.3412 7.29062 10.4245 6.95728C10.5078 6.62395 10.8495 6.42395 11.1828 6.50728L15.2245 7.53228C15.5662 7.60728 15.7662 7.94895 15.6828 8.29061Z" fill="#0057FF"/>
</svg>
