<svg width="25" height="28" viewBox="0 0 25 28" fill="none" xmlns="http://www.w3.org/2000/svg">
<path d="M12.4723 7.02704C12.4723 7.02704 1.89896 1.21012 1.27639 0.870371C0.653821 0.530621 0.03125 0.73653 0.03125 1.44692V26.5163C0.03125 27.0517 0.477426 27.2782 1.01699 26.9899C1.55655 26.6913 12.4723 20.6891 12.4723 20.6891C12.4723 20.6891 13.9561 19.8757 14.6928 19.4639C15.8861 18.805 18.2726 17.4975 18.2726 17.4975C18.2726 17.4975 23.2013 14.7898 23.855 14.4295C24.5087 14.0691 24.4464 13.5749 23.8965 13.297C23.3465 13.019 18.283 10.2083 18.283 10.2083L12.4723 7.02704Z" fill="url(#paint0_linear_0_676)"/>
<path d="M14.4229 13.8218L0.51881 0.746582C0.197148 0.81865 0 1.06574 0 1.46726V26.4852C0 26.8249 0.13489 27.0308 0.311286 27.1029L14.4229 13.8218Z" fill="url(#paint1_linear_0_676)"/>
<mask id="mask0_0_676" style="mask-type:alpha" maskUnits="userSpaceOnUse" x="0" y="0" width="15" height="28">
<path d="M14.4229 13.8218L0.51881 0.746582C0.197148 0.81865 0 1.06574 0 1.46726V26.4852C0 26.8249 0.13489 27.0308 0.311286 27.1029L14.4229 13.8218Z" fill="white"/>
</mask>
<g mask="url(#mask0_0_676)">
</g>
<mask id="mask1_0_676" style="mask-type:alpha" maskUnits="userSpaceOnUse" x="0" y="13" width="19" height="15">
<path d="M0.879284 27.0315L8.92083 22.6456C10.9027 21.5543 12.4695 20.6895 12.4695 20.6895L18.3113 17.57L14.4202 13.8224L0.308594 27.1036C0.464237 27.155 0.744394 27.1241 0.962294 27.0212" fill="white"/>
</mask>
<g mask="url(#mask1_0_676)">
<path d="M12.4495 7.02745C12.4287 7.07892 1.85538 1.25171 1.24319 0.953138C0.620618 0.561912 -0.00195312 0.778116 -0.00195312 1.46791V26.5888C-0.00195312 27.1447 0.444223 27.3712 0.931904 27.1035C1.52335 26.7741 12.4287 20.7719 12.4495 20.7204L18.2601 17.5288C18.229 17.57 23.1473 14.8623 23.7595 14.5431C24.4651 14.1416 24.3925 13.6474 23.8633 13.4106C23.2926 13.0812 18.229 10.2705 18.2601 10.219L12.4495 7.02745Z" fill="url(#paint2_linear_0_676)"/>
</g>
<path d="M1.25294 0.860082C0.983164 0.726241 0.723759 0.68506 0.505859 0.736537L14.4203 13.8323L18.2699 10.2186L12.4696 7.02705C12.4696 7.02705 7.00135 4.02078 3.70172 2.20878L1.25294 0.860082Z" fill="url(#paint3_linear_0_676)"/>
<mask id="mask2_0_676" style="mask-type:alpha" maskUnits="userSpaceOnUse" x="0" y="0" width="19" height="14">
<path d="M1.25294 0.860082C0.983164 0.726241 0.723759 0.68506 0.505859 0.736537L14.4203 13.8323L18.2699 10.2186L12.4696 7.02705C12.4696 7.02705 7.00135 4.02078 3.70172 2.20878L1.25294 0.860082Z" fill="white"/>
</mask>
<g mask="url(#mask2_0_676)">
</g>
<defs>
<linearGradient id="paint0_linear_0_676" x1="5.76674" y1="9.04602" x2="14.4844" y2="21.9394" gradientUnits="userSpaceOnUse">
<stop stop-color="#FF177B"/>
<stop offset="1" stop-color="#FFEC73"/>
</linearGradient>
<linearGradient id="paint1_linear_0_676" x1="9.51715" y1="-8.91713" x2="-6.10838" y2="24.5252" gradientUnits="userSpaceOnUse">
<stop stop-color="#064AA2"/>
<stop offset="1" stop-color="#63FFD4"/>
</linearGradient>
<linearGradient id="paint2_linear_0_676" x1="14.3081" y1="6.05464" x2="-5.09026" y2="17.7502" gradientUnits="userSpaceOnUse">
<stop stop-color="#FF4521"/>
<stop offset="1" stop-color="#8A33DB"/>
</linearGradient>
<linearGradient id="paint3_linear_0_676" x1="3.13689" y1="-3.4597" x2="10.0163" y2="14.5623" gradientUnits="userSpaceOnUse">
<stop stop-color="#00A3B5"/>
<stop offset="1" stop-color="#D6FFA1"/>
</linearGradient>
</defs>
</svg>
