<svg width="56" height="56" viewBox="0 0 56 56" fill="none" xmlns="http://www.w3.org/2000/svg">
<circle cx="28" cy="28" r="28" fill="#0057FF"/>
<path d="M35.1384 22C35.0415 21.9861 34.9446 21.9861 34.8478 22C32.7024 21.9307 31 20.1698 31 18.0069C31 15.8024 32.7855 14 35 14C37.2007 14 39 15.7886 39 18.0069C38.9862 20.1698 37.2837 21.9307 35.1384 22Z" fill="white"/>
<path d="M40.2464 31.7155C38.5767 32.7888 36.2362 33.1895 34.0745 32.9176C34.641 31.7441 34.9392 30.4418 34.9541 29.068C34.9541 27.6369 34.6261 26.2774 34 25.0896C36.2064 24.8034 38.5469 25.2041 40.2315 26.2774C42.587 27.7657 42.587 30.2128 40.2464 31.7155Z" fill="white"/>
<path d="M19.8544 22C19.9515 21.9861 20.0485 21.9861 20.1456 22C22.2946 21.9307 24 20.1698 24 18.0069C24 15.7886 22.2114 14 19.9931 14C17.7886 14 16 15.7886 16 18.0069C16 20.1698 17.7054 21.9307 19.8544 22Z" fill="white"/>
<path d="M20.1495 29.0608C20.1495 30.4464 20.433 31.7606 20.946 32.9462C19.0424 33.1604 17.0579 32.7319 15.5998 31.7177C13.4667 30.2178 13.4667 27.7752 15.5998 26.2753C17.0444 25.2468 19.0829 24.8325 21 25.0611C20.4465 26.261 20.1495 27.618 20.1495 29.0608Z" fill="white"/>
<path d="M28.1814 33C28.0653 32.9869 27.9347 32.9869 27.8041 33C25.1335 32.9214 23 30.9432 23 28.5065C23.0145 26.0175 25.2351 24 28.0073 24C30.7649 24 33 26.0175 33 28.5065C32.9855 30.9432 30.8665 32.9214 28.1814 33Z" fill="white"/>
<path d="M23.5941 36.1191C21.4686 37.4296 21.4686 39.5834 23.5941 40.8809C26.0153 42.373 29.9848 42.373 32.4059 40.8809C34.5314 39.5704 34.5314 37.4166 32.4059 36.1191C29.9988 34.627 26.0293 34.627 23.5941 36.1191Z" fill="white"/>
</svg>
