<svg width="34" height="34" viewBox="0 0 34 34" fill="none" xmlns="http://www.w3.org/2000/svg">
<circle cx="17" cy="17" r="17" fill="#0057FF"/>
<path fill-rule="evenodd" clip-rule="evenodd" d="M11.25 10.5C11.25 8.70507 12.7051 7.25 14.5 7.25C15.5052 7.25 16.4038 7.70637 17 8.42322C17.5962 7.70637 18.4948 7.25 19.5 7.25C21.2949 7.25 22.75 8.70507 22.75 10.5C22.75 11.2543 22.4931 11.9485 22.0619 12.5H23C24.3807 12.5 25.5 13.6193 25.5 15V16.25C25.5 16.6642 25.1642 17 24.75 17H18.05C17.8843 17 17.75 16.8657 17.75 16.7V13.2391C17.4671 13.0579 17.214 12.8341 17 12.5768C16.786 12.8341 16.5329 13.0579 16.25 13.2391V16.7C16.25 16.8657 16.1157 17 15.95 17H9.25C8.83579 17 8.5 16.6642 8.5 16.25V15C8.5 13.6193 9.61929 12.5 11 12.5H11.9381C11.5069 11.9485 11.25 11.2543 11.25 10.5ZM16.25 10.5C16.25 9.5335 15.4665 8.75 14.5 8.75C13.5335 8.75 12.75 9.5335 12.75 10.5C12.75 11.4665 13.5335 12.25 14.5 12.25C15.4665 12.25 16.25 11.4665 16.25 10.5ZM17.75 10.5C17.75 11.4665 18.5335 12.25 19.5 12.25C20.4665 12.25 21.25 11.4665 21.25 10.5C21.25 9.5335 20.4665 8.75 19.5 8.75C18.5335 8.75 17.75 9.5335 17.75 10.5Z" fill="white"/>
<path d="M16.2504 18.6496C16.2504 18.4839 16.1161 18.3496 15.9504 18.3496H10.6494C10.2438 18.3496 9.89716 18.6419 9.82865 19.0417C9.6066 20.3375 9.6066 21.6617 9.82865 22.9575L10.053 24.2665C10.204 25.1479 10.9198 25.8231 11.8086 25.9225L12.8737 26.0415C13.8946 26.1556 14.919 26.2272 15.9444 26.2564C16.1124 26.2612 16.2504 26.1258 16.2504 25.9577V18.6496Z" fill="white"/>
<path d="M18.056 26.2564C17.888 26.2612 17.75 26.1258 17.75 25.9577V18.6496C17.75 18.4839 17.8843 18.3496 18.05 18.3496H23.351C23.7566 18.3496 24.1033 18.6419 24.1718 19.0417C24.3938 20.3375 24.3938 21.6617 24.1718 22.9575L23.9475 24.2665C23.7964 25.1479 23.0806 25.8231 22.1919 25.9225L21.1268 26.0415C20.1058 26.1556 19.0814 26.2272 18.056 26.2564Z" fill="white"/>
</svg>
