<svg width="111" height="30" viewBox="0 0 111 30" fill="none" xmlns="http://www.w3.org/2000/svg">
<path d="M16.3233 8.72316L13.8691 7.29537C13.4079 7.06561 12.8478 7.06561 12.3866 7.29537L9.93242 8.72316C9.40534 9.03497 9.40534 9.54373 9.93242 9.83913L12.3866 11.2833C12.8478 11.5295 13.4079 11.5295 13.8691 11.2833L16.3233 9.83913C16.6362 9.74066 16.8009 9.39602 16.6856 9.08421C16.6362 8.90368 16.5045 8.77239 16.3233 8.72316Z" fill="white"/>
<path d="M25.8764 6.95022L14.05 0.172319C13.5888 -0.0574398 13.0288 -0.0574398 12.5676 0.172319L0.741207 6.95022C0.312954 7.24562 0.0329425 7.70514 0 8.2303V21.7697C0.0329425 22.2949 0.296483 22.7544 0.741207 23.0498L12.5676 29.8277C13.0288 30.0574 13.5888 30.0574 14.05 29.8277L25.8764 23.0498C26.3046 22.7544 26.5846 22.2949 26.6176 21.7697V8.2303C26.5846 7.72155 26.3046 7.24562 25.8764 6.95022ZM20.6056 10.1012L13.8688 14.0399C13.4076 14.2861 12.8476 14.2861 12.3864 14.0399L8.13681 11.5618C7.60973 11.25 7.165 11.4962 7.165 12.1034V19.6526C7.21442 19.9809 6.98382 20.2927 6.65439 20.3419C6.48968 20.3747 6.32497 20.3255 6.1932 20.227L5.46846 19.8496C5.02374 19.587 4.74373 19.111 4.71078 18.5859V10.3802C4.74373 9.87144 5.00727 9.39551 5.45199 9.10011L12.4029 5.07932C12.8641 4.84956 13.4241 4.84956 13.8853 5.07932L20.622 8.95241C20.935 9.03446 21.1326 9.34628 21.0668 9.65809C21.0009 9.88785 20.8197 10.052 20.6056 10.1012Z" fill="white"/>
<path d="M40.5693 24.5924C40.5529 24.4939 40.6352 24.3954 40.734 24.3954C40.7505 24.3954 40.767 24.3954 40.7835 24.3954H41.1788C41.2941 24.3954 41.3929 24.4775 41.3929 24.5924V26.7094C41.3929 26.7915 41.3435 26.8571 41.2611 26.9064C39.6469 28.1044 37.3574 27.7598 36.1715 26.1514C34.9856 24.5431 35.315 22.2619 36.9292 21.0803C37.9339 20.3418 39.2352 20.1613 40.4046 20.6044C40.734 20.7357 41.3764 21.0147 41.3764 21.2608C41.3929 21.2937 41.3929 21.3265 41.3764 21.3593L41.1788 21.704C41.1458 21.7696 41.0799 21.8024 41.0141 21.8024C40.9482 21.8024 40.8823 21.7696 40.8329 21.7368C40.3387 21.3757 39.7458 21.1952 39.1363 21.1788C37.588 21.1624 36.3197 22.3932 36.3033 23.9359C36.2868 25.3637 37.3739 26.5781 38.8069 26.7422C38.9222 26.7422 39.021 26.7422 39.1363 26.7422C39.6634 26.7587 40.174 26.611 40.6187 26.3156L40.5693 24.5924Z" fill="white"/>
<path d="M47.9145 26.6934C48.0133 26.6934 48.1122 26.7754 48.1122 26.8739C48.1122 26.8903 48.1122 26.8903 48.1122 26.9067V27.2842C48.1122 27.399 48.0298 27.4975 47.9145 27.4975H43.8626C43.7637 27.5139 43.6649 27.4483 43.6484 27.3498C43.6484 27.3334 43.6484 27.3006 43.6484 27.2842V20.6704C43.6484 20.5555 43.7308 20.457 43.8461 20.457H44.2579C44.3732 20.457 44.4555 20.5391 44.4555 20.6376C44.4555 20.654 44.4555 20.654 44.4555 20.6704V26.6934H47.9145Z" fill="white"/>
<path d="M56.561 24.0016C56.5446 25.9546 54.9304 27.5301 52.9703 27.5137C51.0102 27.4973 49.429 25.8889 49.4454 23.936C49.4619 21.983 51.0761 20.4075 53.0362 20.424C54.9798 20.4404 56.5446 21.9994 56.561 23.936C56.5775 23.9524 56.5775 23.9688 56.561 24.0016ZM52.9373 26.7752C54.4856 26.7752 55.7375 25.5279 55.7375 23.9852C55.7375 22.4426 54.4856 21.1953 52.9373 21.1953C51.4055 21.1953 50.1537 22.4426 50.1372 23.9688V23.9852C50.1372 25.5115 51.389 26.7587 52.9373 26.7752Z" fill="white"/>
<path d="M63.0007 23.7229C63.9725 24.2973 64.2855 25.5281 63.709 26.4964C63.3466 27.0872 62.7207 27.4647 62.0289 27.4975H58.9323C58.817 27.5139 58.7182 27.4319 58.7017 27.317C58.7017 27.3006 58.7017 27.3006 58.7017 27.2842V20.6868C58.6853 20.5719 58.7511 20.4734 58.8664 20.457C58.8829 20.457 58.8994 20.457 58.9159 20.457H61.716C62.7207 20.3914 63.5937 21.1627 63.6596 22.1802C63.6596 22.213 63.6596 22.2623 63.6596 22.2951C63.6596 22.8531 63.429 23.3618 63.0007 23.7229ZM61.7324 21.294H59.5253V23.4767H61.7324C62.3419 23.4603 62.836 22.968 62.8195 22.3443V22.2623C62.8195 21.7207 62.3913 21.294 61.8477 21.294H61.7324ZM59.5253 24.248V26.6933H62.0454C62.7207 26.6933 63.2643 26.1518 63.2643 25.4789C63.2643 24.806 62.7207 24.2645 62.0454 24.2645H59.5253V24.248Z" fill="white"/>
<path d="M66.4452 27.3006C66.4123 27.4155 66.3135 27.4975 66.1817 27.4975H65.7699C65.6381 27.4975 65.5723 27.4975 65.5723 27.3498C65.5723 27.3006 65.5723 27.2678 65.5723 27.2185C68.323 20.654 68.3394 20.654 68.3394 20.6376C68.3724 20.5391 68.4547 20.457 68.57 20.457H68.85C68.9653 20.457 69.0642 20.5227 69.0806 20.6376L71.8643 27.2185C71.8643 27.2513 71.8643 27.3006 71.8643 27.3334C71.8643 27.4319 71.7819 27.4811 71.6502 27.4811H71.2384C71.1231 27.4811 71.0243 27.399 70.9913 27.3006L70.4313 25.9384H67.0053L66.4452 27.3006ZM67.3182 25.1507H70.1019L68.7183 21.6879L67.3182 25.1507Z" fill="white"/>
<path d="M78.1235 26.6934C78.2223 26.6934 78.3211 26.7754 78.3211 26.8739V27.2842C78.3211 27.399 78.2388 27.4975 78.1235 27.4975H74.0715C73.9727 27.5139 73.8739 27.4483 73.8574 27.3498C73.8574 27.3334 73.8574 27.3006 73.8574 27.2842V20.6704C73.8574 20.5555 73.9398 20.457 74.0551 20.457H74.4833C74.5822 20.457 74.681 20.5391 74.681 20.6376V26.6934H78.1235Z" fill="white"/>
<path d="M35.3139 2.99465C35.2974 2.79771 35.4292 2.6336 35.6268 2.61719C35.6433 2.61719 35.6598 2.61719 35.6927 2.61719H41.3259C43.6154 2.68283 45.4273 4.58655 45.3778 6.86773C45.4273 9.1325 43.6484 11.0034 41.3753 11.069H38.6905V15.2211C38.6905 15.4837 38.5587 15.615 38.2787 15.615H35.6927C35.4292 15.615 35.3304 15.4837 35.3304 15.2211V2.99465H35.3139ZM38.674 5.3743V8.27911H40.6176C41.3753 8.2627 41.9848 7.65548 41.9848 6.88415C41.9848 6.86773 41.9848 6.85132 41.9848 6.8185C42.0177 6.03076 41.4083 5.3743 40.6176 5.34148L38.674 5.3743Z" fill="white"/>
<path d="M48.4895 2.99465C48.4731 2.79771 48.6213 2.61719 48.819 2.61719H54.6827C57.0381 2.69924 58.8994 4.63579 58.85 6.98262C58.7841 8.45964 57.977 9.80537 56.7087 10.5767L59.2453 15.2375C59.3276 15.3524 59.3112 15.5001 59.1959 15.5822C59.1464 15.615 59.097 15.6314 59.0311 15.6314H55.8522C55.6051 15.6314 55.5063 15.5658 55.3745 15.2704L53.2827 11.3152H51.8826V15.2539C51.8991 15.4509 51.7673 15.615 51.5697 15.6478C51.5367 15.6478 51.5202 15.6478 51.4873 15.6478H48.8519C48.6048 15.6478 48.4895 15.5165 48.4895 15.2539V2.99465ZM51.8826 5.30865V8.47605H53.8262C54.6827 8.45964 55.3581 7.75395 55.3581 6.91697C55.3416 6.06358 54.6663 5.35789 53.7933 5.32507H51.8826V5.30865Z" fill="white"/>
<path d="M68.3386 2.4209C72.0447 2.4209 75.0589 5.40777 75.0754 9.10033C75.0754 12.7929 72.0776 15.7962 68.3716 15.8126C64.6655 15.8126 61.6513 12.8257 61.6348 9.13315C61.6184 5.42418 64.6326 2.4209 68.3386 2.4209ZM68.3386 12.5795C70.1834 12.5795 71.6658 11.0861 71.6658 9.26444C71.6658 9.21521 71.6658 9.16598 71.6658 9.11674C71.5835 7.29508 70.0187 5.8837 68.1904 5.96576C66.3621 6.04781 64.9456 7.60689 65.0279 9.42856C65.1103 11.1353 66.4774 12.4975 68.1904 12.5795H68.3386Z" fill="white"/>
<path d="M78.5852 3.02747C78.5688 2.83054 78.717 2.65001 78.9147 2.61719H84.5478C86.6232 2.61719 88.3198 4.30756 88.3033 6.37539C88.3198 7.19596 88.0397 7.98371 87.5127 8.62375C88.3692 9.4115 88.8633 10.5275 88.8798 11.6927C88.8633 13.8262 87.1338 15.5658 84.9926 15.5986H78.9641C78.7829 15.615 78.6017 15.4837 78.5852 15.3032C78.5852 15.2868 78.5852 15.2539 78.5852 15.2375V3.02747ZM83.609 5.19377H81.9948V7.75395H83.576C84.2678 7.80318 84.8773 7.29443 84.9267 6.60515C84.9267 6.57233 84.9267 6.5231 84.9267 6.49027C84.9431 5.78458 84.3667 5.21018 83.6584 5.19377H83.609ZM84.0372 10.1008H81.9948V13.0056H84.0372C84.8114 12.9564 85.4208 12.2999 85.4043 11.5286C85.3879 10.7736 84.7949 10.15 84.0372 10.1008Z" fill="white"/>
<path d="M92.9629 2.99487C92.9629 2.73228 93.0782 2.60099 93.3253 2.60099H95.9607C96.1583 2.58458 96.323 2.71587 96.356 2.91281C96.356 2.94563 96.356 2.96204 96.356 2.99487V15.2213C96.3724 15.4183 96.2407 15.5824 96.043 15.6152C96.0101 15.6152 95.9936 15.6152 95.9607 15.6152H93.3253C93.0782 15.6152 92.9629 15.4839 92.9629 15.2213V2.99487Z" fill="white"/>
<path d="M100.72 2.99487C100.687 2.81434 100.818 2.63382 101 2.60099C101.033 2.60099 101.065 2.60099 101.098 2.60099H110.619C110.8 2.58458 110.981 2.71587 110.998 2.8964C110.998 2.92922 110.998 2.96205 110.998 2.99487V5.22682C111.014 5.42375 110.882 5.58787 110.685 5.60428C110.668 5.60428 110.635 5.60428 110.619 5.60428H107.506V15.2213C107.522 15.4183 107.39 15.5824 107.209 15.6152C107.176 15.6152 107.143 15.6152 107.11 15.6152H104.574C104.376 15.6316 104.211 15.5003 104.195 15.3034C104.195 15.2706 104.195 15.2542 104.195 15.2213V5.62069H101.098C100.901 5.6371 100.736 5.50581 100.703 5.30887C100.703 5.27605 100.703 5.25964 100.703 5.22682L100.72 2.99487Z" fill="white"/>
</svg>
