<svg width="56" height="56" viewBox="0 0 56 56" fill="none" xmlns="http://www.w3.org/2000/svg">
<circle cx="28" cy="28" r="28" fill="#0057FF"/>
<path d="M35.3536 27.5336C35.3536 31.9804 34.4785 35.9792 33.0887 38.8456C31.6787 41.7539 29.8416 43.3132 28 43.3132C26.1585 43.3132 24.3214 41.7539 22.9113 38.8456C21.5216 35.9792 20.6465 31.9804 20.6465 27.5336C20.6465 23.0867 21.5216 19.0879 22.9113 16.2215C24.3214 13.3133 26.1585 11.7539 28 11.7539C29.8416 11.7539 31.6787 13.3133 33.0887 16.2215C34.4785 19.0879 35.3536 23.0867 35.3536 27.5336Z" stroke="white"/>
<path d="M31.6755 21.2998C35.61 23.5233 38.7104 26.2644 40.5516 28.8757C42.4197 31.5251 42.8808 33.862 41.9601 35.4231C41.0393 36.9841 38.7411 37.7617 35.4629 37.5028C32.232 37.2477 28.2564 35.9901 24.3219 33.7666C20.3875 31.5432 17.287 28.802 15.4458 26.1908C13.5777 23.5414 13.1166 21.2044 14.0373 19.6434C14.9581 18.0824 17.2563 17.3048 20.5345 17.5636C23.7654 17.8188 27.741 19.0764 31.6755 21.2998Z" stroke="white"/>
<path d="M24.3219 21.2998C20.3875 23.5233 17.287 26.2644 15.4458 28.8757C13.5777 31.5251 13.1166 33.862 14.0373 35.4231C14.9581 36.9841 17.2563 37.7617 20.5345 37.5028C23.7654 37.2477 27.741 35.9901 31.6755 33.7666C35.61 31.5432 38.7104 28.802 40.5516 26.1908C42.4197 23.5414 42.8809 21.2044 41.9601 19.6434C41.0393 18.0824 38.7411 17.3048 35.4629 17.5636C32.232 17.8188 28.2564 19.0764 24.3219 21.2998Z" stroke="white"/>
<path d="M30.4247 27.8104C30.4247 29.1188 29.3393 30.1794 28.0005 30.1794C26.6616 30.1794 25.5762 29.1188 25.5762 27.8104C25.5762 26.502 26.6616 25.4414 28.0005 25.4414C29.3393 25.4414 30.4247 26.502 30.4247 27.8104Z" fill="white"/>
</svg>
