<svg width="30" height="30" viewBox="0 0 30 30" fill="none" xmlns="http://www.w3.org/2000/svg">
<g clip-path="url(#clip0_0_327)">
<path d="M15 30C23.2843 30 30 23.2843 30 15C30 6.71573 23.2843 0 15 0C6.71573 0 0 6.71573 0 15C0 23.2843 6.71573 30 15 30Z" fill="#0075FF"/>
<path d="M25.0042 15C25.0072 15.2055 24.9817 15.4106 24.9277 15.609C24.8737 15.8074 24.792 15.9975 24.6847 16.173C24.5779 16.3485 24.4466 16.5083 24.2951 16.6474C24.1436 16.7865 23.9734 16.9035 23.7892 16.995C23.7934 17.0498 23.7967 17.1049 23.7986 17.16C23.8031 17.27 23.8031 17.3801 23.7986 17.49C23.7967 17.5451 23.7934 17.6003 23.7892 17.655C23.7892 21.015 19.8742 23.745 15.0442 23.745C10.2142 23.745 6.29925 21.015 6.29925 17.655C6.29512 17.6003 6.29175 17.5451 6.28987 17.49C6.28536 17.3801 6.28536 17.27 6.28987 17.16C6.29175 17.1049 6.29512 17.0498 6.29925 16.995C6.01078 16.8624 5.75457 16.6687 5.54834 16.4274C5.34212 16.186 5.1908 15.9027 5.10487 15.597C5.01908 15.2913 5.00081 14.9705 5.05132 14.657C5.10182 14.3434 5.2199 14.0446 5.39737 13.7813C5.57469 13.518 5.80717 13.2964 6.07869 13.1319C6.3502 12.9674 6.65426 12.864 6.96975 12.8288C7.28528 12.7934 7.60473 12.8271 7.90596 12.9274C8.20718 13.0278 8.48299 13.1925 8.71425 13.41C9.14356 13.119 9.59336 12.8595 10.0601 12.6334C10.527 12.4077 11.0096 12.2156 11.5042 12.0596C11.9989 11.9036 12.5044 11.784 13.0162 11.7011C13.5281 11.6183 14.0456 11.5729 14.5642 11.565L15.6742 6.36002C15.6866 6.29965 15.711 6.24265 15.7459 6.19165C15.7804 6.14102 15.825 6.09752 15.8764 6.06415C15.9281 6.03077 15.9859 6.0079 16.0466 5.99665C16.107 5.98577 16.1692 5.9869 16.2292 6.00002L19.9042 6.73502C20.2751 6.0979 21.0536 5.8249 21.741 6.0904C22.4284 6.3559 22.8214 7.08152 22.6676 7.80227C22.5142 8.52302 21.8595 9.02552 21.1237 8.98765C20.3876 8.94977 19.788 8.38277 19.7092 7.65002L16.4992 6.97502L15.5242 11.655C16.0365 11.6659 16.5476 11.7139 17.0531 11.7983C18.0654 11.967 19.048 12.281 19.9706 12.7305C20.4314 12.9548 20.8754 13.2119 21.2992 13.5C21.604 13.2075 21.9869 13.0094 22.4017 12.9297C22.8166 12.8497 23.2457 12.8915 23.6374 13.05C24.029 13.2085 24.3665 13.4769 24.609 13.8229C24.8516 14.1689 24.9889 14.5777 25.0042 15V15ZM10.1182 17.0741C10.194 17.256 10.3042 17.4214 10.4437 17.5605C10.5829 17.7 10.7482 17.8103 10.9301 17.886C11.1122 17.9613 11.3072 18 11.5042 18C12.111 18 12.6577 17.6344 12.8902 17.0741C13.1224 16.5135 12.9937 15.8685 12.5647 15.4395C12.1357 15.0105 11.4907 14.8819 10.9301 15.114C10.3699 15.3465 10.0042 15.8933 10.0042 16.5C10.0042 16.6969 10.0429 16.8919 10.1182 17.0741V17.0741ZM18.7095 20.6749C18.7864 20.5999 18.8302 20.4975 18.8317 20.3903C18.8332 20.2826 18.7916 20.1791 18.7166 20.1023C18.6416 20.0254 18.5392 19.9815 18.432 19.98C18.3244 19.9785 18.2209 20.0201 18.1342 20.085C17.9087 20.2468 17.6698 20.3892 17.4202 20.5107C17.1706 20.6322 16.9112 20.7324 16.6447 20.8103C16.3785 20.8879 16.1059 20.943 15.8302 20.9749C15.5542 21.0068 15.2764 21.015 14.9992 21C14.7225 21.0124 14.445 21.0011 14.1701 20.9666C13.8952 20.9325 13.6237 20.8748 13.3586 20.7942C13.0931 20.7139 12.8355 20.6112 12.5876 20.4874C12.3397 20.3637 12.1027 20.2189 11.8792 20.055C11.8016 19.9913 11.703 19.9586 11.6025 19.9635C11.502 19.9684 11.4071 20.0108 11.3359 20.0817C11.265 20.1529 11.2226 20.2478 11.2177 20.3483C11.2129 20.4488 11.2455 20.5474 11.3092 20.625C11.5729 20.8238 11.853 20.9993 12.1466 21.15C12.4402 21.3008 12.7466 21.4256 13.0616 21.5239C13.3766 21.6221 13.6995 21.693 14.0269 21.7362C14.3542 21.7789 14.6846 21.7935 15.0142 21.78C15.3439 21.7935 15.6742 21.7789 16.0016 21.7362C16.6573 21.6499 17.2933 21.4516 17.8819 21.15C18.1755 20.9993 18.4556 20.8238 18.7192 20.625L18.7095 20.6749ZM18.4342 18.12C18.6375 18.1223 18.8392 18.0829 19.0271 18.0049C19.215 17.9265 19.3849 17.811 19.5266 17.6652C19.6684 17.5193 19.7786 17.346 19.8514 17.1559C19.9242 16.966 19.9575 16.7632 19.9492 16.56C19.9492 15.9533 19.5836 15.4065 19.0234 15.174C18.4627 14.9419 17.8177 15.0705 17.3887 15.4995C16.9597 15.9285 16.8311 16.5735 17.0632 17.1341C17.2957 17.6944 17.8425 18.06 18.4492 18.06L18.4342 18.12Z" fill="white"/>
</g>
<defs>
<clipPath id="clip0_0_327">
<rect width="30" height="30" fill="white"/>
</clipPath>
</defs>
</svg>
