<svg width="56" height="56" viewBox="0 0 56 56" fill="none" xmlns="http://www.w3.org/2000/svg">
<circle cx="28" cy="28" r="28" fill="#0057FF"/>
<path d="M13.916 33.3124V24.1249C13.916 19.0208 16.8327 16.8333 21.2077 16.8333H35.791C40.166 16.8333 43.0827 19.0208 43.0827 24.1249V32.8749C43.0827 37.9791 40.166 40.1666 35.791 40.1666H23.3952" fill="white"/>
<path d="M28.4993 32.1459C30.5129 32.1459 32.1452 30.5136 32.1452 28.5001C32.1452 26.4866 30.5129 24.8542 28.4993 24.8542C26.4858 24.8542 24.8535 26.4866 24.8535 28.5001C24.8535 30.5136 26.4858 32.1459 28.4993 32.1459Z" stroke="#0057FF" stroke-width="2" stroke-miterlimit="10" stroke-linecap="round" stroke-linejoin="round"/>
<path d="M37.9785 24.8542V32.1459" stroke="#0057FF" stroke-width="2" stroke-miterlimit="10" stroke-linecap="round" stroke-linejoin="round"/>
<path d="M25.6522 36.2326C25.6522 37.4535 25.3103 38.6093 24.708 39.5861C23.5847 41.4744 21.5173 42.7442 19.1405 42.7442C16.7638 42.7442 14.6963 41.4744 13.5731 39.5861C12.9708 38.6093 12.6289 37.4535 12.6289 36.2326C12.6289 32.6349 15.5429 29.7209 19.1405 29.7209C22.7382 29.7209 25.6522 32.6349 25.6522 36.2326Z" fill="#0057FF"/>
<path d="M21.4956 38.237C20.6574 39.0715 19.4571 39.328 18.4032 38.9982L16.4867 40.9114C16.3484 41.0539 16.0758 41.1394 15.8804 41.1109L14.9934 40.9888C14.7004 40.9481 14.4278 40.6713 14.3831 40.3782L14.261 39.4908C14.2325 39.2954 14.3261 39.0227 14.4604 38.8843L16.3728 36.9711C16.0473 35.9127 16.2995 34.7119 17.1378 33.8774C18.3381 32.6766 20.2871 32.6766 21.4916 33.8774C22.696 35.0783 22.696 37.0362 21.4956 38.237Z" fill="white"/>
<path d="M19.5471 37.0466C20.2214 37.0466 20.768 36.4999 20.768 35.8257C20.768 35.1514 20.2214 34.6047 19.5471 34.6047C18.8728 34.6047 18.3262 35.1514 18.3262 35.8257C18.3262 36.4999 18.8728 37.0466 19.5471 37.0466Z" fill="#0057FF"/>
</svg>
