<svg width="56" height="56" viewBox="0 0 56 56" fill="none" xmlns="http://www.w3.org/2000/svg">
<circle cx="28" cy="28" r="28" fill="#0057FF"/>
<path d="M38.5651 15.3661L30.4419 12.3722C29.0907 11.8759 26.8768 11.8759 25.5256 12.3722L17.4023 15.3661C15.5302 16.0545 14 18.2319 14 20.1851V32.0805C14 33.9697 15.2698 36.4513 16.8163 37.588L23.8163 42.7272C26.1117 44.4243 29.8884 44.4243 32.1837 42.7272L39.1837 37.588C40.7302 36.4513 42 33.9697 42 32.0805V20.1851C41.9674 18.2319 40.4372 16.0545 38.5651 15.3661ZM27.8698 20.041C29.7907 20.041 31.3535 21.578 31.3535 23.4672C31.3535 25.3243 29.8721 26.8133 28 26.8773H27.9675H27.9349C27.9024 26.8773 27.8698 26.8773 27.8372 26.8773C25.8838 26.8133 24.4186 25.3243 24.4186 23.4672C24.4023 21.578 25.9652 20.041 27.8698 20.041ZM31.5489 34.9784C30.5558 35.6188 29.2698 35.955 27.9838 35.955C26.6977 35.955 25.3954 35.6348 24.4186 34.9784C23.4907 34.37 22.986 33.5375 22.9697 32.6249C22.9697 31.7283 23.4907 30.8638 24.4186 30.2554C26.3884 28.9746 29.5954 28.9746 31.5651 30.2554C32.493 30.8638 33.014 31.6963 33.014 32.6089C32.9977 33.5054 32.4768 34.37 31.5489 34.9784Z" fill="white"/>
</svg>
