<svg width="49" height="56" viewBox="0 0 49 56" fill="none" xmlns="http://www.w3.org/2000/svg">
<path d="M48.9725 25.5277C48.9725 39.2266 39.2165 52.057 25.8879 55.8109C24.981 56.063 23.9916 56.063 23.0847 55.8109C9.75599 52.057 0 39.2266 0 25.5277V13.2295C0 10.9324 1.70389 8.32708 3.81999 7.45865L19.1274 1.07154C22.5626 -0.357179 26.4375 -0.357179 29.8727 1.07154L45.18 7.45865C47.2687 8.32708 49 10.9324 49 13.2295L48.9725 25.5277Z" fill="#0057FF"/>
<path d="M29.2835 21.2495L29.2835 21.2495C29.3847 21.172 29.4826 21.0967 29.5778 21.0236C30.4708 20.3376 31.1134 19.8439 31.7658 19.4834L28.0823 22.8881C26.1899 24.6372 23.0583 24.6374 21.1656 22.8885C21.1655 22.8884 21.1654 22.8882 21.1652 22.8881L21.0708 22.8007C21.1451 22.8262 21.2201 22.8518 21.296 22.8775C22.6276 23.3288 24.2431 23.8028 25.8584 23.2869L25.8584 23.2868C27.1776 22.8655 28.3733 21.9479 29.2008 21.313C29.2288 21.2915 29.2564 21.2703 29.2835 21.2495Z" stroke="white" stroke-width="2"/>
<path d="M23.1413 30.8468L23.1413 30.8468C21.822 31.2682 20.6262 32.1858 19.7988 32.8208C19.7708 32.8422 19.7432 32.8634 19.7161 32.8842C19.615 32.9617 19.517 33.0369 19.4219 33.11C18.5288 33.7961 17.8862 34.2897 17.2339 34.6502L20.9173 31.2455C22.8097 29.4964 25.9414 29.4963 27.834 31.2452C27.8341 31.2453 27.8343 31.2454 27.8344 31.2455L27.9289 31.333C27.8546 31.3075 27.7795 31.2818 27.7037 31.2561C26.372 30.8048 24.7566 30.3309 23.1413 30.8468Z" stroke="white" stroke-width="2"/>
</svg>
