<svg width="56" height="56" viewBox="0 0 56 56" fill="none" xmlns="http://www.w3.org/2000/svg">
<circle cx="28" cy="28" r="28" fill="#0057FF"/>
<path d="M38.4286 25.0303C35.3516 25.0303 32.8571 22.5611 32.8571 19.5152C32.8571 16.4692 35.3516 14 38.4286 14C41.5056 14 44 16.4692 44 19.5152C44 22.5611 41.5056 25.0303 38.4286 25.0303Z" fill="white"/>
<path d="M21.9589 30.9697H17.1834C15.4324 30.9697 13.9997 32.3879 13.9997 34.1212V38.8485C13.9997 40.5818 15.4324 42 17.1834 42H21.9589C23.7099 42 25.1426 40.5818 25.1426 38.8485V34.1212C25.1426 32.3879 23.7099 30.9697 21.9589 30.9697Z" fill="white"/>
<path d="M28.148 19.9395H25.4496C23.587 19.9395 22.7211 22.4376 24.1206 23.7685L32.1653 31.394C33.5648 32.714 32.6989 35.2122 30.8463 35.2122H28.148" stroke="white" stroke-width="2" stroke-linecap="round" stroke-linejoin="round"/>
<ellipse cx="19.5709" cy="36.4849" rx="1.28571" ry="1.27273" fill="#0057FF"/>
<ellipse cx="38.4283" cy="19.5152" rx="1.28571" ry="1.27273" fill="#0057FF"/>
</svg>
