<svg width="50" height="50" viewBox="0 0 50 50" fill="none" xmlns="http://www.w3.org/2000/svg">
<circle cx="25" cy="25" r="24.5" stroke="#121212"/>
<g clip-path="url(#clip0_568_1026)">
<path fill-rule="evenodd" clip-rule="evenodd" d="M22.5882 31.46C22.1977 31.0694 22.1977 30.4363 22.5882 30.0457L27.3093 25.3247L22.5882 20.6036C22.1977 20.213 22.1977 19.5799 22.5882 19.1894L22.8081 18.9694C23.1987 18.5789 23.8318 18.5789 24.2224 18.9694L29.7032 24.4503C29.9412 24.6882 30.0341 25.0163 29.9821 25.3247C30.0341 25.633 29.9412 25.9611 29.7032 26.1991L24.2224 31.6799C23.8318 32.0704 23.1987 32.0704 22.8081 31.6799L22.5882 31.46Z" fill="#121212"/>
</g>
<defs>
<clipPath id="clip0_568_1026">
<rect width="8" height="14" fill="white" transform="matrix(-1 -8.74228e-08 -8.74228e-08 1 30 18)"/>
</clipPath>
</defs>
</svg>
