<svg width="25" height="24" viewBox="0 0 25 24" fill="none" xmlns="http://www.w3.org/2000/svg">
<g clip-path="url(#clip0_0_419)">
<path d="M12.5 24C19.1274 24 24.5 18.6274 24.5 12C24.5 5.37259 19.1274 0 12.5 0C5.87259 0 0.5 5.37259 0.5 12C0.5 18.6274 5.87259 24 12.5 24Z" fill="#121212"/>
<path d="M5.99028 11.7402L17.5603 7.2792C18.0972 7.08521 18.5663 7.41021 18.3923 8.22221L18.3933 8.2212L16.4232 17.5022C16.2773 18.1602 15.8863 18.3202 15.3393 18.0102L12.3393 15.7992L10.8923 17.1932C10.7323 17.3532 10.5972 17.4882 10.2873 17.4882L10.5003 14.4352L16.0603 9.41215C16.3023 9.19924 16.0063 9.07924 15.6873 9.29121L8.81629 13.6172L5.85428 12.6932C5.21129 12.4892 5.19728 12.0502 5.99028 11.7402Z" fill="white"/>
</g>
<defs>
<clipPath id="clip0_0_419">
<rect width="24" height="24" fill="white" transform="translate(0.5)"/>
</clipPath>
</defs>
</svg>
