<svg width="19" height="15" viewBox="0 0 19 15" fill="none" xmlns="http://www.w3.org/2000/svg">
<path d="M6.16996 15.0001C12.8867 15.0001 16.5598 9.4908 16.5598 4.71333C16.5598 4.55687 16.5566 4.40113 16.5495 4.24603C17.2642 3.73401 17.881 3.10004 18.371 2.37386C17.7167 2.66187 17.0126 2.85571 16.274 2.9431C17.0279 2.49552 17.6067 1.78744 17.8798 0.943406C17.1629 1.36442 16.3787 1.66121 15.561 1.82098C14.8946 1.11823 13.9459 0.678711 12.8955 0.678711C10.8789 0.678711 9.2436 2.29782 9.2436 4.29361C9.2436 4.57735 9.27568 4.85325 9.33834 5.11798C6.30337 4.96679 3.61218 3.52813 1.8111 1.34057C1.4867 1.89232 1.31608 2.51939 1.31665 3.15774C1.31665 4.41208 1.9613 5.51938 2.94166 6.1672C2.36177 6.14967 1.7946 5.99459 1.28785 5.71501C1.28731 5.73019 1.28731 5.74497 1.28731 5.76119C1.28731 7.51209 2.54601 8.97398 4.2169 9.30523C3.90308 9.38985 3.57926 9.43263 3.254 9.43244C3.01912 9.43244 2.79019 9.40957 2.56771 9.36728C3.03261 10.8038 4.38066 11.8491 5.97895 11.8784C4.72911 12.8482 3.1547 13.4259 1.44355 13.4259C1.15246 13.4262 0.861611 13.4094 0.57251 13.3758C2.18863 14.4014 4.10743 15.0001 6.16996 15.0001Z" fill="#121212"/>
</svg>
