<svg width="55" height="55" viewBox="0 0 55 55" fill="none" xmlns="http://www.w3.org/2000/svg">
<circle cx="27.5" cy="27.5" r="27.5" fill="#252525"/>
<g clip-path="url(#clip0_94_3)">
<path d="M32.739 18.9597C31.6362 19.9193 30.2421 21.1438 28.7513 21.6843C25.5078 22.8604 21.982 19.6309 18.5454 19.6309L22.2764 23.5529C25.1841 26.604 29.9411 26.604 32.8488 23.5529L40.9894 15.0107C37.0815 15.0107 35.686 16.3951 32.739 18.9597Z" fill="white"/>
<path d="M22.2612 35.0505C23.3639 34.0909 24.7581 32.8664 26.2489 32.3258C29.4924 31.1498 33.0182 34.3793 36.4548 34.3793L32.7238 30.4573C29.8161 27.4062 25.0591 27.4062 22.1514 30.4573L14.0107 38.9995C17.9186 38.9995 19.3141 37.6151 22.2612 35.0505Z" fill="white"/>
</g>
<defs>
<clipPath id="clip0_94_3">
<rect width="27" height="24" fill="white" transform="translate(14 15)"/>
</clipPath>
</defs>
</svg>
