<svg width="23" height="16" viewBox="0 0 23 16" fill="none" xmlns="http://www.w3.org/2000/svg">
<path d="M12.0096 15.979L7.29084 15.8922C5.76303 15.862 4.23141 15.9224 2.73356 15.6091C0.454972 15.1409 0.293549 12.8456 0.124637 10.9203C-0.108107 8.21353 -0.0180047 5.45763 0.421213 2.77346C0.669166 1.26735 1.64496 0.36865 3.15399 0.270854C8.24809 -0.0840621 13.3761 -0.0420009 18.4589 0.12358C18.9957 0.138759 19.5362 0.221724 20.0655 0.316159C22.6783 0.77675 22.742 3.37784 22.9114 5.56748C23.0803 7.7797 23.009 10.0033 22.6862 12.2005C22.4271 14.0196 21.9316 15.5452 19.8402 15.6925C17.2199 15.8851 14.6597 16.0401 12.032 15.9907C12.0321 15.979 12.017 15.979 12.0096 15.979ZM9.2354 11.3734C11.21 10.2332 13.147 9.112 15.1103 7.97947C13.132 6.83929 11.1987 5.71811 9.2354 4.58558V11.3734Z" fill="#121212"/>
</svg>
