<svg width="26" height="18" viewBox="0 0 26 18" fill="none" xmlns="http://www.w3.org/2000/svg">
<path d="M13.5667 17.7894L8.32132 17.6936C6.623 17.6602 4.92045 17.7268 3.25543 17.3811C0.722546 16.8645 0.543107 14.3314 0.355344 12.2067C0.096625 9.21953 0.196783 6.17819 0.685018 3.216C0.960644 1.55389 2.04534 0.562107 3.72279 0.454181C9.3854 0.0625044 15.0857 0.108922 20.7357 0.291654C21.3324 0.308405 21.9333 0.399963 22.5217 0.504179C25.4261 1.01248 25.4969 3.88298 25.6852 6.29941C25.873 8.74077 25.7937 11.1947 25.4348 13.6194C25.1469 15.627 24.596 17.3106 22.2713 17.4731C19.3585 17.6857 16.5126 17.8568 13.5916 17.8023C13.5918 17.7894 13.575 17.7894 13.5667 17.7894ZM10.4829 12.7066C12.6779 11.4484 14.831 10.2111 17.0135 8.96123C14.8144 7.70295 12.6654 6.46565 10.4829 5.21581V12.7066Z" fill="#FF0000"/>
</svg>
